<?xml version="1.0" encoding="utf-8"?>
<!-- Generator: Adobe Illustrator 21.0.0, SVG Export Plug-In . SVG Version: 6.00 Build 0)  -->
<svg version="1.1" id="图层_1" xmlns="http://www.w3.org/2000/svg" xmlns:xlink="http://www.w3.org/1999/xlink" x="0px" y="0px"
	 viewBox="0 0 48 48" style="enable-background:new 0 0 48 48;" xml:space="preserve">
<style type="text/css">
	.st0{fill:#060001;}
	.st1{fill:#040000;}
	.st2{fill:none;stroke:#000000;stroke-miterlimit:10;}
	.st3{fill:#221815;}
	.st4{fill:#080102;}
	.st5{fill:none;stroke:#000000;stroke-width:2;stroke-linecap:round;stroke-linejoin:round;stroke-miterlimit:10;}
	.st6{fill:#070001;}
</style>
<path d="M43,30.4c-0.3,0-0.5,0-0.8,0.1L26.7,7.7c0.5-0.6,0.9-1.4,0.9-2.3C27.6,3.6,26,2,24,2c-2,0-3.6,1.6-3.6,3.5
	c0,0.9,0.4,1.7,0.9,2.3L5.8,30.5c-0.3-0.1-0.5-0.1-0.8-0.1c-1.6,0-3,1.3-3,2.9c0,1.6,1.3,2.9,3,2.9c0.4,0,0.8-0.1,1.2-0.3l14.3,6.8
	c0.1,1.8,1.6,3.3,3.5,3.3c1.9,0,3.5-1.5,3.6-3.3l14.3-6.8c0.4,0.2,0.8,0.2,1.2,0.2c1.6,0,3-1.3,3-2.9C46,31.7,44.7,30.4,43,30.4z
	 M40.1,33.3c0,0.3,0.1,0.6,0.1,0.9l-13.4,6.3c-0.4-0.5-1-1-1.7-1.2V8.7c0.2-0.1,0.4-0.2,0.6-0.3L41.2,31
	C40.5,31.5,40.1,32.3,40.1,33.3z M22.3,8.5c0.2,0.1,0.3,0.2,0.5,0.2v30.5c-0.7,0.2-1.2,0.7-1.7,1.2L7.8,34.1
	c0.1-0.3,0.1-0.5,0.1-0.8c0-0.9-0.4-1.7-1.1-2.2L22.3,8.5z M3.2,33.3c0-1,0.8-1.7,1.8-1.7s1.8,0.8,1.8,1.7C6.8,34.2,6,35,5,35
	S3.2,34.2,3.2,33.3z M24,44.8c-1.3,0-2.4-1-2.4-2.3c0-1.3,1.1-2.3,2.4-2.3s2.4,1,2.4,2.3C26.4,43.8,25.3,44.8,24,44.8z M43,35
	c-1,0-1.8-0.8-1.8-1.7c0-1,0.8-1.7,1.8-1.7s1.8,0.8,1.8,1.7C44.8,34.2,44,35,43,35z"/>
</svg>
