<?xml version="1.0" encoding="utf-8"?>
<!-- Generator: Adobe Illustrator 21.0.0, SVG Export Plug-In . SVG Version: 6.00 Build 0)  -->
<svg version="1.1" id="图层_1" xmlns="http://www.w3.org/2000/svg" xmlns:xlink="http://www.w3.org/1999/xlink" x="0px" y="0px"
	 viewBox="0 0 48 48" enable-background="new 0 0 48 48" xml:space="preserve">
<path fill="none" stroke="#000000" stroke-miterlimit="10" d="M28.5,31.1c0,1.4,0.7,2.7,2,3.4l6.7,3.9"/>
<path d="M29,29.6c0-0.3-0.2-0.5-0.5-0.5S28,29.3,28,29.6l0,1.4c0,0.2,0,0.5,0.1,0.7c0,0.2,0.3,0.4,0.5,0.4c0,0,0.1,0,0.1,0
	c0.3,0,0.5-0.3,0.4-0.6c0-0.2,0-0.4,0-0.6L29,29.6z M28.5,27c0.3,0,0.5-0.2,0.5-0.5l0-5.1c0-0.3-0.2-0.5-0.5-0.5S28,21.2,28,21.5
	l0,5.1C28,26.8,28.2,27,28.5,27z M40.4,10.3L27.6,2.9c-2-1.2-5.1-1.2-7.2,0L7.6,10.3c-2,1.2-3.6,3.9-3.6,6.2l0,14.9
	c0,2.4,1.5,5,3.6,6.2l12.8,7.4c1,0.6,2.3,0.9,3.6,0.9c1.3,0,2.6-0.3,3.6-0.9l12.8-7.4c2-1.2,3.6-3.9,3.6-6.2l0-14.9
	C44,14.2,42.5,11.5,40.4,10.3z M8.6,35.9C7.2,35.1,6,33.1,6,31.5l0-14.9c0-1.6,1.2-3.7,2.6-4.5l2.8-1.6l5.9,3.5
	c1.1,0.6,1.7,1.8,1.7,3l0,14.1c0,1.2-0.7,2.4-1.7,3l-5.9,3.5L8.6,35.9z M42,31.5c0,1.6-1.2,3.7-2.6,4.5l-2.8,1.6l-1-0.6
	c-0.2-0.1-0.5-0.1-0.7,0.2c-0.1,0.2-0.1,0.5,0.2,0.7l0.5,0.3l-9.1,5.2c-1.4,0.8-3.8,0.8-5.2,0l-9-5.2l5.4-3.2
	c1.4-0.8,2.2-2.3,2.2-3.9l0-14.1c0-1.6-0.9-3.1-2.2-3.9l-5.4-3.2l9.1-5.2C22.1,4.2,23.1,4,24,4c0.9,0,1.9,0.2,2.6,0.6l9,5.2L30.2,13
	c-0.1,0-0.2,0.1-0.2,0.2c-0.1,0-0.1,0.1-0.2,0.1c0,0,0,0,0,0c-0.9,0.7-1.5,1.7-1.7,2.9c0,0,0,0,0,0c0,0,0,0,0,0
	c0,0.2-0.1,0.5-0.1,0.7h0l0,1.5c0,0.3,0.2,0.5,0.5,0.5s0.5-0.2,0.5-0.5l0-1.5c0-0.2,0-0.4,0-0.5c0,0,0,0,0,0
	c0.1-0.9,0.7-1.8,1.4-2.3c0.1-0.1,0.2-0.1,0.3-0.2l2.3-1.3c0,0,0,0,0,0l2.6-1.5c0,0,0,0,0,0l1-0.6l2.8,1.6c1.4,0.8,2.6,2.8,2.6,4.5
	L42,31.5z M33,35.4l-2.3-1.3c-0.1-0.1-0.2-0.1-0.3-0.2c-0.2-0.2-0.5-0.1-0.7,0.1c-0.2,0.2-0.1,0.5,0.1,0.7c0.1,0.1,0.3,0.2,0.4,0.3
	l2.3,1.3c0.1,0,0.2,0.1,0.3,0.1c0.2,0,0.3-0.1,0.4-0.2C33.3,35.9,33.2,35.6,33,35.4z"/>
<g>
</g>
<g>
</g>
<g>
</g>
<g>
</g>
<g>
</g>
<g>
</g>
<g>
</g>
<g>
</g>
<g>
</g>
<g>
</g>
<g>
</g>
<g>
</g>
<g>
</g>
<g>
</g>
<g>
</g>
</svg>
