<?xml version="1.0" encoding="utf-8"?>
<!-- Generator: Adobe Illustrator 21.0.0, SVG Export Plug-In . SVG Version: 6.00 Build 0)  -->
<svg version="1.1" id="图层_1" xmlns="http://www.w3.org/2000/svg" xmlns:xlink="http://www.w3.org/1999/xlink" x="0px" y="0px"
	 viewBox="0 0 48 48" style="enable-background:new 0 0 48 48;" xml:space="preserve">
<style type="text/css">
	.st0{fill:#060001;}
	.st1{fill:#040000;}
	.st2{fill:none;stroke:#000000;stroke-miterlimit:10;}
	.st3{fill:#221815;}
	.st4{fill:#080102;}
	.st5{fill:none;stroke:#000000;stroke-width:2;stroke-linecap:round;stroke-linejoin:round;stroke-miterlimit:10;}
	.st6{fill:#070001;}
</style>
<g>
	<path class="st0" d="M24,13c-6.2,0-11.3,4.9-11.3,11S17.8,35,24,35s11.3-4.9,11.3-11S30.2,13,24,13z M24,34
		c-5.7,0-10.3-4.5-10.3-10S18.3,14,24,14c5.7,0,10.3,4.5,10.3,10S29.7,34,24,34z"/>
	<path class="st0" d="M24,7C13.3,7,4.3,14.3,2,24c2.3,9.7,11.3,17,22,17s19.7-7.3,22-17C43.7,14.3,34.7,7,24,7z M24,39
		c-9.5,0-17.6-6.1-19.9-15C6.4,15.1,14.5,9,24,9s17.6,6.1,19.9,15C41.6,32.9,33.5,39,24,39z"/>
	<path class="st0" d="M28.8,18.6l-3,2.9C25.3,21.2,24.7,21,24,21c-1.7,0-3.1,1.3-3.1,3s1.4,3,3.1,3s3.1-1.3,3.1-3
		c0-0.6-0.2-1.2-0.6-1.7l3-2.9c0.2-0.2,0.2-0.5,0-0.7S29,18.5,28.8,18.6z"/>
</g>
</svg>
