<?xml version="1.0" encoding="utf-8"?>
<!-- Generator: Adobe Illustrator 21.0.0, SVG Export Plug-In . SVG Version: 6.00 Build 0)  -->
<svg version="1.1" id="图层_1" xmlns="http://www.w3.org/2000/svg" xmlns:xlink="http://www.w3.org/1999/xlink" x="0px" y="0px"
	 viewBox="0 0 48 48" style="enable-background:new 0 0 48 48;" xml:space="preserve">
<style type="text/css">
	.st0{fill:#060001;}
	.st1{fill:#040000;}
	.st2{fill:none;stroke:#000000;stroke-miterlimit:10;}
	.st3{fill:#221815;}
	.st4{fill:#080102;}
	.st5{fill:none;stroke:#000000;stroke-width:2;stroke-linecap:round;stroke-linejoin:round;stroke-miterlimit:10;}
	.st6{fill:#070001;}
</style>
<g>
	<path class="st0" d="M31.5,19.1c-1.4-4.1-5.4-7.1-10-7.1s-8.6,3-10,7.1C6.1,19.6,2,24.1,2,29.5C2,35.3,6.8,40,12.6,40h17.7
		C36.2,40,41,35.3,41,29.5C41,24.1,36.9,19.6,31.5,19.1z M30.4,38H12.6C7.9,38,4,34.2,4,29.5c0-4.3,3.3-8,7.7-8.4
		c0.8-0.1,1.4-0.6,1.7-1.3c1.2-3.4,4.5-5.7,8.2-5.7s7,2.3,8.2,5.7c0.3,0.7,0.9,1.2,1.7,1.3c4.4,0.5,7.7,4.1,7.7,8.4
		C39,34.2,35.1,38,30.4,38z"/>
	<path class="st0" d="M36.4,15.1C34.8,10.8,30.6,8,26,8c-0.9,0-1.7,0.1-2.5,0.3c-1.7,0.4-3.3,1.2-4.7,2.3c-0.2,0.2-0.2,0.5-0.1,0.7
		c0.2,0.2,0.5,0.2,0.7,0.1c1.2-1,2.7-1.8,4.3-2.1C24.4,9.1,25.2,9,26,9c4.3,0,8.2,2.7,9.6,6.7c0.1,0.2,0.2,0.3,0.4,0.3
		c5.1,0.6,9,4.8,9,9.9c0,3-1.4,5.8-3.7,7.7c-0.2,0.2-0.2,0.5-0.1,0.7c0.1,0.1,0.2,0.2,0.4,0.2c0.1,0,0.2,0,0.3-0.1
		c2.6-2.1,4.1-5.2,4.1-8.5C46,20.5,41.9,15.9,36.4,15.1z"/>
	<circle class="st0" cx="29" cy="29.5" r="1"/>
	<path class="st0" d="M24.4,29.1H13.5c-0.3,0-0.5,0.2-0.5,0.5s0.2,0.5,0.5,0.5h10.9c0.3,0,0.5-0.2,0.5-0.5S24.7,29.1,24.4,29.1z"/>
	<path class="st0" d="M29.5,25h-16C11,25,9,27,9,29.5s2,4.5,4.5,4.5h16c2.5,0,4.5-2,4.5-4.5S32,25,29.5,25z M29.5,33h-16
		c-1.9,0-3.5-1.6-3.5-3.5s1.6-3.5,3.5-3.5h16c1.9,0,3.5,1.6,3.5,3.5S31.4,33,29.5,33z"/>
</g>
</svg>
