<?xml version="1.0" encoding="utf-8"?>
<!-- Generator: Adobe Illustrator 21.0.0, SVG Export Plug-In . SVG Version: 6.00 Build 0)  -->
<svg version="1.1" id="图层_1" xmlns="http://www.w3.org/2000/svg" xmlns:xlink="http://www.w3.org/1999/xlink" x="0px" y="0px"
	 viewBox="0 0 48 48" style="enable-background:new 0 0 48 48;" xml:space="preserve">
<style type="text/css">
	.st0{fill:#060001;}
	.st1{fill:#040000;}
	.st2{fill:none;stroke:#000000;stroke-miterlimit:10;}
	.st3{fill:#221815;}
	.st4{fill:#080102;}
	.st5{fill:none;stroke:#000000;stroke-width:2;stroke-linecap:round;stroke-linejoin:round;stroke-miterlimit:10;}
	.st6{fill:#070001;}
</style>
<g>
	<path class="st1" d="M39.5,18h-14c-0.3,0-0.5,0.2-0.5,0.5s0.2,0.5,0.5,0.5h14c0.3,0,0.5-0.2,0.5-0.5S39.8,18,39.5,18z"/>
	<path class="st1" d="M39.5,23h-14c-0.3,0-0.5,0.2-0.5,0.5s0.2,0.5,0.5,0.5h14c0.3,0,0.5-0.2,0.5-0.5S39.8,23,39.5,23z"/>
	<path class="st1" d="M39.5,28h-14c-0.3,0-0.5,0.2-0.5,0.5s0.2,0.5,0.5,0.5h14c0.3,0,0.5-0.2,0.5-0.5S39.8,28,39.5,28z"/>
	<path class="st1" d="M19.2,27.7c-0.4-0.1-1-0.3-1.2-0.4v-0.5c1.1-0.9,1.7-2.2,1.7-3.6v-3.4c0-2.6-2.1-4.7-4.7-4.7
		c-2.6,0-4.7,2.1-4.7,4.7v3.4c0,1.4,0.6,2.7,1.7,3.6v0.5c-0.2,0.1-0.8,0.3-1.2,0.4C9.3,28.1,7,28.8,7,30.8v1.7C7,32.8,7.2,33,7.5,33
		h15c0.3,0,0.5-0.2,0.5-0.5v-1.7C23,28.8,20.7,28.1,19.2,27.7z M22,32H8v-1.2c0-1.2,1.8-1.8,3.1-2.2c1.1-0.3,1.9-0.6,1.9-1.2v-0.9
		c0-0.2-0.1-0.3-0.2-0.4c-0.9-0.7-1.5-1.8-1.5-3v-3.4c0-2.1,1.7-3.8,3.7-3.8c2,0,3.7,1.7,3.7,3.8v3.4c0,1.2-0.5,2.3-1.5,3
		c-0.1,0.1-0.2,0.2-0.2,0.4v0.9c0,0.7,0.8,0.9,1.9,1.2c1.3,0.4,3.1,0.9,3.1,2.2V32z"/>
	<path class="st1" d="M43,8H5c-1.7,0-3,1.3-3,3v26c0,1.6,1.4,3,3,3h38c1.7,0,3-1.3,3-3V11C46,9.3,44.6,8,43,8z M44,37
		c0,0.5-0.5,1-1,1H5c-0.6,0-1-0.4-1-1V11c0-0.5,0.5-1,1-1h38c0.6,0,1,0.4,1,1V37z"/>
</g>
</svg>
