<?xml version="1.0" encoding="utf-8"?>
<!-- Generator: Adobe Illustrator 21.0.0, SVG Export Plug-In . SVG Version: 6.00 Build 0)  -->
<svg version="1.1" id="图层_1" xmlns="http://www.w3.org/2000/svg" xmlns:xlink="http://www.w3.org/1999/xlink" x="0px" y="0px"
	 viewBox="0 0 48 48" style="enable-background:new 0 0 48 48;" xml:space="preserve">
<path d="M43,29c-0.6,0-1,0.4-1,1v1.5c0,1.6-1.2,3.7-2.6,4.5l-12.8,7.4c-1.4,0.8-3.8,0.8-5.2,0L8.6,35.9C7.2,35.1,6,33.1,6,31.5V28
	c0-0.1,0-0.1,0-0.2c1.2-0.4,2-1.5,2-2.8c0-1.7-1.3-3-3-3s-3,1.3-3,3c0,1.3,0.9,2.4,2,2.8c0,0.1,0,0.1,0,0.2v3.5c0,2.4,1.5,5,3.6,6.2
	l12.8,7.4c1,0.6,2.3,0.9,3.6,0.9c1.3,0,2.6-0.3,3.6-0.9l12.8-7.4c2-1.2,3.6-3.9,3.6-6.2V30C44,29.4,43.6,29,43,29z M3,25
	c0-1.1,0.9-2,2-2s2,0.9,2,2c0,1.1-0.9,2-2,2S3,26.1,3,25z M44,20.2c0-0.1,0-0.1,0-0.2v-3.5c0-2.4-1.5-5-3.6-6.2L27.6,2.9
	c-2.1-1.2-5.1-1.2-7.2,0L7.6,10.3c-2,1.2-3.6,3.9-3.6,6.2V18c0,0.6,0.4,1,1,1s1-0.4,1-1v-1.5c0-1.6,1.2-3.7,2.6-4.5l12.8-7.4
	c1.4-0.8,3.8-0.8,5.2,0l12.8,7.4c1.4,0.8,2.6,2.8,2.6,4.5V20c0,0.1,0,0.1,0,0.2c-1.2,0.4-2,1.5-2,2.8c0,1.7,1.3,3,3,3s3-1.3,3-3
	C46,21.7,45.1,20.6,44,20.2z M43,25c-1.1,0-2-0.9-2-2c0-1.1,0.9-2,2-2s2,0.9,2,2C45,24.1,44.1,25,43,25z M31.5,15h-5
	c-0.3,0-0.5,0.2-0.5,0.5V20h-9.5c-0.3,0-0.5,0.2-0.5,0.5V25h-4.5c-0.3,0-0.5,0.2-0.5,0.5v5c0,0.3,0.2,0.5,0.5,0.5h25
	c0.3,0,0.5-0.2,0.5-0.5v-5c0-0.3-0.2-0.5-0.5-0.5H32v-9.5C32,15.2,31.8,15,31.5,15z M16,30h-4v-4h4V30z M21,30h-4v-4h4V30z M21,25
	h-4v-4h4V25z M26,30h-4v-4h4V30z M26,25h-4v-4h4V25z M31,30h-4v-4h4V30z M31,25h-4v-4h4V25z M31,20h-4v-4h4V20z M36,26v4h-4v-4H36z"
	/>
</svg>
