<?xml version="1.0" encoding="utf-8"?>
<!-- Generator: Adobe Illustrator 21.0.0, SVG Export Plug-In . SVG Version: 6.00 Build 0)  -->
<svg version="1.1" id="图层_1" xmlns="http://www.w3.org/2000/svg" xmlns:xlink="http://www.w3.org/1999/xlink" x="0px" y="0px"
	 viewBox="0 0 48 48" style="enable-background:new 0 0 48 48;" xml:space="preserve">
<style type="text/css">
	.st0{fill:#060001;}
	.st1{fill:#040000;}
	.st2{fill:none;stroke:#000000;stroke-miterlimit:10;}
	.st3{fill:#221815;}
	.st4{fill:#080102;}
	.st5{fill:none;stroke:#000000;stroke-width:2;stroke-linecap:round;stroke-linejoin:round;stroke-miterlimit:10;}
	.st6{fill:#070001;}
</style>
<path d="M29.1,12.2c-0.1-0.2-0.3-0.3-0.5-0.3l-3.2-0.1l0,0l-1.9-3.1c-0.1-0.2-0.3-0.3-0.5-0.3L14.6,8c-0.2,0-0.5,0.1-0.6,0.3
	l-3.9,7.6c-0.1,0.2-0.1,0.4,0,0.6l8.8,15.6c0.1,0.2,0.3,0.3,0.6,0.3c0.1,0,0.2,0,0.3-0.1l2.2-1.3l2.6,4.6c0.1,0.2,0.3,0.3,0.6,0.3
	c0.1,0,0.2,0,0.3-0.1l12.3-7.3c0.1-0.1,0.3-0.2,0.3-0.4c0-0.2,0-0.3-0.1-0.5L29.1,12.2z M19.6,30.9l-8.3-14.7L15,9.3l7.6,0.2
	l1.3,2.1l-3.6-0.1c-0.2,0-0.5,0.1-0.6,0.3l-3.9,7.6c-0.1,0.2-0.1,0.4,0,0.6l5.5,9.8L19.6,30.9z M25.3,34.4L17,19.8l3.6-6.9l7.6,0.2
	l8.3,14.7L25.3,34.4z M17.6,12.1c0-0.7-0.5-1.2-1.2-1.2s-1.2,0.6-1.2,1.2s0.5,1.2,1.2,1.2S17.6,12.8,17.6,12.1z M42.1,2H5.9
	C3.7,2,2,3.7,2,5.9v26.2c0,1.4,0.8,2.7,2,3.4l18.1,10c0.6,0.3,1.2,0.5,1.9,0.5s1.3-0.2,1.9-0.5l18.1-10c1.2-0.7,2-2,2-3.4V5.9
	C46,3.7,44.3,2,42.1,2z M44,32.1c0,0.7-0.4,1.3-1,1.7l-18.1,10c-0.6,0.3-1.2,0.3-1.8,0L5,33.8c-0.6-0.3-1-1-1-1.7V5.9
	C4,4.8,4.8,4,5.9,4h36.3c1,0,1.9,0.8,1.9,1.9V32.1z M22.5,14.7c-0.9,0-1.6,0.7-1.6,1.7c0,0.9,0.7,1.7,1.6,1.7s1.6-0.7,1.6-1.7
	C24.2,15.4,23.4,14.7,22.5,14.7z"/>
</svg>
