<?xml version="1.0" encoding="utf-8"?>
<!-- Generator: Adobe Illustrator 21.0.0, SVG Export Plug-In . SVG Version: 6.00 Build 0)  -->
<svg version="1.1" id="图层_1" xmlns="http://www.w3.org/2000/svg" xmlns:xlink="http://www.w3.org/1999/xlink" x="0px" y="0px"
	 viewBox="0 0 48 48" style="enable-background:new 0 0 48 48;" xml:space="preserve">
<style type="text/css">
	.st0{fill:#060001;}
	.st1{fill:#040000;}
	.st2{fill:none;stroke:#000000;stroke-miterlimit:10;}
	.st3{fill:#221815;}
	.st4{fill:#080102;}
	.st5{fill:none;stroke:#000000;stroke-width:2;stroke-linecap:round;stroke-linejoin:round;stroke-miterlimit:10;}
	.st6{fill:#070001;}
</style>
<g>
	<ellipse class="st0" cx="39.5" cy="6.6" rx="1.1" ry="1.1"/>
	<ellipse class="st0" cx="10.8" cy="12.9" rx="1.7" ry="1.7"/>
	<ellipse class="st0" cx="27.7" cy="12.9" rx="1.7" ry="1.7"/>
	<path class="st0" d="M22.7,24.9c-0.5-1.3-1.8-2.3-3.5-2.3c-1.6,0-3,1-3.5,2.3c-1.8,0.2-3.3,1.6-3.3,3.4c0,1.9,1.7,3.4,3.7,3.4h6.1
		c2,0,3.7-1.5,3.7-3.4C26,26.5,24.5,25.1,22.7,24.9z M22.3,30.6h-6.1c-1.4,0-2.6-1-2.6-2.3c0-1.2,1-2.1,2.3-2.3
		c0.4,0,0.8-0.3,0.9-0.7c0.3-0.9,1.3-1.6,2.4-1.6c1.2,0,2.1,0.6,2.4,1.6c0.2,0.4,0.5,0.7,0.9,0.7c1.3,0.1,2.3,1.1,2.3,2.3
		C24.8,29.5,23.7,30.6,22.3,30.6z"/>
	<path class="st0" d="M28.7,6h-19C6.6,6,4,8.5,4,11.5v29.1c0,3,2.6,5.5,5.7,5.5h19c3.1,0,5.7-2.5,5.7-5.5V11.5
		C34.4,8.5,31.9,6,28.7,6z M32.2,40.5c0,1.7-1.5,3.2-3.5,3.2h-19c-1.9,0-3.5-1.4-3.5-3.2V11.5c0-1.7,1.5-3.2,3.5-3.2h19
		c1.9,0,3.5,1.4,3.5,3.2V40.5z"/>
	<path class="st0" d="M39.1,2H21.4c-1,0-2.7,0.4-3.3,1.4c-0.1,0.3,0,0.6,0.2,0.8c0.3,0.1,0.6,0,0.8-0.2c0.2-0.4,1.3-0.8,2.3-0.8
		h17.6c2.6,0,3.8,1.3,3.8,4.1v30c0,2.6-1,3.6-3.8,3.6h-2.2c-0.3,0-0.6,0.3-0.6,0.6c0,0.3,0.3,0.6,0.6,0.6h2.2c3.5,0,4.9-1.4,4.9-4.7
		v-30C44,3.8,42.3,2,39.1,2z"/>
	<path class="st0" d="M36.7,24.9c-0.3,0-0.6,0.3-0.6,0.6c0,0.3,0.3,0.6,0.6,0.6c1.6,0,2.8-1.5,2.8-3.4c0-1.7-1.2-3.2-2.7-3.4
		c-0.3,0-0.6,0.2-0.6,0.5s0.2,0.6,0.5,0.6c1,0.1,1.8,1.2,1.8,2.3C38.4,23.9,37.6,24.9,36.7,24.9z"/>
</g>
</svg>
