<?xml version="1.0" encoding="utf-8"?>
<!-- Generator: Adobe Illustrator 21.0.0, SVG Export Plug-In . SVG Version: 6.00 Build 0)  -->
<svg version="1.1" id="图层_1" xmlns="http://www.w3.org/2000/svg" xmlns:xlink="http://www.w3.org/1999/xlink" x="0px" y="0px"
	 viewBox="0 0 48 48" style="enable-background:new 0 0 48 48;" xml:space="preserve">
<style type="text/css">
	.st0{fill:#333333;}
</style>
<title>Vpc Endpoint</title>
<desc>Created with Sketch.</desc>
<path class="st0" d="M36.5,21c-1.8,0-3.2,1.3-3.5,3h-3.5c-0.2,0-0.3,0.1-0.4,0.2c0,0-0.1,0-0.1,0.1l-5,5V18.5c0-0.3-0.2-0.5-0.5-0.5
	c-0.2,0-0.3,0.1-0.4,0.2c0,0-0.1,0-0.1,0.1L17.3,24c0,0,0,0,0,0h-4.4c-0.2-0.9-1-1.5-1.9-1.5c-1.1,0-2,0.9-2,2s0.9,2,2,2
	c0.9,0,1.7-0.6,1.9-1.5h4.6c0.2,0,0.3-0.1,0.4-0.2c0,0,0.1,0,0.1-0.1l5-5v10.8c0,0.3,0.2,0.5,0.5,0.5c0.2,0,0.3-0.1,0.4-0.2
	c0,0,0.1,0,0.1-0.1l5.7-5.7c0,0,0,0,0,0H33c0.2,1.7,1.6,3,3.5,3c2,0,3.5-1.5,3.5-3.5S38.5,21,36.5,21z M36.5,26.2
	c-1,0-1.8-0.8-1.8-1.8s0.8-1.8,1.8-1.8s1.8,0.8,1.8,1.8S37.5,26.2,36.5,26.2z M24,2C11.8,2,2,11.8,2,24s9.8,22,22,22s22-9.8,22-22
	S36.2,2,24,2z M24,44C13,44,4,35,4,24S13,4,24,4s20,9,20,20S35,44,24,44z"/>
</svg>
