<?xml version="1.0" encoding="UTF-8"?>
<svg version="1.1" xmlns="http://www.w3.org/2000/svg" width="1170" height="1170">
<path d="M0 0 C386.1 0 772.2 0 1170 0 C1170 386.1 1170 772.2 1170 1170 C783.9 1170 397.8 1170 0 1170 C0 783.9 0 397.8 0 0 Z " fill="#A4201A" transform="translate(0,0)"/>
<path d="M0 0 C1.69189453 0.02900391 1.69189453 0.02900391 3.41796875 0.05859375 C21.47001523 0.86253104 38.88185261 9.27965817 51.25 22.25 C63.05049886 36.02508433 63 52.6529545 63 70 C46.5 70 30 70 13 70 C12.34 65.05 11.68 60.1 11 55 C8.89962402 49.06100586 7.04137237 44.96107829 2 41 C-5.444444 37.93527999 -15.14536093 37.45894972 -22.8671875 39.91015625 C-28.62114393 42.9227496 -32.50249234 46.8623649 -35.3125 52.75 C-36.81557892 59.85546399 -36.76913743 66.32051824 -33.4453125 72.8984375 C-28.17336401 80.56413557 -20.41136301 83.086035 -12 86 C-9.9966844 86.71110291 -7.99494212 87.42653982 -5.99311829 88.14183044 C-3.06165565 89.1878273 -0.12743382 90.22596271 2.80688477 91.26391602 C4.31278281 91.79706814 5.81831633 92.33125102 7.32348633 92.86645508 C9.53905258 93.65420662 11.75551708 94.43934315 13.97265625 95.22265625 C15.03592133 95.59860428 15.03592133 95.59860428 16.1206665 95.98214722 C19.91419612 97.31091541 23.70886334 98.52401894 27.58203125 99.60546875 C32.01160004 100.89373852 35.73002099 102.80223556 39.625 105.25 C40.26816162 105.64767578 40.91132324 106.04535156 41.57397461 106.45507812 C53.48424347 113.96434821 61.39596414 123.51806233 66 137 C67.6266992 146.57832819 67.16103207 156.31913112 67 166 C66.97486328 167.89878906 66.97486328 167.89878906 66.94921875 169.8359375 C66.32053504 184.67287306 58.43751714 198.05340104 47.9375 208.3125 C26.56958702 225.92709261 -2.50491169 228.5452005 -29 227 C-35.81783847 226.27248337 -42.40136397 224.83413537 -49 223 C-49.99241699 222.73509766 -49.99241699 222.73509766 -51.00488281 222.46484375 C-64.51418301 218.73337464 -75.39943187 210.80739421 -83 199 C-84.9120079 195.4162365 -86.50699143 191.77509771 -88 188 C-88.30808594 187.27683594 -88.61617187 186.55367187 -88.93359375 185.80859375 C-93.60031785 174.39856496 -92 162.12383014 -92 150 C-75.5 150 -59 150 -42 150 C-41.505 157.92 -41.505 157.92 -41 166 C-38.66590698 174.16932557 -35.30047804 180.30683554 -28 185 C-20.23887928 188.951116 -11.48560798 189.41681266 -3.05078125 187.23828125 C4.840831 184.25385988 9.24586712 180.50826576 13 173 C14.943612 166.7701443 15.11868457 159.57682694 12.3125 153.625 C4.31039587 140.02972966 -14.21684439 136.31699035 -28.29370117 131.49194336 C-73.11454799 116.06509185 -73.11454799 116.06509185 -84.5 93.625 C-85.36302321 91.76347901 -86.19893011 89.88900939 -87 88 C-87.3609375 87.20335937 -87.721875 86.40671875 -88.09375 85.5859375 C-92.85365579 72.00379252 -91.96366703 52.04552163 -86 39 C-85.525625 37.91847656 -85.05125 36.83695313 -84.5625 35.72265625 C-77.86496643 21.9250931 -67.45058952 13.56961664 -54 7 C-52.7315625 6.36964844 -52.7315625 6.36964844 -51.4375 5.7265625 C-35.74986696 -0.96079389 -16.73223167 -0.55959402 0 0 Z " fill="#FEFCFC" transform="translate(931,779)"/>
<path d="M0 0 C18.15 0 36.3 0 55 0 C55 23.76 55 47.52 55 72 C65.56 72 76.12 72 87 72 C87 84.54 87 97.08 87 110 C76.44 110 65.88 110 55 110 C55.04032875 126.42075389 55.09713998 142.84117142 55.18390274 159.26173401 C55.22366463 166.88656962 55.25607152 174.51130245 55.27099609 182.13623047 C55.28402748 188.78430721 55.31102979 195.43215753 55.35461307 202.08010674 C55.37719482 205.59823028 55.39291268 209.1160749 55.39188385 212.63427734 C55.39099595 216.56761524 55.42130766 220.50038561 55.45410156 224.43359375 C55.4490712 225.59237534 55.44404083 226.75115692 55.43885803 227.9450531 C55.53625332 235.50265224 56.42902785 241.32273805 61.91113281 246.96801758 C64.52476753 248.25925577 66.51042554 248.43084515 69.421875 248.51171875 C70.80777832 248.56138794 70.80777832 248.56138794 72.22167969 248.61206055 C73.38602539 248.63695557 74.55037109 248.66185059 75.75 248.6875 C79.4625 248.790625 83.175 248.89375 87 249 C87 261.87 87 274.74 87 288 C24.07911421 291.49560477 24.07911421 291.49560477 11.125 280.75 C-2.43773127 266.3265122 -0.43007554 244.53385264 -0.34057617 226.02905273 C-0.33972833 223.55367035 -0.34020811 221.07828722 -0.34190369 218.60290527 C-0.34258256 213.30801615 -0.33418175 208.01326538 -0.31719017 202.7184124 C-0.29264054 195.0632967 -0.28497874 187.40823439 -0.2812262 179.75308359 C-0.27468651 167.32827834 -0.25479334 154.90353271 -0.22631836 142.47875977 C-0.1987131 130.42082006 -0.17751133 118.36289664 -0.16479492 106.30493164 C-0.16400675 105.55966205 -0.16321858 104.81439246 -0.16240653 104.04653894 C-0.15849096 100.30713794 -0.15469994 96.56773683 -0.15097082 92.82833564 C-0.11995234 61.88550493 -0.06469152 30.94278388 0 0 Z " fill="#FEFDFD" transform="translate(731,713)"/>
<path d="M0 0 C18.48 0 36.96 0 56 0 C56 70.29 56 140.58 56 213 C37.52 213 19.04 213 0 213 C0 142.71 0 72.42 0 0 Z " fill="#FDFBFB" transform="translate(641,787)"/>
<path d="M0 0 C18.15 0 36.3 0 55 0 C55 70.29 55 140.58 55 213 C36.85 213 18.7 213 0 213 C0 142.71 0 72.42 0 0 Z " fill="#FEFDFD" transform="translate(552,787)"/>
<path d="M0 0 C0.81210937 -0.01160156 1.62421875 -0.02320313 2.4609375 -0.03515625 C11.05292709 0.00615139 17.55706738 2.40006301 23.859375 8.29296875 C28.38563232 13.63034741 30.35960319 20.257664 30.015625 27.2109375 C28.865857 33.5806522 24.94645081 39.95253691 19.734375 43.75390625 C11.35457823 49.20077415 2.41828241 49.43568638 -7.375 48.375 C-15.94629811 45.98873348 -20.92812546 40.61624921 -25.25 33.125 C-27.15985075 26.75883084 -27.59594377 20.30376526 -24.8125 14.125 C-19.02129578 4.15921748 -11.35843782 -0.16073261 0 0 Z " fill="#FCF9F9" transform="translate(667.375,707.625)"/>
<path d="M0 0 C1.47049805 -0.01740234 1.47049805 -0.01740234 2.97070312 -0.03515625 C8.11640935 -0.01419614 11.78001083 0.02395412 15.9375 3.375 C16.64132812 3.87257813 17.34515625 4.37015625 18.0703125 4.8828125 C24.13034437 9.80213249 26.290353 14.17324881 27.24609375 21.85546875 C27.63313717 29.42040838 25.43734793 35.23233403 20.75 41.125 C19.3578125 42.23875 19.3578125 42.23875 17.9375 43.375 C17.380625 43.84035156 16.82375 44.30570313 16.25 44.78515625 C8.88000509 49.9527894 -0.45063046 49.56810064 -9.0625 48.375 C-16.02775444 46.43021186 -21.20810148 42.48097786 -25.0625 36.375 C-28.57684084 29.96099391 -29.31775571 23.01496307 -27.40625 15.94921875 C-24.75400075 9.14711399 -20.51535829 5.60951538 -14.52734375 1.734375 C-9.64830116 -0.17983788 -5.19259938 -0.06169425 0 0 Z " fill="#FDFAFA" transform="translate(580.0625,707.625)"/>
<path d="M0 0 C0.66 0.33 1.32 0.66 2 1 C0.88121617 2.17262904 -0.24523051 3.33795138 -1.375 4.5 C-2.00148438 5.1496875 -2.62796875 5.799375 -3.2734375 6.46875 C-5 8 -5 8 -7 8 C-5.50902342 4.2047869 -3.24299151 2.38957269 0 0 Z " fill="#ECD2D0" transform="translate(563,711)"/>
</svg>
