<svg xmlns="http://www.w3.org/2000/svg" width="800.48" height="700.725" viewBox="0 0 800.48 700.725" xmlns:xlink="http://www.w3.org/1999/xlink" role="img" artist="Katerina Limpitsouni" source="https://undraw.co/"><g transform="translate(-586.673 -212.317)"><circle cx="3.905" cy="3.905" r="3.905" transform="translate(1293.346 383.066)" fill="#fff"/><circle cx="3.905" cy="3.905" r="3.905" transform="translate(1308.169 383.066)" fill="#fff"/><circle cx="3.905" cy="3.905" r="3.905" transform="translate(1322.994 383.066)" fill="#fff"/><g transform="translate(874.987 503.652)"><path d="M744.194,60.583l-3.277,34L723,95.144V65.483Z" transform="translate(-511.765 5.296)" fill="#ed9da0"/><rect width="9.609" height="155.433" transform="translate(287.53 253.895)" fill="#f2f2f2"/><rect width="9.609" height="155.433" transform="translate(249.096 253.895)" fill="#f2f2f2"/><rect width="9.609" height="155.433" transform="translate(189.183 253.895)" fill="#f2f2f2"/><rect width="9.609" height="155.433" transform="translate(171.096 253.895)" fill="#f2f2f2"/><path d="M828.219,241.9l13.075-67.908a21.933,21.933,0,0,0-18.9-25.921l-69.916-8.475s-9.609,78.565-9.609,74.608-95.238,9.891-59.63,29.674S814.937,258,828.219,241.9Z" transform="translate(-525.994 9.738)" fill="#f2f2f2"/><path d="M674.493,343.56l-11.84,11.84L646.3,363.858l1.691,14.659L679,375.134l3.947-7.894-1.128-6.766,2.255-10.713Z" transform="translate(-528.015 23.967)" fill="#ed9da0"/><path d="M652.26,371.778l-.968-12.439-33.425,15.822s-2.588,7.33,5.472,8.457,61.623,1.128,61.623-1.691,1.465-17.252,1.465-17.252l-32.475,9.359-1.691-2.255Z" transform="translate(-530.026 25.068)" fill="#2f2e41"/><path d="M647.731,269.559l-6.967,15.226-12.375,13.629,6.7,13.149,27.883-13.986.946-8.774-3.417-5.948-1.622-10.827Z" transform="translate(-529.264 18.805)" fill="#ed9da0"/><path d="M636.813,304.36l-5.246-11.32-25.808,26.486s.13,7.772,8.078,6.018S671.984,305.109,671,302.467s-4.644-16.68-4.644-16.68l-27.172,20.1-2.372-1.524Z" transform="translate(-530.843 19.937)" fill="#2f2e41"/><path d="M799.046,194.277s12.435,32.217,3.391,45.217S751,259.842,751,259.842l-17.522,16.391-46.347,89.3L660,359.319l38.434-91.564s22.608-36.739,31.087-41.826,24.265-24.186,24.265-24.186l45.256-7.466Z" transform="translate(-527.059 13.553)" fill="#d6d6e3"/><path d="M752.563,210.06l-20.042-7.312s-48.661-41.393-69.031-3.267-26.442,78.051-26.442,78.051l26.872,13.033,24.575-67.829L767,257.794l-14.44-47.734Z" transform="translate(-528.66 12.79)" fill="#d6d6e3"/><path d="M639.721,230.414c-5.372,6.386-6.432,14.335-2.367,17.754s11.714,1.012,17.087-5.378a20.887,20.887,0,0,0,4.508-8.774l22.422-27.347-10.837-8.839-22.938,26.638a20.888,20.888,0,0,0-7.875,5.946Z" transform="translate(-528.811 13.801)" fill="#ed9da0"/><path d="M726.323,82h35.172l25.871,17.522L785.1,168.479s-4.727,17.316,11.3,33.348c9.609,9.609,6.217,15.261,6.217,15.261l-57.086,4.522-34.2-9.891,12.435-31.087-2.261-9.609s-23.174-16.391-19.217-33.348,9.043-52,9.043-52L726.323,82Z" transform="translate(-524.14 5.721)" fill="#e20074"/><path d="M692.2,172.858l19.28-85.281s12.636-5.456,19.1,5.407,2.516,54.5,2.516,54.5L707.1,198.406l-44.719,39.533-12.784-12.1,42.6-52.98Z" transform="translate(-527.785 6.014)" fill="#e20074"/><g transform="translate(186.888 0)"><circle cx="25.273" cy="25.273" r="25.273" transform="translate(2.108 27.969)" fill="#ed9da0"/><path d="M739.827,19.264c-.731.427-1.711-.219-1.945-1.033a4.233,4.233,0,0,1,.31-2.48l1.364-4.039c.967-2.864,1.994-5.829,4.088-8.009C746.8.413,751.828-.424,756.35.183c5.808.779,11.538,3.924,14.239,9.124s1.551,12.457-3.329,15.7c6.955,7.971,9.379,16.855,9,27.426s-11.9,20.3-19.416,27.748c-1.678-1.017-3.2-5.783-2.28-7.515s-.4-3.737.743-5.332,2.1.945.943-.641c-.729-1,2.116-3.3,1.033-3.9C752.038,59.9,750.3,53.364,747,48.362a24.587,24.587,0,0,0-17.956-10.8,16.979,16.979,0,0,0-11.392,2.6c-3.247,2.3-5.349,6.409-4.6,10.316a9.162,9.162,0,0,1,1.906-14.34,14.967,14.967,0,0,1,3.177-14.108c3.386-3.733,17.123-3.1,22.066-2.115" transform="translate(-710.429 0)" fill="#2f2e41"/><path d="M738.627,35.251c6.548.707,11.275,6.379,15.267,11.616,2.3,3.019,4.711,6.353,4.653,10.148-.058,3.837-2.624,7.129-3.85,10.765a16.224,16.224,0,0,0,4.72,17.089A9.426,9.426,0,0,1,748.794,77.5c-.947-5.5,3.226-10.818,2.731-16.382-.435-4.9-4.3-8.674-7.582-12.339s-6.368-8.529-4.857-13.212" transform="translate(-708.462 2.459)" fill="#2f2e41"/></g><g transform="matrix(0.946, -0.326, 0.326, 0.946, 0, 204.431)"><path d="M4.673,1.417.024,29.022a1.7,1.7,0,0,0,.1.914L36.6,121.071a1.7,1.7,0,0,0,3.275-.56l1.545-36.623a1.7,1.7,0,0,0-.124-.711L7.923,1.06a1.7,1.7,0,0,0-3.25.358Z" fill="#3f3d56"/><path d="M4.418,0,0,23.716l32.368,83.164,4.2-26.752Z" transform="translate(2.837 3.536)" fill="#e20074"/><path d="M104.708,46.351c-.751,3.109-99.325,6.474-100.348,5.534a22.225,22.225,0,0,1-2.371-3.891C.957,46.036,0,44.074,0,44.074L1.62,11.007,98.723,0s4.3,27.595,5.645,40.272A32.272,32.272,0,0,1,104.708,46.351Z" transform="translate(37.805 74.297)" fill="#3f3d56"/><path d="M.009,3.1,0,31.584l45.555-3.239L43.539,0Z" transform="translate(52.99 85.707)" opacity="0.1" style="isolation:isolate"/><path d="M.275,1.871,0,1.837,2.151,13.948l25.309-1.8L26.6,0Z" transform="translate(105.386 91.611)" opacity="0.1" style="isolation:isolate"/><path d="M108.953,6.079C108.157,9.188,3.6,12.553,2.515,11.612A22.03,22.03,0,0,1,0,7.722L108.592,0A30.456,30.456,0,0,1,108.953,6.079Z" transform="translate(39.915 114.569)" opacity="0.1" style="isolation:isolate"/></g><path d="M692.637,237.576c-5.98,5.822-7.823,13.626-4.118,17.431s11.556,2.17,17.537-3.655a20.887,20.887,0,0,0,5.356-8.283l25.026-24.986-9.906-9.871-25.469,24.229a20.888,20.888,0,0,0-8.426,5.135Z" transform="translate(-525.203 14.525)" fill="#ed9da0"/><path d="M750.732,182.355,776.167,98.7s13-4.522,18.652,6.783-1.458,54.543-1.458,54.543L763.732,208.92l-47.478,36.174-11.87-13Z" transform="translate(-523.963 6.823)" fill="#e20074"/></g><g transform="translate(1088.957 212.317)"><path d="M854.365,385.452a4.512,4.512,0,1,0,0,9.023H967.476a4.512,4.512,0,1,0,.148-9.023H854.365Z" transform="translate(-821.824 -282.122)" fill="#e20074"/><path d="M1036.635,383.714a.888.888,0,0,0,0,1.255l3.811,3.811h-9.4a.888.888,0,0,0,0,1.775h9.4l-3.811,3.811a.888.888,0,1,0,1.255,1.255l5.326-5.326a.888.888,0,0,0,0-1.255l-5.326-5.326a.888.888,0,0,0-1.255,0Z" transform="translate(-865.332 -281.64)" fill="#090814"/><path d="M819.751,383.714a.888.888,0,0,1,0,1.255l-3.811,3.811h9.4a.888.888,0,0,1,0,1.775h-9.4l3.811,3.811a.888.888,0,1,1-1.255,1.255L813.17,390.3a.888.888,0,0,1,0-1.255l5.326-5.326a.887.887,0,0,1,1.255,0Z" transform="translate(-812.91 -281.64)" fill="#090814"/><g transform="translate(32.259 0)"><circle cx="4.848" cy="4.848" r="4.848" fill="#d6d6e3"/><circle cx="4.848" cy="4.848" r="4.848" transform="translate(20.2)" fill="#d6d6e3"/><circle cx="4.848" cy="4.848" r="4.848" transform="translate(40.4)" fill="#d6d6e3"/><circle cx="4.848" cy="4.848" r="4.848" transform="translate(60.601)" fill="#d6d6e3"/><circle cx="4.848" cy="4.848" r="4.848" transform="translate(80.801)" fill="#d6d6e3"/><circle cx="4.848" cy="4.848" r="4.848" transform="translate(101.001)" fill="#d6d6e3"/><circle cx="4.848" cy="4.848" r="4.848" transform="translate(121.201)" fill="#d6d6e3"/><circle cx="4.848" cy="4.848" r="4.848" transform="translate(0 15.352)" fill="#d6d6e3"/><circle cx="4.848" cy="4.848" r="4.848" transform="translate(20.2 15.352)" fill="#d6d6e3"/><circle cx="4.848" cy="4.848" r="4.848" transform="translate(40.4 15.352)" fill="#d6d6e3"/><circle cx="4.848" cy="4.848" r="4.848" transform="translate(60.601 15.352)" fill="#d6d6e3"/><circle cx="4.848" cy="4.848" r="4.848" transform="translate(80.801 15.352)" fill="#d6d6e3"/><circle cx="4.848" cy="4.848" r="4.848" transform="translate(101.001 15.352)" fill="#d6d6e3"/><circle cx="4.848" cy="4.848" r="4.848" transform="translate(121.201 15.352)" fill="#d6d6e3"/><circle cx="4.848" cy="4.848" r="4.848" transform="translate(0 30.704)" fill="#d6d6e3"/><circle cx="4.848" cy="4.848" r="4.848" transform="translate(20.2 30.704)" fill="#d6d6e3"/><circle cx="4.848" cy="4.848" r="4.848" transform="translate(40.4 30.704)" fill="#d6d6e3"/><circle cx="4.848" cy="4.848" r="4.848" transform="translate(60.601 30.704)" fill="#d6d6e3"/><circle cx="4.848" cy="4.848" r="4.848" transform="translate(80.801 30.704)" fill="#d6d6e3"/><circle cx="4.848" cy="4.848" r="4.848" transform="translate(101.001 30.704)" fill="#d6d6e3"/><circle cx="4.848" cy="4.848" r="4.848" transform="translate(121.201 30.704)" fill="#d6d6e3"/><circle cx="4.848" cy="4.848" r="4.848" transform="translate(0 46.056)" fill="#d6d6e3"/><circle cx="4.848" cy="4.848" r="4.848" transform="translate(20.2 46.056)" fill="#d6d6e3"/><circle cx="4.848" cy="4.848" r="4.848" transform="translate(0 61.408)" fill="#d6d6e3"/><circle cx="4.848" cy="4.848" r="4.848" transform="translate(20.2 61.408)" fill="#d6d6e3"/><circle cx="4.848" cy="4.848" r="4.848" transform="translate(40.4 61.408)" fill="#d6d6e3"/><circle cx="4.848" cy="4.848" r="4.848" transform="translate(40.4 46.056)" fill="#d6d6e3"/><circle cx="4.848" cy="4.848" r="4.848" transform="translate(60.601 46.056)" fill="#d6d6e3"/><circle cx="4.848" cy="4.848" r="4.848" transform="translate(80.801 46.056)" fill="#d6d6e3"/><circle cx="4.848" cy="4.848" r="4.848" transform="translate(101.001 46.056)" fill="#d6d6e3"/><circle cx="4.848" cy="4.848" r="4.848" transform="translate(121.201 46.056)" fill="#d6d6e3"/></g></g><g transform="translate(627.408 390.877)"><circle cx="3.812" cy="3.812" r="3.812" transform="translate(0 95.292)" fill="#e20074"/><circle cx="3.812" cy="3.812" r="3.812" transform="translate(0 79.41)" fill="#e20074"/><circle cx="3.812" cy="3.812" r="3.812" transform="translate(0 63.528)" fill="#e20074"/><circle cx="3.812" cy="3.812" r="3.812" transform="translate(0 47.646)" fill="#e20074"/><circle cx="3.812" cy="3.812" r="3.812" transform="translate(0 31.764)" fill="#e20074"/><circle cx="3.812" cy="3.812" r="3.812" transform="translate(0 15.882)" fill="#e20074"/><circle cx="3.812" cy="3.812" r="3.812" fill="#e20074"/><circle cx="3.812" cy="3.812" r="3.812" transform="translate(14.395 95.292)" fill="#e20074"/><circle cx="3.812" cy="3.812" r="3.812" transform="translate(14.395 79.41)" fill="#e20074"/><circle cx="3.812" cy="3.812" r="3.812" transform="translate(14.395 63.528)" fill="#e20074"/><circle cx="3.812" cy="3.812" r="3.812" transform="translate(14.395 47.646)" fill="#e20074"/><circle cx="3.812" cy="3.812" r="3.812" transform="translate(14.395 31.764)" fill="#e20074"/><circle cx="3.812" cy="3.812" r="3.812" transform="translate(14.395 15.882)" fill="#e20074"/><circle cx="3.812" cy="3.812" r="3.812" transform="translate(14.395)" fill="#e20074"/><circle cx="3.812" cy="3.812" r="3.812" transform="translate(28.791 95.292)" fill="#e20074"/><circle cx="3.812" cy="3.812" r="3.812" transform="translate(28.791 79.41)" fill="#e20074"/><circle cx="3.812" cy="3.812" r="3.812" transform="translate(28.791 63.528)" fill="#e20074"/><circle cx="3.812" cy="3.812" r="3.812" transform="translate(28.791 47.646)" fill="#e20074"/><circle cx="3.812" cy="3.812" r="3.812" transform="translate(28.791 31.764)" fill="#e20074"/><circle cx="3.812" cy="3.812" r="3.812" transform="translate(28.791 15.882)" fill="#e20074"/><circle cx="3.812" cy="3.812" r="3.812" transform="translate(28.791)" fill="#e20074"/><circle cx="3.812" cy="3.812" r="3.812" transform="translate(43.186 95.292)" fill="#e20074"/><circle cx="3.812" cy="3.812" r="3.812" transform="translate(43.186 79.41)" fill="#e20074"/><circle cx="3.812" cy="3.812" r="3.812" transform="translate(57.582 95.292)" fill="#e20074"/><circle cx="3.812" cy="3.812" r="3.812" transform="translate(57.582 79.41)" fill="#e20074"/><circle cx="3.812" cy="3.812" r="3.812" transform="translate(57.582 63.528)" fill="#e20074"/><circle cx="3.812" cy="3.812" r="3.812" transform="translate(43.186 63.528)" fill="#e20074"/><circle cx="3.812" cy="3.812" r="3.812" transform="translate(43.186 47.646)" fill="#e20074"/><circle cx="3.812" cy="3.812" r="3.812" transform="translate(43.186 31.764)" fill="#e20074"/><circle cx="3.812" cy="3.812" r="3.812" transform="translate(43.186 15.882)" fill="#e20074"/><circle cx="3.812" cy="3.812" r="3.812" transform="translate(43.186)" fill="#e20074"/></g><g transform="translate(774.152 269.438)"><path d="M754.845,550.1a19.961,19.961,0,1,1,19.961-19.961A19.961,19.961,0,0,1,754.845,550.1Zm0-38.79a18.829,18.829,0,1,0,18.829,18.829A18.829,18.829,0,0,0,754.845,511.306Z" transform="translate(-470.381 -356.298)" fill="#090814"/><path d="M770.472,536.2h-5.739v-5.74a1.913,1.913,0,1,0-3.826,0v5.74h-5.74a1.913,1.913,0,0,0,0,3.826h5.74v5.74a1.913,1.913,0,1,0,3.826,0v-5.74h5.739a1.913,1.913,0,1,0,0-3.826Z" transform="translate(-478.355 -364.272)" fill="#e20074"/><path d="M459.848,238.262H270.983a3.5,3.5,0,0,0-3.5,3.5v161.5a3.5,3.5,0,0,0,3.5,3.5H459.848a3.5,3.5,0,0,0,3.5-3.5v-161.5A3.5,3.5,0,0,0,459.848,238.262Zm2.1,165a2.1,2.1,0,0,1-2.1,2.1H270.983a2.1,2.1,0,0,1-2.1-2.1v-161.5a2.1,2.1,0,0,1,2.1-2.1H459.848a2.1,2.1,0,0,1,2.1,2.1Z" transform="translate(-267.484 -238.262)" fill="#e6e6e6"/><path d="M328.846,474.338c0,.249-.007.5-.02.74a14.246,14.246,0,0,1-28.454,0c-.013-.242-.02-.491-.02-.74a14.247,14.247,0,1,1,28.493,0Z" transform="translate(-281.752 -334.557)" fill="#e20074"/><path d="M493.784,468.479H381.841a2.375,2.375,0,1,0,0,4.75H493.784a2.375,2.375,0,1,0,0-4.75Z" transform="translate(-316.095 -338.198)" fill="#e20074"/><path d="M430.012,493.66H381.844a2.372,2.372,0,0,0,0,4.743h48.168a2.372,2.372,0,1,0,0-4.743Z" transform="translate(-316.098 -349.13)" fill="#e20074"/><g transform="translate(43.171 20.948)"><rect width="198.976" height="93.069" transform="translate(0 0.107)" fill="#fff"/><path d="M538.112,367.839H349.247A4.844,4.844,0,0,1,344.409,363V280.118a4.843,4.843,0,0,1,4.838-4.838H538.112a4.844,4.844,0,0,1,4.838,4.838V363A4.844,4.844,0,0,1,538.112,367.839ZM349.247,276.977a3.144,3.144,0,0,0-3.14,3.14V363a3.144,3.144,0,0,0,3.14,3.141H538.112a3.144,3.144,0,0,0,3.14-3.141V280.118a3.144,3.144,0,0,0-3.14-3.14Z" transform="translate(-344.048 -275.28)" fill="#090814"/><path d="M419.1,328.7a2.374,2.374,0,1,0,0,4.749h111.94a2.374,2.374,0,1,0,0-4.749Z" transform="translate(-375.441 -298.469)" fill="#e20074"/><path d="M419.1,353.012a2.374,2.374,0,1,0,0,4.749h111.94a2.374,2.374,0,1,0,0-4.749Z" transform="translate(-375.441 -309.023)" fill="#e20074"/><path d="M419.1,377.029a2.374,2.374,0,0,0,0,4.749h48.168a2.374,2.374,0,1,0,0-4.749Z" transform="translate(-375.441 -319.449)" fill="#e20074"/></g><path d="M724.176,478.6,705.207,451.83l6.141,1.28a.849.849,0,0,0,.346-1.663l-9.151-1.9-1.235,9.264a.849.849,0,1,0,1.684.224l.828-6.221,18.971,26.774a.849.849,0,0,0,1.385-.981Z" transform="translate(-455.803 -329.978)" fill="#090814"/></g><g transform="translate(586.673 562.317)"><path d="M461.054,610.978H319.616A2.622,2.622,0,0,1,317,608.358V573.274a2.622,2.622,0,0,1,2.619-2.619H461.054a2.622,2.622,0,0,1,2.619,2.619v35.085A2.622,2.622,0,0,1,461.054,610.978ZM319.616,571.7a1.573,1.573,0,0,0-1.572,1.572v35.085a1.573,1.573,0,0,0,1.572,1.571H461.054a1.573,1.573,0,0,0,1.572-1.571V573.274a1.573,1.573,0,0,0-1.572-1.572Z" transform="translate(-316.997 -570.654)" fill="#3f3d56"/><circle cx="10.669" cy="10.669" r="10.669" transform="translate(13.926 8.146)" fill="#e20074"/><path d="M398.72,590.368a1.778,1.778,0,1,0,0,3.556h83.83a1.778,1.778,0,1,0,0-3.556Z" transform="translate(-349.484 -578.665)" fill="#e20074"/><path d="M398.72,608.341a1.778,1.778,0,1,0,0,3.556h36.072a1.778,1.778,0,1,0,0-3.556Z" transform="translate(-349.484 -585.969)" fill="#e20074"/></g><g transform="translate(1293.345 376.088)"><path d="M873.22,428.016h86.592a3.612,3.612,0,0,1,3.608,3.608v90.182a3.612,3.612,0,0,1-3.608,3.608H873.22a3.612,3.612,0,0,1-3.608-3.608V431.624A3.612,3.612,0,0,1,873.22,428.016Zm86.592,95.955a2.167,2.167,0,0,0,2.165-2.165V431.624a2.167,2.167,0,0,0-2.165-2.165H873.22a2.167,2.167,0,0,0-2.165,2.165v90.182a2.167,2.167,0,0,0,2.165,2.165Z" transform="translate(-869.612 -428.016)" fill="#090814"/><path d="M945.732,523.288a2.449,2.449,0,1,0,0-4.9h-49.69a2.449,2.449,0,1,0,0,4.9Z" transform="translate(-873.983 -444.488)" fill="#e20074"/><path d="M945.732,505.64a2.45,2.45,0,0,0,0-4.9h-49.69a2.45,2.45,0,1,0,0,4.9Z" transform="translate(-873.983 -441.271)" fill="#e20074"/><path d="M923.534,450.758a15.419,15.419,0,1,1-15.419,15.419A15.419,15.419,0,0,1,923.534,450.758Z" transform="translate(-876.63 -432.161)" fill="#e20074"/></g></g></svg>