<?xml version="1.0" encoding="utf-8"?>
<!-- Generator: Adobe Illustrator 21.0.0, SVG Export Plug-In . SVG Version: 6.00 Build 0)  -->
<svg version="1.1" id="图层_1" xmlns="http://www.w3.org/2000/svg" xmlns:xlink="http://www.w3.org/1999/xlink" x="0px" y="0px"
	 viewBox="0 0 48 48" style="enable-background:new 0 0 48 48;" xml:space="preserve">
<style type="text/css">
	.st0{fill:#040000;}
</style>
<g>
	<path class="st0" d="M31.6,33.7L30,35.6V28c0-0.3-0.2-0.5-0.5-0.5S29,27.7,29,28v9c0,0.2,0.1,0.4,0.3,0.5c0.1,0,0.1,0,0.2,0
		c0.1,0,0.3-0.1,0.4-0.2l2.5-3c0.2-0.2,0.1-0.5-0.1-0.7S31.8,33.5,31.6,33.7z"/>
	<path class="st0" d="M18.5,27.5c-0.3,0-0.5,0.2-0.5,0.5v9c0,0.3,0.2,0.5,0.5,0.5S19,37.3,19,37v-9C19,27.7,18.8,27.5,18.5,27.5z"/>
	<path class="st0" d="M32,18h-2v-7c0-0.3-0.2-0.5-0.5-0.5S29,10.7,29,11v7H19v-7c0-0.2-0.1-0.4-0.3-0.5c-0.2-0.1-0.4,0-0.6,0.1
		l-2.5,3c-0.2,0.2-0.1,0.5,0.1,0.7c0.2,0.2,0.5,0.1,0.7-0.1l1.6-1.9V18h-2c-3.9,0-7,2.9-7,6.5s3.1,6.5,7,6.5c0.3,0,0.5-0.2,0.5-0.5
		S16.3,30,16,30c-3.3,0-6-2.5-6-5.5c0-3,2.7-5.5,6-5.5h16c3.3,0,6,2.5,6,5.5c0,3-2.7,5.5-6,5.5c-0.3,0-0.5,0.2-0.5,0.5
		S31.7,31,32,31c3.9,0,7-2.9,7-6.5S35.9,18,32,18z"/>
	<path class="st0" d="M41,3H7C4.8,3,3,4.8,3,7v34c0,2.2,1.8,4,4,4h34c2.2,0,4-1.8,4-4V7C45,4.8,43.2,3,41,3z M43,41c0,1.1-0.9,2-2,2
		H7c-1.1,0-2-0.9-2-2V7c0-1.1,0.9-2,2-2h34c1.1,0,2,0.9,2,2V41z"/>
</g>
</svg>
