<?xml version="1.0" encoding="utf-8"?>
<!-- Generator: Adobe Illustrator 21.0.0, SVG Export Plug-In . SVG Version: 6.00 Build 0)  -->
<svg version="1.1" id="图层_1" xmlns="http://www.w3.org/2000/svg" xmlns:xlink="http://www.w3.org/1999/xlink" x="0px" y="0px"
	 viewBox="0 0 48 48" style="enable-background:new 0 0 48 48;" xml:space="preserve">
<style type="text/css">
	.st0{fill:#040000;}
</style>
<path class="st0" d="M23.9,21.9c-0.1-0.2-0.4-0.2-0.5-0.1c-0.3,0-0.4,0.2-0.4,0.4v20.3c0,0.3,0.2,0.5,0.5,0.5s0.5-0.2,0.5-0.5v-19
	l4.6,5.1c0.2,0.2,0.5,0.2,0.7,0s0.2-0.5,0-0.7L23.9,21.9z M35.5,12.8C33.6,8.1,29.1,5,24,5s-9.6,3.1-11.5,7.8C6.5,13.7,2,18.9,2,25
	c0,6.8,5.6,12.4,12.5,12.4c0.6,0,1-0.5,1-1s-0.4-1-1-1C8.7,35.4,4,30.7,4,25c0-5.3,4-9.7,9.3-10.3c0.4,0,0.7-0.3,0.8-0.7
	c1.5-4.2,5.4-7,9.9-7s8.4,2.8,9.9,7c0.1,0.4,0.5,0.6,0.8,0.7C40,15.3,44,19.7,44,25c0,5.7-4.7,10.4-10.5,10.4c-0.6,0-1,0.5-1,1
	s0.4,1,1,1C40.4,37.4,46,31.9,46,25C46,18.9,41.5,13.7,35.5,12.8z"/>
</svg>
