<?xml version="1.0" encoding="utf-8"?>
<!-- Generator: Adobe Illustrator 21.0.0, SVG Export Plug-In . SVG Version: 6.00 Build 0)  -->
<svg version="1.1" id="图层_1" xmlns="http://www.w3.org/2000/svg" xmlns:xlink="http://www.w3.org/1999/xlink" x="0px" y="0px"
	 viewBox="0 0 48 48" style="enable-background:new 0 0 48 48;" xml:space="preserve">
<style type="text/css">
	.st0{fill:#040000;}
</style>
<path class="st0" d="M14.3,22.2c-0.3,0-0.5,0.2-0.5,0.5s0.2,0.5,0.5,0.5s0.5-0.2,0.5-0.5C14.8,22.4,14.6,22.2,14.3,22.2z M37.2,29.7
	c-1.1-1-2.4-1.4-3.3-1.6c-0.1-0.7-0.3-1.9-0.8-3.3c-0.5-1.3-1.2-2.6-2.1-3.8c-1.1-1.5-2.6-2.7-4.3-3.8c-0.4-0.2-0.5-0.5-0.5-0.6
	c0-0.3,0.1-0.6,0.2-0.7c0.2-0.2,0.9-1.1,0.6-1.9c-0.1-0.4-0.5-1-1.6-1h-0.1c-0.9,0-2.2,0.6-3.5,2.3c-0.1,0.1-0.1,0.2-0.1,0.2
	s-0.1,0.1-0.3,0.1c-0.5,0.1-1.2,0.3-2.3,0.6c-2.9,0.9-5.6,2.6-6.8,4.3c-1.3,1.8-1.2,3-1.1,3.5c0,0-0.2,0.2-0.3,0.3
	c-0.1,0.2-0.2,0.3-0.3,0.3c-0.2,0.3-0.5,1.1-0.2,1.7c0.2,0.4,0.6,0.6,1.1,0.6c0.3,0,0.7-0.1,1.1-0.3c2-1,3.7-1.7,4.6-2.1
	c0.3,0.4,0.7,0.7,1.1,1c0.7,0.4,1.4,0.7,2,0.7c0.1,0,0.2,0,0.3,0c1-0.1,1.2-0.7,1.3-1c0.1-0.5-0.1-1-0.6-1.4
	c0.8,0.1,1.9,0.2,3.3,0.4c1.5,0.2,3.1,1,4.5,2.3c1.1,1,1.9,2.1,2.3,2.6c0,0-0.1,0.1-0.1,0.2c-0.2,0.3-0.4,0.6-0.7,0.9
	c-0.4,0.5-0.7,0.9-0.8,1.2c0,0.1-0.6,1.3,0,2c0.2,0.3,0.5,0.4,0.9,0.4l0,0c0.6,0,1.1-0.4,1.4-0.8c0.2-0.3,0.7-0.6,1.3-0.8
	s1.2-0.3,1.8-0.3l0,0c0.3,0,0.5,0,0.5,0.1c0.2,0.1,0.8,0.3,1.3,0.3c0.6,0,1-0.3,1.2-0.7C38.4,30.8,37.6,30.1,37.2,29.7z M36.9,31.4
	c-0.3,0-0.7-0.1-0.9-0.2s-0.5-0.1-0.9-0.1c-0.7,0-1.5,0.2-2.2,0.5c-0.8,0.3-1.4,0.7-1.8,1.2c-0.3,0.5-0.5,0.5-0.6,0.5
	c0,0-0.1,0-0.1-0.1c-0.1-0.2,0-0.9,0.1-1.2c0.1-0.2,0.4-0.6,0.7-1c0.3-0.3,0.6-0.7,0.8-1.1c0.2-0.3,0.3-0.6,0.3-0.8V29l-0.2-0.3
	c-0.4-0.5-1.2-1.7-2.5-2.8c-1.6-1.4-3.3-2.3-5-2.5c-2.2-0.3-3.6-0.5-4.3-0.5c-0.2,0-0.2,0-0.3,0L19.6,23l0.1,0.5c0,0,0.1,0.8,0.6,1
	c0.3,0.2,0.5,0.4,0.5,0.6c0,0.1-0.3,0.2-0.5,0.2h-0.1c-0.4,0-1-0.2-1.5-0.5c-0.4-0.3-0.8-0.6-1-1l-0.2-0.3l-0.4,0.1
	c-0.9,0.3-2.7,1-5.1,2.3c-0.3,0.1-0.5,0.2-0.6,0.2s-0.2,0-0.2-0.1c-0.1-0.2,0-0.5,0.1-0.6c0-0.1,0.1-0.1,0.2-0.2
	c0.3-0.3,0.6-0.7,0.6-1.1c0-0.5-0.1-1.4,1-2.9c1.1-1.6,3.6-3.1,6.3-4c1.1-0.3,1.8-0.5,2.3-0.6c0.3-0.1,0.5-0.1,0.6-0.2
	s0.2-0.4,0.4-0.6c1-1.4,2-1.9,2.7-1.9l0,0c0.4,0,0.7,0.3,0.7,0.4c0.1,0.1-0.1,0.5-0.4,0.8c-0.2,0.2-0.5,0.9-0.4,1.5
	c0.1,0.6,0.4,1.1,0.9,1.4c1.6,1,3,2.3,4,3.6c0.9,1.1,1.5,2.3,2,3.5c0.6,1.5,0.7,2.8,0.7,3.4v0.4h0.4c0.6,0.1,2,0.3,3.1,1.4
	C37,30.8,37,31,37,31.1C37.1,31.3,37,31.4,36.9,31.4z M40.8,10.6L27.3,2.8C26.3,2.3,25.2,2,24,2s-2.3,0.3-3.3,0.8L7.2,10.6
	c-1.8,1-3.2,3.5-3.2,5.6v15.6c0,2.1,1.4,4.5,3.2,5.6l13.5,7.8c0.9,0.5,2.1,0.8,3.3,0.8s2.3-0.3,3.3-0.8l13.5-7.8
	c1.8-1.1,3.2-3.5,3.2-5.6V16.2C44,14.1,42.6,11.6,40.8,10.6z M42,31.8c0,1.4-1.1,3.2-2.3,3.9l-13.5,7.8C25.7,43.8,24.9,44,24,44
	s-1.7-0.2-2.3-0.5L8.3,35.7C7.1,35,6,33.2,6,31.8V16.2c0-1.4,1.1-3.2,2.3-3.9l13.5-7.8C22.3,4.2,23.1,4,24,4s1.7,0.2,2.3,0.5
	l13.5,7.8c1.2,0.7,2.3,2.5,2.3,3.9L42,31.8L42,31.8z"/>
</svg>
