<?xml version="1.0" encoding="utf-8"?>
<!-- Generator: Adobe Illustrator 21.0.0, SVG Export Plug-In . SVG Version: 6.00 Build 0)  -->
<svg version="1.1" id="图层_1" xmlns="http://www.w3.org/2000/svg" xmlns:xlink="http://www.w3.org/1999/xlink" x="0px" y="0px"
	 viewBox="0 0 48 48" style="enable-background:new 0 0 48 48;" xml:space="preserve">
<style type="text/css">
	.st0{fill:#040000;}
	.st1{fill:#060001;}
	.st2{fill:#080103;}
</style>
<path d="M9,25h30v-1H9V25z M42,5H6C3.8,5,2,6.8,2,9.1v24.7C2,36.1,3.8,38,6,38h13l3.5,4.3c0.4,0.5,1,0.7,1.5,0.7
	c0.6,0,1.1-0.2,1.5-0.7L29,38h13c2.2,0,4-1.8,4-4.1V9.1C46,6.8,44.2,5,42,5z M44,33.9c0,1.2-0.9,2.1-2,2.1H29
	c-0.6,0-1.2,0.3-1.6,0.7L24,41l-3.5-4.3c-0.4-0.5-1-0.7-1.6-0.7H6c-1.1,0-2-1-2-2.1V9.1C4,8,4.9,7,6,7h36c1.1,0,2,1,2,2.1V33.9z
	 M9,17h30v-1H9V17z"/>
</svg>
