<?xml version="1.0" encoding="utf-8"?>
<!-- Generator: Adobe Illustrator 21.0.0, SVG Export Plug-In . SVG Version: 6.00 Build 0)  -->
<svg version="1.1" id="图层_1" xmlns="http://www.w3.org/2000/svg" xmlns:xlink="http://www.w3.org/1999/xlink" x="0px" y="0px"
	 viewBox="0 0 48 48" style="enable-background:new 0 0 48 48;" xml:space="preserve">
<path d="M24,4C13,4,4,13,4,24c0,11,9,20,20,20c11,0,20-9,20-20C44,13,35,4,24,4z M24,42c-9.9,0-18-8.1-18-18c0-9.9,8.1-18,18-18
	c9.9,0,18,8.1,18,18C42,33.9,33.9,42,24,42z M4.5,12.5C4.8,12.5,5,12.3,5,12V6.5C5,5.7,5.7,5,6.5,5H12c0.3,0,0.5-0.2,0.5-0.5
	S12.3,4,12,4H6.5C5.1,4,4,5.1,4,6.5V12C4,12.3,4.2,12.5,4.5,12.5z M42,4h-6c-0.3,0-0.5,0.2-0.5,0.5S35.7,5,36,5h6c0.2,0,1,0,1,1.5
	V12c0,0.3,0.2,0.5,0.5,0.5S44,12.3,44,12V6.5C44,4.9,43.3,4,42,4z M43.5,34.5c-0.3,0-0.5,0.2-0.5,0.5v6c0,0.9-0.7,2-1.5,2H36
	c-0.3,0-0.5,0.2-0.5,0.5S35.7,44,36,44h5.5c1.4,0,2.5-1.6,2.5-3v-6C44,34.7,43.8,34.5,43.5,34.5z M12,43H6c-0.7,0-1-1.2-1-2v-5
	c0-0.3-0.2-0.5-0.5-0.5S4,35.7,4,36v5c0,1.5,0.6,3,2,3h6c0.3,0,0.5-0.2,0.5-0.5S12.3,43,12,43z M33.5,20c0,0.5,0.2,1,0.4,1.4
	l-4.5,4.5c-0.4-0.3-0.9-0.4-1.4-0.4c-0.5,0-1,0.2-1.4,0.4l-4.5-4.5c0.3-0.4,0.4-0.9,0.4-1.4c0-1.4-1.1-2.5-2.5-2.5s-2.5,1.1-2.5,2.5
	c0,0.5,0.2,1,0.4,1.4l-4.5,4.5c-0.4-0.3-0.9-0.4-1.4-0.4c-1.4,0-2.5,1.1-2.5,2.5c0,1.4,1.1,2.5,2.5,2.5s2.5-1.1,2.5-2.5
	c0-0.5-0.2-1-0.4-1.4l4.6-4.5c0.4,0.3,0.9,0.4,1.4,0.4s1-0.2,1.4-0.4l4.6,4.5c-0.3,0.4-0.4,0.9-0.4,1.4c0,1.4,1.1,2.5,2.5,2.5
	s2.5-1.1,2.5-2.5c0-0.5-0.2-1-0.4-1.4l4.5-4.5c0.4,0.3,0.9,0.4,1.4,0.4c1.4,0,2.5-1.1,2.5-2.5c0-1.4-1.1-2.5-2.5-2.5
	S33.5,18.6,33.5,20z M12,29.5c-0.8,0-1.5-0.7-1.5-1.5s0.7-1.5,1.5-1.5s1.5,0.7,1.5,1.5S12.8,29.5,12,29.5z M20,21.5
	c-0.8,0-1.5-0.7-1.5-1.5s0.7-1.5,1.5-1.5s1.5,0.7,1.5,1.5S20.8,21.5,20,21.5z M28,29.5c-0.8,0-1.5-0.7-1.5-1.5s0.7-1.5,1.5-1.5
	s1.5,0.7,1.5,1.5S28.8,29.5,28,29.5z M37.5,20c0,0.8-0.7,1.5-1.5,1.5s-1.5-0.7-1.5-1.5s0.7-1.5,1.5-1.5S37.5,19.2,37.5,20z"/>
</svg>
