<?xml version="1.0" encoding="utf-8"?>
<!-- Generator: Adobe Illustrator 21.0.0, SVG Export Plug-In . SVG Version: 6.00 Build 0)  -->
<svg version="1.1" id="图层_1" xmlns="http://www.w3.org/2000/svg" xmlns:xlink="http://www.w3.org/1999/xlink" x="0px" y="0px"
	 viewBox="0 0 48 48" style="enable-background:new 0 0 48 48;" xml:space="preserve">
<style type="text/css">
	.st0{fill:#060001;}
	.st1{fill:#040000;}
	.st2{fill:none;stroke:#000000;stroke-miterlimit:10;}
	.st3{fill:#221815;}
	.st4{fill:#080102;}
	.st5{fill:none;stroke:#000000;stroke-width:2;stroke-linecap:round;stroke-linejoin:round;stroke-miterlimit:10;}
	.st6{fill:#070001;}
</style>
<path d="M41.9,23.6c-0.2-0.5-0.6-0.8-1.1-0.8H10.2L22.5,11c0.6,0.3,1.3,0.5,2.1,0.5c2.6,0,4.8-2.1,4.8-4.8c0-2.6-2.2-4.8-4.8-4.8
	s-4.8,2.1-4.8,4.8c0,1,0.3,2,0.9,2.7L6.4,23.1C6,23.5,5.9,24,6.1,24.4c0.2,0.5,0.6,0.7,1.1,0.7h30.3L23.2,36.9
	c-0.6-0.3-1.2-0.4-1.9-0.4c-2.6,0-4.8,2.1-4.8,4.8c0,2.6,2.2,4.8,4.8,4.8s4.8-2.1,4.8-4.8c0-1.1-0.4-2-1-2.8l16.4-13.5
	C42,24.6,42.1,24.1,41.9,23.6z M24.6,4.4c1.3,0,2.4,1.1,2.4,2.4c0,1.3-1.1,2.4-2.4,2.4c-1.3,0-2.4-1.1-2.4-2.4
	C22.2,5.4,23.3,4.4,24.6,4.4z M21.3,43.6c-1.3,0-2.4-1.1-2.4-2.4c0-1.3,1.1-2.4,2.4-2.4c1.3,0,2.4,1.1,2.4,2.4
	C23.7,42.6,22.6,43.6,21.3,43.6z"/>
</svg>
