<?xml version="1.0" encoding="utf-8"?>
<!-- Generator: Adobe Illustrator 21.0.0, SVG Export Plug-In . SVG Version: 6.00 Build 0)  -->
<svg version="1.1" id="图层_1" xmlns="http://www.w3.org/2000/svg" xmlns:xlink="http://www.w3.org/1999/xlink" x="0px" y="0px"
	 viewBox="0 0 48 48" style="enable-background:new 0 0 48 48;" xml:space="preserve">
<style type="text/css">
	.st0{fill:#060001;}
	.st1{fill:#040000;}
	.st2{fill:none;stroke:#000000;stroke-miterlimit:10;}
	.st3{fill:#221815;}
	.st4{fill:#080102;}
	.st5{fill:none;stroke:#000000;stroke-width:2;stroke-linecap:round;stroke-linejoin:round;stroke-miterlimit:10;}
	.st6{fill:#070001;}
</style>
<path class="st0" d="M41.6,11L26.3,2.5c-1.3-0.7-3.4-0.7-4.7,0L6.4,11C5,11.8,4,13.5,4,15v18c0,1.5,1,3.2,2.4,4l15.3,8.5
	c0.6,0.4,1.5,0.6,2.3,0.6s1.7-0.2,2.3-0.6l15.3-8.5c1.3-0.7,2.4-2.5,2.4-4V15C44,13.5,43,11.8,41.6,11z M6.1,15
	c0-0.8,0.6-1.8,1.3-2.2l15.3-8.5C23,4.1,23.5,4,24,4s1,0.1,1.3,0.3l15.3,8.5c0.7,0.4,1.3,1.4,1.3,2.2v5.1v6.7c0,1-0.7,2.2-1.6,2.7
	l-14.8,8.5c-0.8,0.5-2.3,0.5-3.1,0L7.7,29.5c-0.8-0.5-1.6-1.7-1.6-2.7v-6.7V15z M40.6,35.2l-15.3,8.5c-0.7,0.4-2,0.4-2.6,0L7.4,35.2
	c-0.7-0.4-1.3-1.4-1.3-2.2v-3.5c0.3,0.4,0.6,0.7,1,0.9l14.8,8.5c0.6,0.3,1.3,0.5,2.1,0.5s1.5-0.2,2.1-0.5l14.8-8.5
	c0.4-0.2,0.7-0.5,1-0.9V33C41.9,33.7,41.3,34.8,40.6,35.2z"/>
</svg>
