<?xml version="1.0" encoding="utf-8"?>
<!-- Generator: Adobe Illustrator 21.0.0, SVG Export Plug-In . SVG Version: 6.00 Build 0)  -->
<svg version="1.1" id="图层_1" xmlns="http://www.w3.org/2000/svg" xmlns:xlink="http://www.w3.org/1999/xlink" x="0px" y="0px"
	 viewBox="0 0 48 48" style="enable-background:new 0 0 48 48;" xml:space="preserve">
<style type="text/css">
	.st0{fill:#060001;}
	.st1{fill:#040000;}
	.st2{fill:none;stroke:#000000;stroke-miterlimit:10;}
	.st3{fill:#221815;}
	.st4{fill:#080102;}
	.st5{fill:none;stroke:#000000;stroke-width:2;stroke-linecap:round;stroke-linejoin:round;stroke-miterlimit:10;}
	.st6{fill:#070001;}
</style>
<g>
	<path d="M9,30h5.8c1.2,0,2.2-1.1,2.2-2.4v-7.3c0-1.3-1-2.4-2.2-2.4H9H8v1v10v1H9z M9,19h5.8c0.7,0,1.2,0.6,1.2,1.4v7.3
		c0,0.8-0.6,1.4-1.2,1.4H9V19z"/>
	<path d="M24,2C11.9,2,2,11.9,2,24s9.9,22,22,22s22-9.9,22-22S36.1,2,24,2z M41.6,14.5h-7.1c-1.2-5.1-3.7-8.6-6.9-10.1
		C33.7,5.5,38.8,9.3,41.6,14.5z M33.5,14.5H14.6c1.7-6.3,5.2-10,9.4-10C28.4,4.5,31.9,8.2,33.5,14.5z M20.4,4.3
		c-3.1,1.5-5.6,5.1-6.9,10.2H6.4C9.2,9.3,14.4,5.4,20.4,4.3z M5.9,15.5h36.2C43.3,18.1,44,21,44,24s-0.7,5.9-1.9,8.5H5.9
		C4.7,29.9,4,27,4,24S4.7,18.1,5.9,15.5z M14.5,33.5h18.9c-1.7,6.3-5.2,10-9.4,10C19.6,43.5,16.1,39.8,14.5,33.5z M6.4,33.5h7.1
		c1.2,5.1,3.7,8.6,6.8,10.1C14.3,42.5,9.2,38.7,6.4,33.5z M27.6,43.7c3.1-1.5,5.6-5.1,6.9-10.2h7.1C38.8,38.7,33.6,42.6,27.6,43.7z"
		/>
	<path d="M20,19h0.3c0.9,0,1.4,0.4,1.8,1.5l2.7,7.7l0.5-0.2l-0.5,0.2c0.5,1.3,1.4,1.8,2.9,1.8H29v-1h0V18h-1v11h-0.3
		c-1.1,0-1.6-0.3-1.9-1.2l0,0l-2.7-7.7c-0.2-0.5-0.8-2.2-2.8-2.2h-0.8v0H19v12h1V19z"/>
	<path d="M33.2,24h1v0h3.7c0.7,0,1.2,0.6,1.2,1.4v2.3c0,0.8-0.5,1.4-1.2,1.4H31v1h6.8c1.2,0,2.2-1.1,2.2-2.4v-2.3
		c0-1.3-1-2.4-2.2-2.4h-1v0h-3.7c-0.7,0-1.2-0.6-1.2-1.4v-1.3c0-0.8,0.5-1.4,1.2-1.4H40v-1h-6.8C32,18,31,19.1,31,20.4v1.3
		C31,22.9,32,24,33.2,24z"/>
</g>
</svg>
