<?xml version="1.0" encoding="utf-8"?>
<!-- Generator: Adobe Illustrator 21.0.0, SVG Export Plug-In . SVG Version: 6.00 Build 0)  -->
<svg version="1.1" id="图层_1" xmlns="http://www.w3.org/2000/svg" xmlns:xlink="http://www.w3.org/1999/xlink" x="0px" y="0px"
	 viewBox="0 0 48 48" style="enable-background:new 0 0 48 48;" xml:space="preserve">
<style type="text/css">
	.st0{fill:#060001;}
	.st1{fill:#040000;}
	.st2{fill:none;stroke:#000000;stroke-miterlimit:10;}
	.st3{fill:#221815;}
	.st4{fill:#080102;}
	.st5{fill:none;stroke:#000000;stroke-width:2;stroke-linecap:round;stroke-linejoin:round;stroke-miterlimit:10;}
	.st6{fill:#070001;}
</style>
<path d="M26,2H8.9C7,2,5.5,3.6,5.5,5.5v37.1C5.5,44.4,7,46,8.9,46h25c0.6,0,1.2-0.2,1.7-0.5l4-1.2c1.7-0.5,2.9-2.1,2.9-3.9V18.8
	C42.5,9.5,35.1,2,26,2z M35.1,42.5c0,0.6-0.5,1.2-1.1,1.2h-25c-0.6,0-1.1-0.5-1.1-1.2V5.5c0-0.6,0.5-1.2,1.1-1.2h12.5
	c7.5,0,13.7,6.2,13.7,13.9V42.5z M41.4,40.5c0,1.3-0.8,2.4-2.1,2.8l-2.2,0.6c0.2-0.4,0.3-0.9,0.3-1.4V18.2c0-6.8-4.1-12.5-9.8-15
	c7.7,0.8,13.8,7.5,13.8,15.6V40.5z M25.5,22.3c-0.6-1.7-2.2-2.9-4.1-2.9c-1.9,0-3.5,1.2-4.1,2.9c-2.2,0.2-3.9,2.1-3.9,4.3
	c0,2.4,1.9,4.3,4.3,4.3h7.2c2.4,0,4.3-1.9,4.3-4.3C29.4,24.4,27.7,22.5,25.5,22.3z M25.1,29.8h-7.2c-1.8,0-3.2-1.4-3.2-3.2
	c0-1.6,1.2-3,2.8-3.2c0.4,0,0.8-0.3,1-0.8c0.4-1.3,1.7-2.1,3-2.1c1.4,0,2.6,0.9,3,2.1c0.1,0.4,0.5,0.7,1,0.8
	c1.6,0.2,2.8,1.5,2.8,3.2C28.3,28.4,26.8,29.8,25.1,29.8z"/>
</svg>
