<?xml version="1.0" encoding="utf-8"?>
<!-- Generator: Adobe Illustrator 22.1.0, SVG Export Plug-In . SVG Version: 6.00 Build 0)  -->
<svg version="1.1" id="图层_1" xmlns="http://www.w3.org/2000/svg" xmlns:xlink="http://www.w3.org/1999/xlink" x="0px" y="0px"
	 viewBox="0 0 48 48" style="enable-background:new 0 0 48 48;" xml:space="preserve">
<style type="text/css">
	.st0{display:none;}
	.st1{display:inline;}
	.st2{fill:none;stroke:#DDDDDD;}
	.st3{fill:none;stroke:#DDDDDD;stroke-linecap:square;}
	.st4{fill:#323333;}
	.st5{fill:#040000;}
	.st6{fill:#231815;}
	.st7{fill:none;stroke:#231815;stroke-width:2;}
	.st8{fill:#7F7F80;}
	.st9{fill:#FFFFFF;}
	.st10{fill:none;stroke:#040000;}
	.st11{fill:#F66F6A;}
	.st12{fill:#808080;}
	.st13{fill:#060001;}
	.st14{fill:#221714;}
	.st15{fill:#E95513;}
</style>
<g id="功能图标线面_8_" transform="translate(-1275.000000, -1599.000000)" class="st0">
	<g id="Group-3_8_" transform="translate(69.000000, 54.000000)" class="st1">
		<g id="Group-2_8_" transform="translate(1206.000000, 1545.000000)">
			<g>
				<rect id="Rectangle-39_24_" x="2.5" y="2.5" class="st2" width="43" height="43"/>
				<path id="Rectangle-39_23_" class="st2" d="M0.5,0.5v47h47v-47H0.5z"/>
				<path id="Line-4_16_" class="st3" d="M0.5,47.5L47,1"/>
				<path id="Line-6_8_" class="st3" d="M23.5,1v46.5"/>
				<path id="Line-4_15_" class="st3" d="M47,47L1,1"/>
				<path id="Rectangle-39_22_" class="st2" d="M4.5,4.5v39h39v-39H4.5z"/>
				<circle id="Oval-12_16_" class="st2" cx="24" cy="24" r="12.5"/>
				<circle id="Oval-12_15_" class="st2" cx="24" cy="24" r="7.5"/>
				<path id="Line-7_8_" class="st3" d="M0.5,24.5H47"/>
			</g>
		</g>
	</g>
</g>
<path d="M33,20c1.7,0,3-1.3,3-3s-1.3-3-3-3c-1.7,0-3,1.3-3,3c0,0.3,0,0.5,0.1,0.8l-3.3,1.9c-0.6-0.6-1.4-1-2.3-1.1v-2.6
	c1.4-0.2,2.5-1.5,2.5-2.9c0-1.7-1.3-3-3-3c-1.7,0-3,1.3-3,3c0,1.5,1.1,2.7,2.5,2.9v2.6c-2,0.2-3.5,1.9-3.5,3.9c0,2,1.5,3.7,3.5,3.9
	v2.6C22.1,29.3,21,30.5,21,32c0,1.7,1.3,3,3,3c1.7,0,3-1.3,3-3c0-1.5-1.1-2.7-2.5-2.9v-2.6c1.1-0.1,2-0.7,2.7-1.5l3.1,1.8
	C30.1,27.1,30,27.5,30,28c0,1.7,1.3,3,3,3c1.7,0,3-1.3,3-3s-1.3-3-3-3c-0.8,0-1.6,0.4-2.2,0.9l-3.2-1.8c0.2-0.5,0.3-1,0.3-1.6
	c0-0.7-0.2-1.4-0.6-2l3.1-1.8C31.1,19.5,32,20,33,20z M33,15c1.1,0,2,0.9,2,2s-0.9,2-2,2s-2-0.9-2-2S31.9,15,33,15z M22,13
	c0-1.1,0.9-2,2-2s2,0.9,2,2s-0.9,2-2,2S22,14.1,22,13z M26,32c0,1.1-0.9,2-2,2s-2-0.9-2-2s0.9-2,2-2S26,30.9,26,32z M24,25.5
	c-1.7,0-3-1.3-3-3c0-1.7,1.3-3,3-3s3,1.3,3,3C27,24.2,25.7,25.5,24,25.5z M33,26c1.1,0,2,0.9,2,2s-0.9,2-2,2s-2-0.9-2-2
	S31.9,26,33,26z M42,6H6c-2.2,0-4,1.8-4,4.1v24.7C2,37.1,3.8,39,6,39h13l3.5,4.3c0.4,0.5,1,0.7,1.5,0.7c0.6,0,1.1-0.2,1.5-0.7L29,39
	h13c2.2,0,4-1.8,4-4.1V10.1C46,7.8,44.2,6,42,6z M44,34.9c0,1.2-0.9,2.1-2,2.1H29c-0.6,0-1.2,0.3-1.6,0.7L24,42l-3.5-4.3
	c-0.4-0.5-1-0.7-1.6-0.7H6c-1.1,0-2-1-2-2.1V10.1C4,9,4.9,8,6,8h36c1.1,0,2,1,2,2.1V34.9z"/>
</svg>
