<?xml version="1.0" encoding="utf-8"?>
<!-- Generator: Adobe Illustrator 21.0.0, SVG Export Plug-In . SVG Version: 6.00 Build 0)  -->
<svg version="1.1" id="图层_1" xmlns="http://www.w3.org/2000/svg" xmlns:xlink="http://www.w3.org/1999/xlink" x="0px" y="0px"
	 viewBox="0 0 48 48" style="enable-background:new 0 0 48 48;" xml:space="preserve">
<style type="text/css">
	.st0{fill:#060001;}
	.st1{fill:#040000;}
	.st2{fill:none;stroke:#000000;stroke-miterlimit:10;}
	.st3{fill:#221815;}
	.st4{fill:#080102;}
	.st5{fill:none;stroke:#000000;stroke-width:2;stroke-linecap:round;stroke-linejoin:round;stroke-miterlimit:10;}
	.st6{fill:#070001;}
</style>
<path d="M30.8,17.5c-1-3.1-3.9-5.2-7.3-5.2s-6.2,2.1-7.3,5.2c-3.4,0.5-6,3.5-6,7.1c0,3.9,3.3,7.2,7.2,7.2h12.3
	c3.9,0,7.2-3.3,7.2-7.2C36.8,20.9,34.1,18,30.8,17.5z M29.6,30.7H17.3c-3.4,0-6.1-2.8-6.1-6.1c0-3,2.3-5.6,5.2-6
	c0.4-0.1,0.7-0.3,0.8-0.7c0.9-2.7,3.5-4.5,6.3-4.5s5.4,1.8,6.3,4.5c0.1,0.4,0.4,0.6,0.8,0.7c3,0.5,5.2,3.1,5.2,6
	C35.8,27.9,33,30.7,29.6,30.7z M45.7,44.3l-6.3-6.3C42.8,34.1,45,29,45,23.5C45,11.6,35.4,2,23.5,2S2,11.6,2,23.5S11.6,45,23.5,45
	c5.5,0,10.6-2.1,14.4-5.6l6.3,6.3c0.2,0.2,0.5,0.3,0.7,0.3s0.5-0.1,0.7-0.3C46.1,45.3,46.1,44.7,45.7,44.3z M23.5,42.9
	C12.7,42.9,4,34.2,4,23.5S12.7,4,23.5,4s19.4,8.7,19.4,19.4S34.2,42.9,23.5,42.9z"/>
</svg>
