<?xml version="1.0" encoding="utf-8"?>
<!-- Generator: Adobe Illustrator 21.0.0, SVG Export Plug-In . SVG Version: 6.00 Build 0)  -->
<svg version="1.1" id="图层_1" xmlns="http://www.w3.org/2000/svg" xmlns:xlink="http://www.w3.org/1999/xlink" x="0px" y="0px"
	 viewBox="0 0 48 48" enable-background="new 0 0 48 48" xml:space="preserve">
<path fill="#040000" d="M14.2,15h10c0.3,0,0.5-0.2,0.5-0.5S24.5,14,24.3,14h-10c-0.3,0-0.5,0.2-0.5,0.5S14,15,14.2,15z M28.2,5H11.5
	C9.4,5,8,6.8,8,9v30c0,2.2,1.4,4,3.5,4h24.4c2.1,0,4.1-1.8,4.1-4V16.6L28.2,5z M28,7.4l9.3,9.6H30c-1.3,0-2-1.1-2-2.5V7.4z M38,39
	c0,1.1-1.1,2-2.1,2H11.5c-1,0-1.5-0.9-1.5-2V9c0-1.1,0.6-2,1.5-2H27v7.5c0,1.9,1.2,3.5,3,3.5h8V39z M13.8,21.5
	c0,0.3,0.2,0.5,0.5,0.5h19c0.3,0,0.5-0.2,0.5-0.5S33.5,21,33.3,21h-19C14,21,13.8,21.2,13.8,21.5z M25,35.6c1.1-1.2,1.7-2.8,1.7-4.6
	c0-3.9-3.1-7-7-7s-7,3.1-7,7s3.1,7,7,7c1.7,0,3.3-0.6,4.5-1.7l2.6,2.5c0.1,0.1,0.2,0.1,0.3,0.1c0.1,0,0.3,0,0.4-0.2
	c0.2-0.2,0.2-0.5,0-0.7L25,35.6z M19.8,37c-3.3,0-6-2.7-6-6s2.7-6,6-6s6,2.7,6,6S23.1,37,19.8,37z"/>
</svg>
