<?xml version="1.0" encoding="utf-8"?>
<!-- Generator: Adobe Illustrator 21.0.0, SVG Export Plug-In . SVG Version: 6.00 Build 0)  -->
<svg version="1.1" id="图层_1" xmlns="http://www.w3.org/2000/svg" xmlns:xlink="http://www.w3.org/1999/xlink" x="0px" y="0px"
	 viewBox="0 0 48 48" style="enable-background:new 0 0 48 48;" xml:space="preserve">
<style type="text/css">
	.st0{fill:#060001;}
	.st1{fill:#040000;}
	.st2{fill:#221815;}
	.st3{fill:#080102;}
	.st4{fill:#070001;}
</style>
<path d="M42,10H20l-4-4H6c-2.2,0-4,1.8-4,4v28c0,2.2,1.8,4,4,4h36c2.2,0,4-1.8,4-4V14C46,11.8,44.2,10,42,10z M44,38
	c0,1.1-0.9,2-2,2H6c-1.1,0-2-0.9-2-2V19h40V38z M44,18H4v-8c0-1.1,0.9-2,2-2h9.2l3.4,3.4l0.6,0.6H42c1.1,0,2,0.9,2,2V18z"/>
</svg>
