<?xml version="1.0" encoding="utf-8"?>
<!-- Generator: Adobe Illustrator 21.0.0, SVG Export Plug-In . SVG Version: 6.00 Build 0)  -->
<svg version="1.1" id="图层_1" xmlns="http://www.w3.org/2000/svg" xmlns:xlink="http://www.w3.org/1999/xlink" x="0px" y="0px"
	 viewBox="0 0 48 48" style="enable-background:new 0 0 48 48;" xml:space="preserve">
<style type="text/css">
	.st0{fill:#060001;}
	.st1{fill:#040000;}
	.st2{fill:none;stroke:#000000;stroke-miterlimit:10;}
	.st3{fill:#221815;}
	.st4{fill:#080102;}
	.st5{fill:none;stroke:#000000;stroke-width:2;stroke-linecap:round;stroke-linejoin:round;stroke-miterlimit:10;}
	.st6{fill:#070001;}
</style>
<g>
	<path d="M39.8,18h-1v11h-0.3c-1.1,0-1.6-0.3-1.9-1.2l0,0l-2.7-7.7C33.7,19.6,33.1,18,31,18h-0.8v0h-0.5v12h1V19H31
		c0.9,0,1.4,0.4,1.8,1.5l2.7,7.7L36,28l-0.5,0.2c0.5,1.3,1.4,1.8,2.9,1.8h1.3v-1h0V18z"/>
	<path d="M24,2C11.9,2,2,11.9,2,24s9.9,22,22,22s22-9.9,22-22S36.1,2,24,2z M8.5,33.7c1.3,2.6,3.3,4.8,5.7,6.2l0.5-0.9
		c-2.1-1.2-3.8-3-5-5.1h31.5c-3.5,6-9.9,10-17.3,10C13,44,4,35,4,24c0-3.2,0.8-6.3,2.2-9h33.2L39,14.3c-1.3-2.6-3.3-4.8-5.7-6.2
		l-0.5,0.9c2.1,1.2,3.8,3,5,5.1h-31C10.2,8,16.6,4,24,4c11,0,20,9,20,20c0,3.2-0.8,6.3-2.2,9H8.2L8.5,33.7z"/>
	<path d="M25.5,18h-5.8h-0.5h-0.5v12h1v-6h5.8c1.2,0,2.2-1.1,2.2-2.4v-1.3C27.8,19.1,26.7,18,25.5,18z M26.8,21.6
		c0,0.8-0.6,1.4-1.2,1.4h-5.8v-4h5.8c0.7,0,1.2,0.6,1.2,1.4V21.6z"/>
	<path d="M14,26.9c-0.4,1.1-0.9,1.6-1.8,1.6h-0.5c-0.9,0-1.4-0.5-1.7-1.5l-2-9.1l-1,0.2l2,9.1c0.2,0.5,0.7,2.1,2.5,2.2v0h0.2h0.5
		h0.2v0c1.7-0.1,2.3-1.7,2.5-2.3l2-9.1l-1-0.2L14,26.9z"/>
</g>
</svg>
