<?xml version="1.0" encoding="utf-8"?>
<!-- Generator: Adobe Illustrator 21.0.0, SVG Export Plug-In . SVG Version: 6.00 Build 0)  -->
<svg version="1.1" id="图层_1" xmlns="http://www.w3.org/2000/svg" xmlns:xlink="http://www.w3.org/1999/xlink" x="0px" y="0px"
	 viewBox="0 0 41 44" style="enable-background:new 0 0 41 44;" xml:space="preserve">
<style type="text/css">
	.st0{fill:#020202;}
</style>
<g>
	<path class="st0" d="M37.3,8.6L23.8,0.8C22.9,0.3,21.6,0,20.4,0c-1.2,0-2.3,0.3-3.3,0.8L3.8,8.6c-1.9,1-3.3,3.5-3.3,5.6v15.6
		c0,2.1,1.4,4.5,3.2,5.6l13.5,7.8c0.9,0.5,2.1,0.8,3.3,0.8c1.2,0,2.3-0.3,3.3-0.8l13.5-7.8c1.8-1.1,3.3-3.5,3.3-5.6V14.2
		C40.4,12.1,39.1,9.6,37.3,8.6z M38.4,29.8c0,1.4-1.1,3.2-2.3,3.9l-13.5,7.8c-0.5,0.3-1.3,0.5-2.2,0.5c-0.9,0-1.7-0.2-2.3-0.5
		L4.6,33.7c-1.1-0.7-2.2-2.5-2.2-3.9V14.2c0-1.4,1.1-3.2,2.3-3.9l13.5-7.8C18.8,2.2,19.6,2,20.4,2c0.9,0,1.7,0.2,2.3,0.5l13.5,7.8
		c1.2,0.7,2.2,2.5,2.2,3.9V29.8z"/>
	<path class="st0" d="M20.5,8.8c-0.2,0-0.3,0-0.5,0c-0.1,0-0.2,0-0.3,0c0,0-0.1,0-0.1,0C12.8,9.3,7.3,15,7.3,22
		c0,7.3,5.9,13.2,13.2,13.2c0.3,0,0.6,0,0.9,0c0,0,0,0,0,0v0c6.8-0.5,12.2-6.2,12.2-13.1C33.6,14.8,27.7,8.8,20.5,8.8z M8.3,22
		c0-6.6,5.2-11.9,11.7-12.2c2.1,0,4.1,0.8,5.7,2.4c1.9,1.9,3.1,4.5,3.1,7.2c0,3.4-1.6,7.4-5.1,8.5c-0.6,0.1-1.2,0.1-1.8,0
		c2.2-1.8,3.2-3.6,3.2-5.9c0-2.3-1.1-4.5-2.8-5.9c-1.4-1.2-3.2-1.6-4.9-1.2l0,0c0,0,0,0,0,0c0,0,0,0,0,0l0,0c-4,1-5.9,5.7-5.9,9.5
		c0,3.5,2.2,7,5.1,8.9C11.8,31.9,8.3,27.4,8.3,22z M21.6,17c1.5,1.2,2.4,3.1,2.4,5.1c0,2.1-1,3.8-3.3,5.5c-0.4-0.2-0.8-0.4-1.1-0.7
		c-1.5-1.2-2.4-3.1-2.4-5.1c0-2.4,1.2-4.4,3.3-5.6C20.8,16.5,21.2,16.7,21.6,17z M21.4,34.1c-4,0-8.9-4.3-9-9.5
		c0-3.5,1.6-7.7,5.1-8.6c0.5-0.1,1.1-0.2,1.6-0.1c-1.9,1.4-3,3.5-3,5.9c0,2.2,1.1,4.5,2.8,5.9c1.1,0.9,2.4,1.3,3.7,1.3
		c0.4,0,0.8,0,1.1-0.1c0,0,0.1,0,0.1,0c0,0,0,0,0,0c0,0,0,0,0,0l0,0c4-1.3,5.8-5.7,5.8-9.5c0-3-1.2-5.9-3.4-7.9
		c-0.1-0.1-0.3-0.2-0.4-0.4c4,2,6.7,6.1,6.7,10.9C32.6,28.4,27.7,33.7,21.4,34.1z"/>
</g>
</svg>
