<?xml version="1.0" encoding="utf-8"?>
<!-- Generator: Adobe Illustrator 21.0.0, SVG Export Plug-In . SVG Version: 6.00 Build 0)  -->
<svg version="1.1" id="图层_1" xmlns="http://www.w3.org/2000/svg" xmlns:xlink="http://www.w3.org/1999/xlink" x="0px" y="0px"
	 viewBox="0 0 48 48" style="enable-background:new 0 0 48 48;" xml:space="preserve">
<style type="text/css">
	.st0{fill:#060001;}
	.st1{fill:#040000;}
	.st2{fill:none;stroke:#000000;stroke-miterlimit:10;}
	.st3{fill:#221815;}
	.st4{fill:#080102;}
	.st5{fill:none;stroke:#000000;stroke-width:2;stroke-linecap:round;stroke-linejoin:round;stroke-miterlimit:10;}
	.st6{fill:#070001;}
</style>
<g>
	<path d="M34,2H14c-3.3,0-6,2.7-6,6v32c0,3.3,2.7,6,6,6h20c3.3,0,6-2.7,6-6V8C40,4.7,37.3,2,34,2z M38,40c0,2.2-1.8,4-4,4H14
		c-2.2,0-4-1.8-4-4V8c0-2.2,1.8-4,4-4h20c2.2,0,4,1.8,4,4V40z"/>
	<path d="M32.5,10.2h-17c-1.4,0-2.5,1.1-2.5,2.5s1.1,2.5,2.5,2.5h17c1.4,0,2.5-1.1,2.5-2.5S33.9,10.2,32.5,10.2z M32.5,14.2h-17
		c-0.8,0-1.5-0.7-1.5-1.5s0.7-1.5,1.5-1.5h17c0.8,0,1.5,0.7,1.5,1.5S33.3,14.2,32.5,14.2z"/>
	<path d="M32.5,17.2h-17c-1.4,0-2.5,1.1-2.5,2.5s1.1,2.5,2.5,2.5h17c1.4,0,2.5-1.1,2.5-2.5S33.9,17.2,32.5,17.2z M32.5,21.2h-17
		c-0.8,0-1.5-0.7-1.5-1.5s0.7-1.5,1.5-1.5h17c0.8,0,1.5,0.7,1.5,1.5S33.3,21.2,32.5,21.2z"/>
	<path d="M24,29.2c-2.2,0-4,1.8-4,4s1.8,4,4,4s4-1.8,4-4S26.2,29.2,24,29.2z M24,36.2c-1.7,0-3-1.3-3-3s1.3-3,3-3s3,1.3,3,3
		S25.7,36.2,24,36.2z"/>
</g>
</svg>
