<?xml version="1.0" encoding="utf-8"?>
<!-- Generator: Adobe Illustrator 22.1.0, SVG Export Plug-In . SVG Version: 6.00 Build 0)  -->
<svg version="1.1" id="图层_1" xmlns="http://www.w3.org/2000/svg" xmlns:xlink="http://www.w3.org/1999/xlink" x="0px" y="0px"
	 viewBox="0 0 132 132" style="enable-background:new 0 0 132 132;" xml:space="preserve">
<style type="text/css">
	.st0{fill:#252B3A;}
</style>
<path class="st0" d="M118.1,62.2c0,11.5-6.5,22.2-16.6,27.3c-2.7,1.4-5.8,2.1-9.2,2.1l-11.2,0.1c-1.4,0-2.5-1-2.5-2.4
	c-0.1-1.4,1-2.5,2.4-2.5l11.3,0.1c2.6,0,4.9-0.6,7-1.6c8.4-4.3,13.9-13.3,13.9-22.9c0-13.7-9.3-24.6-21.6-25.4
	c-1-0.1-1.9-0.8-2.2-1.7C86,25,76.8,18.4,66,18.4S46,25,42.6,35.2c-0.4,1-1.2,1.6-2.2,1.7c-11.9,0.9-21.6,12.3-21.6,25.4
	c0,10.7,6.7,20.3,16.6,23.9c1.5,0.5,3.3,0.8,5.3,0.8l11-0.2c1.4,0,2.5,1,2.5,2.4c0.1,1.4-1,2.5-2.4,2.5l-11.1,0.1h-0.1
	c-2.5,0-4.8-0.3-6.9-1.1c-11.8-4.3-19.8-15.8-19.8-28.5c0-15.1,10.9-28.2,24.6-30.1c4.4-11.4,15-18.7,27.5-18.7s23.1,7.3,27.6,18.8
	C107.7,34,118.1,46.6,118.1,62.2z M103.2,107.7v8.9c0,1.1-0.9,2-2,2H85.6c-1.1,0-2-0.9-2-2v-8.9c0-1.1,0.9-2,2-2h6.5V100
	c0-0.4-0.4-0.8-0.8-0.8H68v6.5h6.6c1.1,0,2,0.9,2,2v8.9c0,1.1-0.9,2-2,2H59c-1.1,0-2-0.9-2-2v-8.9c0-1.1,0.9-2,2-2h6.6v-6.5H42.3
	c-0.4,0-0.8,0.4-0.8,0.8v5.7H48c1.1,0,2,0.9,2,2v8.9c0,1.1-0.9,2-2,2H32.4c-1.1,0-2-0.9-2-2v-8.9c0-1.1,0.9-2,2-2h6.5V100
	c0-1.8,1.5-3.3,3.3-3.3h23.2V92c-1.9-0.6-3.3-2.3-3.3-4.4c0-2.5,2.1-4.6,4.6-4.6s4.6,2.1,4.6,4.6c0,2.1-1.4,3.8-3.3,4.4v4.7h23.4
	c1.8,0,3.3,1.5,3.3,3.3v5.6h6.5C102.3,105.6,103.1,106.5,103.2,107.7z M34.3,109.6v5H46v-5H34.3z M60.9,109.6v5h11.7v-5H60.9z
	 M68.7,87.5c0-1.1-0.9-2-2-2c-1.1,0-2,0.9-2,2s0.9,2,2,2C67.8,89.5,68.7,88.6,68.7,87.5z M99.2,109.6H87.5v5h11.7V109.6z M65.4,31.4
	c-0.1-0.1-0.2-0.2-0.3-0.2c-0.2-0.1-0.5-0.1-0.8,0c-0.1,0.1-0.2,0.1-0.3,0.2l-8.9,8.9c-0.4,0.4-0.4,1,0,1.4c0.4,0.4,1,0.4,1.4,0
	l7.2-7.2v11.6c0,0.2-0.2,0.4-0.4,0.4h-3.9c-0.5,0-1,0.4-1,1c0,0.5,0.4,1,1,1h3.9c1.3,0,2.4-1.1,2.4-2.4V34.4l7.2,7.2
	c0.2,0.2,0.4,0.3,0.7,0.3c0.3,0,0.5-0.1,0.7-0.3c0.4-0.4,0.4-1,0-1.4L65.4,31.4z M57.4,55.3l0.1,3.9c0,0.5,0.4,1,1,1
	c0.5,0,1-0.5,1-1l-0.1-3.9c0-1.3-1-2.3-2.4-2.3l-11.6,0.2l7-7.3c0.4-0.4,0.4-1,0-1.4c-0.4-0.4-1-0.4-1.4,0l-8.7,9
	c-0.1,0.1-0.2,0.2-0.2,0.3c0,0.1-0.1,0.2-0.1,0.4c0,0.1,0,0.3,0.1,0.4c0,0,0,0,0,0.1c0,0.1,0.1,0.2,0.2,0.2l9,8.7
	c0.2,0.2,0.4,0.3,0.7,0.3s0.5-0.1,0.7-0.3c0.4-0.4,0.4-1,0-1.4l-7.3-7L57,54.9C57.2,54.9,57.4,55.1,57.4,55.3z M64.7,76.2
	c0.2,0.1,0.2,0.2,0.3,0.2c0.1,0,0.2,0.1,0.4,0.1c0.1,0,0.1,0,0.2,0c0.1,0,0.1,0,0.2,0c0.1-0.1,0.2-0.1,0.3-0.2l8.5-9.2
	c0.4-0.4,0.3-1,0-1.4c-0.4-0.4-1-0.3-1.4,0l-6.9,7.4l-0.4-11.6c0-0.2,0.2-0.4,0.4-0.4l3.9-0.1c0.5,0,1-0.5,0.9-1c0-0.5-0.5-1-1-0.9
	l-3.9,0.1c-0.6,0-1.2,0.3-1.7,0.8c-0.4,0.5-0.7,1.1-0.6,1.7l0.4,11.6l-7.4-6.9c-0.4-0.4-1-0.3-1.4,0c-0.4,0.4-0.3,1,0,1.4L64.7,76.2
	z M71.9,52l-0.2-3.9c0-0.5-0.5-1-1-0.9c-0.5,0-1,0.5-0.9,1l0.2,3.9c0.1,1.3,1.1,2.3,2.4,2.3h0.1L84,53.8l-6.8,7.5
	c-0.4,0.4-0.3,1,0.1,1.4c0.2,0.2,0.4,0.3,0.7,0.3s0.5-0.1,0.7-0.3l8.4-9.3c0,0,0-0.1,0.1-0.1c0-0.1,0.1-0.1,0.1-0.2
	c0.1-0.2,0.1-0.5,0-0.8c-0.1-0.1-0.1-0.2-0.2-0.3l-9.3-8.4c-0.4-0.4-1-0.3-1.4,0.1C76,44,76,44.6,76.4,45l7.5,6.8l-11.6,0.6
	C72.1,52.4,71.9,52.2,71.9,52z"/>
</svg>
