<?xml version="1.0" encoding="utf-8"?>
<!-- Generator: Adobe Illustrator 21.0.0, SVG Export Plug-In . SVG Version: 6.00 Build 0)  -->
<svg version="1.1" id="图层_1" xmlns="http://www.w3.org/2000/svg" xmlns:xlink="http://www.w3.org/1999/xlink" x="0px" y="0px"
	 viewBox="0 0 48 48" style="enable-background:new 0 0 48 48;" xml:space="preserve">
<style type="text/css">
	.st0{fill:#060001;}
	.st1{fill:#040000;}
	.st2{fill:none;stroke:#000000;stroke-miterlimit:10;}
	.st3{fill:#221815;}
	.st4{fill:#080102;}
	.st5{fill:none;stroke:#000000;stroke-width:2;stroke-linecap:round;stroke-linejoin:round;stroke-miterlimit:10;}
	.st6{fill:#070001;}
</style>
<g>
	<path class="st0" d="M41.6,11L26.3,2.5c-1.3-0.7-3.4-0.7-4.7,0L6.4,11C5,11.8,4,13.5,4,15v18c0,1.5,1,3.2,2.4,4l15.3,8.5
		c0.6,0.4,1.5,0.6,2.3,0.6s1.7-0.2,2.3-0.6l15.3-8.5c1.3-0.7,2.4-2.5,2.4-4V15C44,13.5,43,11.8,41.6,11z M41.9,33
		c0,0.8-0.6,1.8-1.3,2.2l-15.3,8.5c-0.7,0.4-2,0.4-2.6,0L7.4,35.2c-0.7-0.4-1.3-1.4-1.3-2.2V15c0-0.8,0.6-1.8,1.3-2.2l15.3-8.5
		C23,4.1,23.5,4,24,4s1,0.1,1.3,0.3l15.3,8.5c0.7,0.4,1.3,1.4,1.3,2.2V33z"/>
	<path class="st0" d="M18.9,24c0-0.4-0.2-0.8-0.5-1.1l-5.2-5.1c-0.2-0.2-0.5-0.2-0.7,0c-0.2,0.2-0.2,0.5,0,0.7l5.2,5.1
		c0.1,0.1,0.2,0.2,0.2,0.4s-0.1,0.3-0.2,0.4l-5.2,5.1c-0.2,0.2-0.2,0.5,0,0.7c0.1,0.1,0.2,0.2,0.4,0.2c0.1,0,0.3-0.1,0.4-0.2
		l5.2-5.1C18.7,24.8,18.9,24.4,18.9,24z"/>
	<path class="st0" d="M25.1,29.4c-0.6-0.6-1.6-0.6-2.2,0l-5.2,5.1c-0.2,0.2-0.2,0.5,0,0.7c0.2,0.2,0.5,0.2,0.7,0l5.2-5.1
		c0.2-0.2,0.5-0.2,0.7,0l5.2,5.1c0.1,0.1,0.2,0.2,0.4,0.2s0.3-0.1,0.4-0.2c0.2-0.2,0.2-0.5,0-0.7L25.1,29.4z"/>
	<path class="st0" d="M35.5,18.5c0.2-0.2,0.2-0.5,0-0.7s-0.5-0.2-0.7,0l-5.2,5.1c-0.6,0.6-0.6,1.6,0,2.2l5.2,5.1
		c0.1,0.1,0.2,0.2,0.4,0.2s0.3-0.1,0.4-0.2c0.2-0.2,0.2-0.5,0-0.7l-5.2-5.1c-0.2-0.2-0.2-0.5,0-0.7L35.5,18.5z"/>
	<path class="st0" d="M22.9,18.5c0.3,0.3,0.7,0.4,1.1,0.4c0.4,0,0.8-0.2,1.1-0.4l5.2-5.1c0.2-0.2,0.2-0.5,0-0.7
		c-0.2-0.2-0.5-0.2-0.7,0l-5.2,5.1c-0.2,0.2-0.5,0.2-0.7,0l-5.2-5.1c-0.2-0.2-0.5-0.2-0.7,0s-0.2,0.5,0,0.7L22.9,18.5z"/>
</g>
</svg>
