<?xml version="1.0" encoding="utf-8"?>
<!-- Generator: Adobe Illustrator 21.0.0, SVG Export Plug-In . SVG Version: 6.00 Build 0)  -->
<svg version="1.1" id="图层_1" xmlns="http://www.w3.org/2000/svg" xmlns:xlink="http://www.w3.org/1999/xlink" x="0px" y="0px"
	 viewBox="0 0 48 48" style="enable-background:new 0 0 48 48;" xml:space="preserve">
<style type="text/css">
	.st0{fill:#060001;}
	.st1{fill:#040000;}
	.st2{fill:none;stroke:#000000;stroke-miterlimit:10;}
	.st3{fill:#221815;}
	.st4{fill:#080102;}
	.st5{fill:none;stroke:#000000;stroke-width:2;stroke-linecap:round;stroke-linejoin:round;stroke-miterlimit:10;}
	.st6{fill:#070001;}
</style>
<path d="M18.6,26.6l1.7-1.2l2.9,1.7l3.6-9.9l-11.5,5.1l2.6,1.8L18.6,26.6z M25,19.1l-2.4,6.5l-1.8-1.1c-0.2-0.1-0.3-0.1-0.5-0.1
	c-0.2,0-0.4,0.1-0.6,0.2L19.1,25l-0.4-1.2c-0.1-0.2-0.2-0.4-0.4-0.5l-1.1-0.8L25,19.1z M3,27.5c0.5,0,0.9-0.4,1-0.9
	c0.1-0.9,0.3-1.9,0.7-2.7c0.4-0.9,0.9-1.7,1.5-2.5c0.3-0.4,0.3-1.1-0.1-1.4c-0.4-0.3-1.1-0.3-1.4,0.1c-0.7,0.9-1.3,1.9-1.8,3
	c-0.4,1-0.7,2.1-0.8,3.3c-0.1,0.5,0.3,1,0.9,1.1C2.9,27.5,3,27.5,3,27.5z M6.6,34.5c-0.4-0.5-0.9-1-1.2-1.6c-0.4-0.7-0.8-1.5-1-2.3
	c-0.2-0.5-0.7-0.8-1.2-0.7c-0.5,0.2-0.8,0.7-0.7,1.2c0.3,1,0.7,1.9,1.2,2.7c0.4,0.7,0.9,1.3,1.4,1.9c0.4,0.5,0.9,0.9,1.4,1.4
	c0.2,0.1,0.4,0.2,0.6,0.2c0.3,0,0.6-0.1,0.8-0.4c0.3-0.4,0.3-1.1-0.2-1.4S7,34.9,6.6,34.5z M46,27.7c0-6-4.5-11.1-10.5-12.1
	C33.6,11,29.1,8,24,8s-9.7,3-11.6,7.6c-1.5,0.2-2.9,0.7-4.2,1.5c-0.5,0.3-0.7,0.9-0.4,1.4c0.3,0.5,0.9,0.7,1.4,0.4
	c1.3-0.7,2.6-1.1,4.1-1.3c0.4,0,0.7-0.3,0.8-0.7c1.5-4.1,5.4-6.9,9.9-6.9s8.4,2.8,9.9,6.9c0.1,0.4,0.5,0.6,0.8,0.7
	C40,18.1,44,22.5,44,27.7c0,5.6-4.7,10.2-10.5,10.2h-7.6c-3.9-0.5-6.9-3.8-6.9-7.7c0-0.7,0.1-1.4,0.3-2.1l-1.9-0.5
	c-0.2,0.9-0.4,1.8-0.4,2.7c0,4.8,3.4,8.7,8,9.6c0.1,0.1,0.3,0.1,0.5,0.1h0.4c0.3,0,0.7,0.1,1.1,0.1v-0.1H27c0.1,0,0.1,0,0.2,0h7.1
	c0,0,0.1,0,0.1,0l0-0.1C40.9,39.4,46,34.1,46,27.7z M18,37.9h-3.6c-1.1,0-2.1-0.2-3.2-0.5c-0.5-0.2-1.1,0.1-1.3,0.7
	c-0.2,0.5,0.1,1.1,0.7,1.3c1.2,0.4,2.5,0.6,3.8,0.6H18c0.6,0,1-0.4,1-1S18.5,37.9,18,37.9z"/>
</svg>
