<svg id="图层_1" data-name="图层 1" xmlns="http://www.w3.org/2000/svg" viewBox="0 0 30.33 21.73"><title>AI资产</title><path id="Fill-1" d="M29.47,26.4a.87.87,0,1,1,0-1.73.82.82,0,0,1,.86.8.94.94,0,0,1-.86.93ZM23.93,8.6l4.54,15.73L20.13,17.2Zm-4.86,7.67L16.4,14l5.8-4.8Zm-3.34,7.6L12.8,17l3.07-2.6,2.86,2.47Zm.14,2.53a.87.87,0,1,1,.86-.87.88.88,0,0,1-.86.87ZM9.27,8.73,15.4,14l-2.87,2.4Zm-6,15.4L7.87,8.87l3.6,8.4ZM2.2,26.4a.87.87,0,1,1,0-1.73.87.87,0,1,1,0,1.73ZM7.67,6a.87.87,0,1,1-.87.87A.88.88,0,0,1,7.67,6ZM24,6a.87.87,0,1,1-.87.87A.88.88,0,0,1,24,6Zm5.73,17.93q-1.59-5.49-4.6-16a1.47,1.47,0,0,0,.4-1.06A1.51,1.51,0,0,0,24,5.33a1.55,1.55,0,0,0-1.53,1.54,1.6,1.6,0,0,0,.33.93l-6.87,5.73L9,7.67a1.39,1.39,0,0,0,.2-.74,1.54,1.54,0,0,0-3.07-.06,1.56,1.56,0,0,0,.54,1.2C4.6,15,3.07,20.27,1.93,23.93A1.53,1.53,0,0,0,.67,25.47,1.51,1.51,0,0,0,2.2,27a1.54,1.54,0,0,0,1.53-1.53,1.3,1.3,0,0,0-.2-.74l8.2-6.8c1.27,2.87,2.2,5.14,2.87,6.67a1.54,1.54,0,0,0-.27.93,1.52,1.52,0,0,0,1.54,1.54,1.56,1.56,0,0,0,1.53-1.54,1.47,1.47,0,0,0-.4-1.06c.67-1.54,1.67-3.74,2.87-6.6l8.2,7a1.87,1.87,0,0,0-.14.6,1.54,1.54,0,1,0,1.8-1.54Z" transform="translate(-0.67 -5.33)"/></svg>