<svg xmlns="http://www.w3.org/2000/svg" xmlns:xlink="http://www.w3.org/1999/xlink" viewBox="0 0 482.1 271.74"><defs><style>.cls-1,.cls-13{fill:none;}.cls-2{clip-path:url(#clip-path);}.cls-3{fill:#f3f6ff;}.cls-4{fill:#d0d7f1;}.cls-5{fill:#818ac3;}.cls-6{fill:#d0d7ee;}.cls-7{fill:#6a73a8;}.cls-8{fill:#bac1e3;}.cls-9{fill:#b4bce1;}.cls-10{fill:#fff;}.cls-11{fill:#8088c2;}.cls-12{fill:#cfd6ee;}.cls-13{stroke:#cfd6ee;stroke-miterlimit:10;stroke-width:0.17px;}.cls-14{fill:#e6eaf7;}.cls-15{fill:#838bc5;}.cls-16{fill:#d1d8f2;}.cls-17{fill:#e8ecf9;}.cls-18{fill:#6973a8;}.cls-19{fill:#bbc3ea;}.cls-20{fill:#b4bde4;}.cls-21{fill:#828ac4;}</style><clipPath id="clip-path" transform="translate(0 2.14)"><rect class="cls-1" width="480" height="268.65"/></clipPath></defs><g id="Layer_2" data-name="Layer 2"><g id="homeoffice"><g class="cls-2"><g id="Layer_2-2" data-name="Layer 2"><g id="Layer_1-2" data-name="Layer 1-2"><rect class="cls-3" width="482.1" height="270.04"/><rect class="cls-4" y="225.1" width="482.1" height="46.64"/></g></g><g id="Layer_2-3" data-name="Layer 2"><g id="Layer_1-2-2" data-name="Layer 1-2"><path class="cls-1" d="M81,211.51c.84.35,1.73.68,2.65,1l-.33-2.41C82.5,210.59,81.72,211.07,81,211.51Z" transform="translate(0 2.14)"/><path class="cls-1" d="M77.87,213.76a26.39,26.39,0,0,0,7,7.53l-1.14-8.38c-1.1-.37-2.13-.75-3.08-1.15C79.18,212.73,78.21,213.49,77.87,213.76Z" transform="translate(0 2.14)"/><path class="cls-5" d="M100.93,215.82c1.1.09,2.19.16,3.28.2a63.54,63.54,0,0,0,8.28-.11l.2-1.91A22.72,22.72,0,0,0,100.93,215.82Z" transform="translate(0 2.14)"/><path class="cls-5" d="M104.19,216.4c-1.29-.06-2.59-.15-3.88-.26a15.13,15.13,0,0,0-3.14,2.25,17.66,17.66,0,0,0-4.4,6.88,41.48,41.48,0,0,0,18.55,1.5c0-.21.06-.41.08-.62l1-9.87A67,67,0,0,1,104.19,216.4Z" transform="translate(0 2.14)"/><path class="cls-5" d="M92.42,225.15a17.83,17.83,0,0,1,4.5-7,15.24,15.24,0,0,1,2.74-2A76,76,0,0,1,83.93,213l-.18-.06,1.14,8.38A29.47,29.47,0,0,0,92.42,225.15Z" transform="translate(0 2.14)"/><path class="cls-5" d="M91.11,206.46a49.68,49.68,0,0,0-7.75,3.63l.33,2.41a73.46,73.46,0,0,0,16.53,3.26,22.62,22.62,0,0,1,12.51-2.13l.77-7.23A30.44,30.44,0,0,0,91.11,206.46Z" transform="translate(0 2.14)"/><path class="cls-5" d="M92.29,225.5A29.73,29.73,0,0,1,85,221.79l.64,4.71a8.52,8.52,0,0,0,5.24,6.75c0-.88.13-1.85.28-2.87A27.31,27.31,0,0,1,92.29,225.5Z" transform="translate(0 2.14)"/><path class="cls-5" d="M107.94,202.86a41.32,41.32,0,0,1-19.48-7.93H81.3l2,14.76A49.08,49.08,0,0,1,91,206.11a34.63,34.63,0,0,1,13.33-2.2,26.52,26.52,0,0,1,9.24,2.1l.29-2.8A43.16,43.16,0,0,1,107.94,202.86Z" transform="translate(0 2.14)"/><path class="cls-5" d="M92.65,225.62a25.93,25.93,0,0,0-1.16,4.81c-.15,1.06-.24,2.06-.28,3a8.54,8.54,0,0,0,2.83.48h8.88a8.53,8.53,0,0,0,8.33-6.72A41.7,41.7,0,0,1,92.65,225.62Z" transform="translate(0 2.14)"/><path class="cls-5" d="M113.88,202.82l.84-7.89H89.09A41,41,0,0,0,113.88,202.82Z" transform="translate(0 2.14)"/><path class="cls-6" d="M94.62,198.76a41.56,41.56,0,0,0,13.32,4.1,43.06,43.06,0,0,0,5.9.35l0-.39a41,41,0,0,1-24.79-7.88h-.63A41.59,41.59,0,0,0,94.62,198.76Z" transform="translate(0 2.14)"/><path class="cls-6" d="M91,206.11a49.08,49.08,0,0,0-7.67,3.58l0,.4a49.68,49.68,0,0,1,7.75-3.63,30.44,30.44,0,0,1,22.39-.06l0-.39a26.41,26.41,0,0,0-9.23-2.1A34.63,34.63,0,0,0,91,206.11Z" transform="translate(0 2.14)"/><path class="cls-6" d="M92.77,225.27a17.66,17.66,0,0,1,4.4-6.88,15.13,15.13,0,0,1,3.14-2.25c1.29.11,2.59.2,3.88.26a67,67,0,0,0,8.26-.12l0-.37a63.54,63.54,0,0,1-8.28.11c-1.09,0-2.18-.11-3.28-.2A22.72,22.72,0,0,1,112.69,214l0-.37a22.62,22.62,0,0,0-12.51,2.13,73.46,73.46,0,0,1-16.53-3.26l.06.41.18.06a76,76,0,0,0,15.73,3.11,14.78,14.78,0,0,0-2.74,2,17.83,17.83,0,0,0-4.5,7,29.19,29.19,0,0,1-7.53-3.87l.07.51a29.73,29.73,0,0,0,7.33,3.71,27.31,27.31,0,0,0-1.17,4.88c-.15,1-.23,2-.28,2.87l.37.13c0-.89.13-1.89.28-2.95a25.93,25.93,0,0,1,1.16-4.81,41.7,41.7,0,0,0,18.6,1.53c0-.13,0-.25.07-.38A41.48,41.48,0,0,1,92.77,225.27Z" transform="translate(0 2.14)"/><path class="cls-7" d="M41.52,129.76l-.26-.62c.13-.06,13.17-5.54,15.56-13.21a8.23,8.23,0,0,0-1.16-7.18c-4.78-7.37-6.27-13.91-4.09-17.93,1.5-2.75,4.68-4.21,9.2-4.21a28.55,28.55,0,0,1,6.36,1c5.36,1.29,10.41,2.52,12.75-4.33A25.15,25.15,0,0,1,87.2,73.08a32.22,32.22,0,0,1,5.08-3.68l.33.59a32.07,32.07,0,0,0-5,3.61,24.47,24.47,0,0,0-7.11,10c-1.55,4.53-4.23,5.79-7.32,5.79a27.4,27.4,0,0,1-6.23-1,28.29,28.29,0,0,0-6.2-1c-4.26,0-7.23,1.34-8.6,3.86-2.07,3.8-.58,10.08,4.06,17.24a8.87,8.87,0,0,1,1.23,7.75c-1,3.36-4.05,6.68-8.93,9.86A48.27,48.27,0,0,1,41.52,129.76Z" transform="translate(0 2.14)"/><path class="cls-5" d="M41.57,134.18a2.29,2.29,0,0,1-1.09-.27h0a2.38,2.38,0,0,1-1-3.21L62.08,87.15a2.38,2.38,0,1,1,4.27,2.12l0,.07L43.69,132.89A2.39,2.39,0,0,1,41.57,134.18ZM40.94,133a1.37,1.37,0,0,0,1.85-.58L65.41,88.88A1.37,1.37,0,0,0,63,87.61h0L40.36,131.16a1.37,1.37,0,0,0,.58,1.85Z" transform="translate(0 2.14)"/><rect class="cls-5" x="25.19" y="106.69" width="52.83" height="3.76" rx="1.25" transform="translate(-68.53 106.47) rotate(-62.55)"/><path class="cls-5" d="M64.36,88.61A1.53,1.53,0,0,1,63,87.76l-.2-.41a1.54,1.54,0,0,1,.69-2L93.15,70.61a1.54,1.54,0,0,1,2,.69h0l.2.41a1.54,1.54,0,0,1-.69,2.05L65,88.45A1.58,1.58,0,0,1,64.36,88.61ZM63.7,86.9l.2.41a.52.52,0,0,0,.69.23h0L94.26,72.85a.5.5,0,0,0,.23-.69l-.2-.41a.51.51,0,0,0-.69-.23h0L63.93,86.21a.52.52,0,0,0-.23.69Z" transform="translate(0 2.14)"/><rect class="cls-5" x="60.59" y="76.91" width="35.15" height="2.5" rx="0.83" transform="translate(-26.57 44.94) rotate(-26.34)"/><circle class="cls-6" cx="63.69" cy="88.51" r="4.08"/><rect class="cls-6" x="86.96" y="62.95" width="2.16" height="4.82" transform="translate(-20.42 83.63) rotate(-45.05)"/><polygon class="cls-5" points="90.91 76.97 97.51 70.36 91.69 65.84 86.38 71.17 90.91 76.97"/><rect class="cls-7" x="91.68" y="66.44" width="0.79" height="5.97" transform="translate(-22.11 87.69) rotate(-45.05)"/><polygon class="cls-7" points="91.75 76.13 92.31 75.57 88.46 70.97 87.9 71.53 91.75 76.13"/><polygon class="cls-7" points="96.64 71.23 96.08 71.79 91.47 67.96 92.03 67.4 96.64 71.23"/><path class="cls-5" d="M90.18,74.15l6.65-6.66a9.39,9.39,0,0,1,13.3,0l9.74,9.71h0l-19.94,20h0l-9.74-9.72A9.41,9.41,0,0,1,90.18,74.15Z" transform="translate(0 2.14)"/><path class="cls-6" d="M33.66,127.28H48.53A2.72,2.72,0,0,1,51.25,130h0v1.36H30.94V130a2.72,2.72,0,0,1,2.72-2.73Z" transform="translate(0 2.14)"/><path class="cls-7" d="M24.75,129.52H56.11a3.5,3.5,0,0,1,3.5,3.5h0v1.75H21.25V133A3.5,3.5,0,0,1,24.75,129.52Z" transform="translate(0 2.14)"/><path class="cls-8" d="M9.35,137.54v97H19.48v-.09A2.5,2.5,0,0,1,22,232H54.24a2.5,2.5,0,0,1,2.51,2.5H67.84V152.3a4.72,4.72,0,0,1,4.72-4.73H276.78A4.73,4.73,0,0,1,281.5,152L286,234.48l5.34.09v-97Z" transform="translate(0 2.14)"/><rect class="cls-7" x="3.09" y="137.19" width="292.96" height="5.72"/></g></g><g id="Layer_2-4" data-name="Layer 2"><g id="Layer_1-2-3" data-name="Layer 1-2"><path class="cls-7" d="M474.42,41.54H366.86a3.37,3.37,0,0,0-3.37,3.37h0V233.55h3.37v-33a10.35,10.35,0,0,1,10.35-10.34h86.86a10.35,10.35,0,0,1,10.35,10.34h0v33h3.38V44.91A3.38,3.38,0,0,0,474.42,41.54ZM366.86,135.29H474.42V158.8H366.86Zm0-3.94V107.84H474.42v23.51Zm0-27.45V80.39H474.42V103.9Zm0,82.35V162.74H474.42v23.51ZM474.42,76.45H366.86V51.11H474.42Z" transform="translate(0 2.14)"/></g></g><g id="Layer_2-5" data-name="Layer 2"><g id="Layer_1-2-4" data-name="Layer 1-2"><path class="cls-9" d="M184.87,132.73l-4.65-11.61h-17.7l5,12.57H156.29a3.14,3.14,0,0,0-2.61,1.4h29.8a1.74,1.74,0,0,0,1.5-1.92A2.09,2.09,0,0,0,184.87,132.73Z" transform="translate(0 2.14)"/><path class="cls-5" d="M212.6,78.46v44.22a4,4,0,0,1-4,4H134.81a4,4,0,0,1-4-4V78.46a2.4,2.4,0,0,1,2.39-2.4h77a2.39,2.39,0,0,1,2.39,2.39Z" transform="translate(0 2.14)"/><path class="cls-7" d="M212.6,117.8v4.88a4,4,0,0,1-4,4H134.81a4,4,0,0,1-4-4V117.8Z" transform="translate(0 2.14)"/><rect class="cls-6" x="134.96" y="83.22" width="73.46" height="32.84"/><rect class="cls-6" x="167.8" y="121.06" width="7.79" height="5.57" rx="0.83"/><rect class="cls-9" x="138.45" y="86.27" width="27.77" height="8.94"/><rect class="cls-10" x="143.4" y="91.21" width="40.49" height="22.36"/><rect class="cls-7" x="178.47" y="88.15" width="22.83" height="15.77"/></g></g><g id="Layer_2-6" data-name="Layer 2"><g id="Layer_1-2-5" data-name="Layer 1-2"><rect class="cls-11" x="157.36" y="200.96" width="1.45" height="34.41"/><path class="cls-11" d="M160.47,209.57h-4.76a1.25,1.25,0,0,1-1.25-1.25h0v-9.5h7.26v9.5a1.25,1.25,0,0,1-1.25,1.25Z" transform="translate(0 2.14)"/><path class="cls-11" d="M163.89,234.8H152.28v-4.53a1.38,1.38,0,0,1,1.39-1.38h8.84a1.38,1.38,0,0,1,1.38,1.38v4.53Z" transform="translate(0 2.14)"/><path class="cls-11" d="M141,200.43h34.15a1.14,1.14,0,0,0,.71-.25h0a1.38,1.38,0,0,0,.22-1.93,1.36,1.36,0,0,0-.93-.51H141a1.37,1.37,0,0,0-.54,2.55h0A1.11,1.11,0,0,0,141,200.43Z" transform="translate(0 2.14)"/><ellipse class="cls-11" cx="181.79" cy="244.47" rx="2.9" ry="3.23"/><ellipse class="cls-11" cx="134.38" cy="244.47" rx="2.9" ry="3.23"/><ellipse class="cls-11" cx="145.03" cy="244.47" rx="2.9" ry="3.23"/><ellipse class="cls-11" cx="163.89" cy="244.47" rx="2.9" ry="3.23"/><rect class="cls-12" x="130.27" y="235.31" width="55.63" height="7.53"/><path class="cls-11" d="M141,200.09h34.15a1.14,1.14,0,0,0,.71-.25h0a1.38,1.38,0,0,0,.22-1.93,1.4,1.4,0,0,0-.93-.51H141a1.37,1.37,0,0,0-.54,2.55h0A1.11,1.11,0,0,0,141,200.09Z" transform="translate(0 2.14)"/><path class="cls-11" d="M124.61,186a13.28,13.28,0,0,0,.18,2.27,11.64,11.64,0,0,0,4.64,7.81,8.06,8.06,0,0,0,4.62,1.46h35.43c3.08,0,5.39-3.42,4.78-7.1l-.86-5.24-4.2-52.71c-.49-6.16-4.75-10.86-9.83-10.86H134.71c-5.08,0-9.33,4.7-9.82,10.86,0,0,0,.12,0,.34C124.86,136.46,124.68,168.38,124.61,186Z" transform="translate(0 2.14)"/><rect class="cls-13" x="138.88" y="140.76" width="26.3" height="1.85"/><rect class="cls-13" x="138.88" y="149.03" width="26.3" height="1.85"/><rect class="cls-13" x="138.88" y="157.3" width="26.3" height="1.85"/><rect class="cls-13" x="138.88" y="165.57" width="26.3" height="1.85"/><rect class="cls-13" x="138.88" y="173.84" width="26.3" height="1.85"/><rect class="cls-13" x="138.88" y="182.11" width="26.3" height="1.85"/><path class="cls-11" d="M135,197.54h56.78c-1.37-5.51-5.54-9.28-10.27-9.28H135Z" transform="translate(0 2.14)"/><path class="cls-12" d="M127,193.67a2.48,2.48,0,0,1-.19-.26l-.12-.18-.18-.28-.1-.16-.25-.44-.09-.17-.15-.31-.1-.21c0-.09-.09-.19-.13-.29l-.09-.21c0-.11-.09-.23-.13-.35l-.06-.16c-.06-.17-.12-.33-.17-.5l-.06-.2c0-.11-.07-.23-.1-.35a1.6,1.6,0,0,1,0-.21l-.09-.37c0-.06,0-.12,0-.19s-.07-.37-.1-.56a13.28,13.28,0,0,1-.18-2.27c.07-17.62.25-49.54.27-53.17a9.57,9.57,0,0,1,7,3.69,14.09,14.09,0,0,1,3,8.91V181c0,4,2.67,7.27,6,7.27h10a9.57,9.57,0,0,1,6.4,2.57,13.34,13.34,0,0,1,3.86,6.7H134.05a8.14,8.14,0,0,1-4.62-1.46h0l0,0a8,8,0,0,1-.8-.61l-.09-.09-.28-.25-.12-.12c-.09-.08-.17-.17-.26-.26l-.1-.11-.33-.38-.06-.07-.26-.33Z" transform="translate(0 2.14)"/><rect class="cls-11" x="160.48" y="235.43" width="25.06" height="7.55"/><rect class="cls-11" x="129.75" y="235.43" width="12.26" height="7.55"/><rect class="cls-14" x="181.33" y="235.43" width="4.21" height="7.55"/><rect class="cls-14" x="138.61" y="235.43" width="4.21" height="7.55"/></g></g><g id="Layer_2-7" data-name="Layer 2"><g id="Layer_1-2-6" data-name="Layer 1-2"><path class="cls-15" d="M336.45,210.93l4.76-23.31-.17,0,6.59-32.24a23.53,23.53,0,0,1,.73-2.74l.06-.29h0a21.18,21.18,0,0,1,11.37-12.61L371,134.82c-2.91,24-19.87,22.52-20.26,38.5-.3,12.25-5.84,14.11-8.4,14.31l-4.81,23.58Z" transform="translate(0 2.14)"/><path class="cls-15" d="M340.8,151.53h0a13,13,0,0,1,0-8.9c1.5-4.15,2.65-11.8-1.88-23.15l-6.31,6.89a21.31,21.31,0,0,0-5.05,18.23l6,20.39a18.83,18.83,0,0,1-.45,11.89h0a14.59,14.59,0,0,0,.66,11.82l2.15,4.17-1.16,16.42.81.06,1.2-17.19L341,180.47A42.63,42.63,0,0,0,340.8,151.53Z" transform="translate(0 2.14)"/><path class="cls-16" d="M317.05,128.58a91.82,91.82,0,0,1,11.3,21h0a14.55,14.55,0,0,1,.55,8.51l-2.38,10a23.49,23.49,0,0,0-.15,10.22l2.76,13.29L336,206.65l-.72.38-6.36-14-5.8-7.48a27.41,27.41,0,0,1-4.83-23h0a9.18,9.18,0,0,0-.31-5.24l-1.48-4a33.22,33.22,0,0,1-1.78-15.65L316,127.15Z" transform="translate(0 2.14)"/><path class="cls-16" d="M349.14,147a67.92,67.92,0,0,0-7.82,15.9h0a10.79,10.79,0,0,0-.18,6.34l2,7.37a17.38,17.38,0,0,1,.39,7.59l-1.69,10-4.67,11.38.55.26,4.35-10.59,4.1-5.72a20.39,20.39,0,0,0,3-17.24h0a6.73,6.73,0,0,1,.08-3.9l1-3a24.75,24.75,0,0,0,.9-11.68l-1.28-7.75Z" transform="translate(0 2.14)"/><path class="cls-15" d="M331.22,203.64l-6.51-15.23.11,0-9-21.06a16.2,16.2,0,0,0-.88-1.77l-.09-.19h0a14.61,14.61,0,0,0-9.57-6.93l-8.34-1.7c5.33,16,16.78,12.45,19.27,23.32,1.91,8.33,6,8.78,7.76,8.54l6.58,15.4Z" transform="translate(0 2.14)"/><path class="cls-16" d="M344.65,202.64V232.9a11.75,11.75,0,0,0,3-1.92V202.64Z" transform="translate(0 2.14)"/><path class="cls-16" d="M330.1,202.64v31.25c.23,0,.46,0,.69,0h2.34V202.64Z" transform="translate(0 2.14)"/><path class="cls-16" d="M341,202.64v31.22a11.8,11.8,0,0,0,3-.71V202.64Z" transform="translate(0 2.14)"/><path class="cls-16" d="M337.38,202.64v31.27h3V202.64Z" transform="translate(0 2.14)"/><rect class="cls-16" x="333.74" y="204.79" width="3.03" height="31.27"/><path class="cls-16" d="M322.82,202.64v28.21a11.68,11.68,0,0,0,3,2v-30.2Z" transform="translate(0 2.14)"/><polygon class="cls-16" points="316.13 204.78 318.57 222.8 318.57 204.78 316.13 204.78"/><path class="cls-16" d="M319.18,202.64v22.07a11.88,11.88,0,0,0,3,5.56V202.64Z" transform="translate(0 2.14)"/><path class="cls-16" d="M326.46,202.64V233.1a11.68,11.68,0,0,0,3,.74v-31.2Z" transform="translate(0 2.14)"/><path class="cls-16" d="M348.29,202.64v27.77a12,12,0,0,0,3-5.18V202.64Z" transform="translate(0 2.14)"/><polygon class="cls-16" points="354.37 204.78 351.93 204.78 351.93 223.7 354.37 204.78"/><path class="cls-17" d="M351.93,221.55V202.64h-.6v22.59a12.48,12.48,0,0,0,.35-1.72Z" transform="translate(0 2.14)"/><path class="cls-17" d="M347.69,202.64V231l.6-.57V202.64Z" transform="translate(0 2.14)"/><path class="cls-17" d="M344.05,202.64v30.51l.6-.25V202.64Z" transform="translate(0 2.14)"/><path class="cls-17" d="M340.41,202.64V233.9l.6,0V202.64Z" transform="translate(0 2.14)"/><rect class="cls-17" x="336.77" y="204.79" width="0.61" height="31.27"/><rect class="cls-17" x="333.13" y="204.79" width="0.61" height="31.27"/><path class="cls-17" d="M329.49,202.64v31.2l.61,0V202.64Z" transform="translate(0 2.14)"/><path class="cls-17" d="M325.85,202.64v30.2l.61.26V202.64Z" transform="translate(0 2.14)"/><path class="cls-17" d="M322.21,202.64v27.63c.2.2.4.4.61.58V202.64Z" transform="translate(0 2.14)"/><path class="cls-17" d="M318.58,202.64v18l.39,2.94a10.52,10.52,0,0,0,.21,1.12V202.64Z" transform="translate(0 2.14)"/></g></g><g id="Layer_2-8" data-name="Layer 2"><g id="Layer_1-2-7" data-name="Layer 1-2"><path class="cls-16" d="M337.52,64.47H315.67a1.57,1.57,0,0,1-1.57-1.57h0V44.39a1.57,1.57,0,0,1,1.57-1.57h21.85a1.57,1.57,0,0,1,1.57,1.57h0V62.9A1.58,1.58,0,0,1,337.52,64.47Zm-20.28-3.14H336V46H317.24Z" transform="translate(0 2.14)"/><path class="cls-16" d="M346.79,40.32H318.33a2.66,2.66,0,0,1-2.66-2.66V12.44a2.66,2.66,0,0,1,2.66-2.66h28.46a2.66,2.66,0,0,1,2.66,2.66V37.66A2.66,2.66,0,0,1,346.79,40.32ZM321,35h23.14V15.09H321Z" transform="translate(0 2.14)"/><path class="cls-16" d="M309.33,9.78V72.1h-49V9.78h49M263.41,69h42.81V12.89H263.41V69M309.33,7.16h-49a2.62,2.62,0,0,0-2.62,2.62h0V72.1a2.62,2.62,0,0,0,2.62,2.62h49a2.62,2.62,0,0,0,2.61-2.62h0V9.78a2.61,2.61,0,0,0-2.61-2.62ZM266,15.51H303.6V66.37H266Z" transform="translate(0 2.14)"/><rect class="cls-3" x="266.93" y="18.33" width="35.53" height="49.59"/><path class="cls-16" d="M309.33,9.78V72.1h-49V9.78h49M263.41,69h42.81V12.89H263.41V69M309.33,7.16h-49a2.62,2.62,0,0,0-2.62,2.62h0V72.1a2.62,2.62,0,0,0,2.62,2.62h49a2.62,2.62,0,0,0,2.61-2.62h0V9.78a2.61,2.61,0,0,0-2.61-2.62ZM266,15.51H303.6V66.37H266Z" transform="translate(0 2.14)"/><rect class="cls-3" x="266.93" y="18.33" width="35.53" height="49.59"/></g></g><g id="Layer_2-9" data-name="Layer 2"><g id="Layer_1-2-8" data-name="Layer 1-2"><rect class="cls-5" x="226.41" y="106.99" width="40.28" height="29.86" rx="0.89"/><path class="cls-7" d="M213.12,133.52h53.57V134a1.16,1.16,0,0,1-1.16,1.17H212v-.5a1.16,1.16,0,0,1,1.16-1.16Z" transform="translate(0 2.14)"/><rect class="cls-6" x="227.83" y="108.65" width="36.97" height="25.83"/><rect class="cls-7" x="237.89" y="112.85" width="25.47" height="17.78"/><rect class="cls-9" x="229.82" y="119.45" width="16.68" height="13.2"/></g></g><g id="Layer_2-10" data-name="Layer 2"><g id="Layer_1-2-9" data-name="Layer 1-2"><rect class="cls-15" x="426.41" y="199.16" width="38.87" height="31.14"/><rect class="cls-18" x="423.53" y="196.15" width="44.62" height="6.02"/><rect class="cls-19" x="430.99" y="214.33" width="29.71" height="12.3"/><rect class="cls-17" x="439.43" y="208.84" width="12.82" height="2.09"/></g></g><g id="Layer_2-11" data-name="Layer 2"><g id="Layer_1-2-10" data-name="Layer 1-2"><g id="Accessories_bonsai_01" data-name="Accessories bonsai 01"><g id="Group"><path id="Path" class="cls-18" d="M389.52,97.43a1.67,1.67,0,0,0-1.82-.56l-.51.16a1.79,1.79,0,0,1-1.43-.15h0a.81.81,0,0,1-.29-1.1l.06-.09.62-.21a1.11,1.11,0,0,0,.7-1.42s0-.07,0-.11h0l-2-4.19-.65.32L385,92.4a.52.52,0,0,1-.3.67.5.5,0,0,1-.36,0l-1.66-.59-1.82-.91a3.26,3.26,0,0,1-1.76-2.32h0a2.82,2.82,0,0,0-1-1.7L377,86.68l-.45.57.92.71a2.82,2.82,0,0,1,1,1.7v.08a3.32,3.32,0,0,0,1.77,2.33l2.29,1.15,1,.56a.8.8,0,0,1,.32,1.09l-.1.14h0l-2.18,2.46-2.44-1.25a1.77,1.77,0,0,0-2.3.6l-.95,1.42.6.4.59-.89a1.78,1.78,0,0,1,2.3-.59l2.37,1.21.6-.31,1.44.43,4-.1,1.68.22.57-.45Z" transform="translate(0 2.14)"/><path id="Path-2" class="cls-18" d="M386.6,89.11l-.4-.47,1.28-1.07A9.21,9.21,0,0,0,390,85l0,.27A8.13,8.13,0,0,1,387.88,88Z" transform="translate(0 2.14)"/><path id="Path-3" class="cls-20" d="M393.74,100,392.5,98.8a2.07,2.07,0,0,0-1-.54l-4.78-1a3.14,3.14,0,0,0-.68-.07h-3.31a3.2,3.2,0,0,1-1.14-.21l-.84-.31a2,2,0,0,0-1.16,0l-2.51.67-.86.33a2.86,2.86,0,0,0-1.83,2.67h0Z" transform="translate(0 2.14)"/><polygon id="Path-4" class="cls-18" points="398.19 101.15 370.17 101.15 370.17 101.88 373.89 101.88 373.89 104.87 377.61 104.87 377.61 106.11 379.48 106.11 379.48 104.87 389.3 104.87 389.3 106.11 391.16 106.11 391.16 104.87 394.46 104.87 394.46 101.88 398.19 101.88 398.19 101.15"/><rect id="Rectangle" class="cls-21" x="373.89" y="101.87" width="20.57" height="1.03"/><path id="Path-5" class="cls-21" d="M397.77,91.87s.52-2.89-2-1.55-.72-4.44-6.1-2.48-4.46-5.33-7.75.21c-2.28,3.82-2,.31-5.17,3,0,0-1.14-2.69-2.9.82Z" transform="translate(0 2.14)"/><path id="Path-6" class="cls-21" d="M381.52,88.15s.26-1.45-1-.78.09-1.34-2.61-.35c0,0-1.86-3.82-3.51-1-1.14,1.92-1-.11-2.59,1.24,0,0-1.4-.83-2.29.93Z" transform="translate(0 2.14)"/><path id="Path-7" class="cls-21" d="M393.74,85.57a1.11,1.11,0,0,0-1.38-.75,1,1,0,0,0-.27.13c-1.09.54-.43-1.22-2.06-1a1.85,1.85,0,0,0-1.08.53,1.42,1.42,0,0,1-1.41.29,1.37,1.37,0,0,0-1.66.83Z" transform="translate(0 2.14)"/><path id="Path-8" class="cls-20" d="M396.74,92.49a1.86,1.86,0,0,0-2.32-1.25,2,2,0,0,0-.47.21c-1.83.92-.72-2.06-3.48-1.74a3.16,3.16,0,0,0-1.81.9,2.41,2.41,0,0,1-2.38.49,2.3,2.3,0,0,0-2.79,1.39Z" transform="translate(0 2.14)"/></g></g></g></g><g id="Layer_2-12" data-name="Layer 2"><g id="Layer_1-2-11" data-name="Layer 1-2"><rect class="cls-16" x="461.6" y="111.91" width="5.4" height="21.58"/><rect class="cls-19" x="462.03" y="127.02" width="4.53" height="3.88"/><rect class="cls-16" x="457.5" y="111.91" width="2.81" height="21.58"/><rect class="cls-19" x="457.72" y="127.02" width="2.36" height="3.88"/><rect class="cls-16" x="451.24" y="111.91" width="5.4" height="21.58"/><rect class="cls-19" x="451.67" y="127.02" width="4.53" height="3.88"/><rect class="cls-16" x="444.77" y="111.91" width="5.4" height="21.58"/><rect class="cls-19" x="445.2" y="127.02" width="4.53" height="3.88"/><rect class="cls-15" x="438.51" y="111.91" width="5.4" height="21.58"/><rect class="cls-19" x="438.94" y="114.07" width="4.53" height="3.88"/><rect class="cls-16" x="432.03" y="111.91" width="5.4" height="21.58"/><rect class="cls-19" x="432.46" y="127.02" width="4.53" height="3.88"/><rect class="cls-16" x="427.93" y="111.91" width="2.59" height="21.58"/><rect class="cls-19" x="428.14" y="127.02" width="2.18" height="3.88"/><rect class="cls-15" x="424.91" y="111.91" width="1.94" height="21.58"/><rect class="cls-19" x="425.06" y="114.07" width="1.63" height="3.88"/></g></g></g></g></g></svg>