<?xml version="1.0" encoding="utf-8"?>
<!-- Generator: Adobe Illustrator 21.0.0, SVG Export Plug-In . SVG Version: 6.00 Build 0)  -->
<svg version="1.1" id="图层_1" xmlns="http://www.w3.org/2000/svg" xmlns:xlink="http://www.w3.org/1999/xlink" x="0px" y="0px"
	 viewBox="0 0 48 48" style="enable-background:new 0 0 48 48;" xml:space="preserve">
<style type="text/css">
	.st0{fill:#060001;}
	.st1{fill:#040000;}
	.st2{fill:none;stroke:#000000;stroke-miterlimit:10;}
	.st3{fill:#221815;}
	.st4{fill:#080102;}
	.st5{fill:none;stroke:#000000;stroke-width:2;stroke-linecap:round;stroke-linejoin:round;stroke-miterlimit:10;}
	.st6{fill:#070001;}
</style>
<path class="st1" d="M45,38c-1.2-0.4-3.2-7-4.3-14.2c-0.1-0.3-0.1-0.7-0.2-1.1c0.3-1.5,0.8-4.1,1.4-6.7c0.1-0.3-0.1-0.5-0.4-0.6
	c-0.3-0.1-0.5,0.1-0.6,0.4c-0.4,1.4-0.7,2.9-0.9,4.2C39,14.4,37.1,8,34.5,8c-2.4,0-4.2,5.6-5.3,10.8c-1-4.4-2.7-9.8-4.9-9.8
	c-2.4,0-4.2,6.7-5.2,11.2C18,14.6,16.2,8,13.5,8C10.9,8,9,14.4,7.9,20c-0.3-1.3-0.6-2.7-1-4.1c-0.1-0.3-0.3-0.4-0.6-0.4
	c-0.3,0.1-0.4,0.3-0.4,0.6c0.7,2.5,1.2,5.1,1.4,6.5c-0.1,0.4-0.1,0.8-0.2,1.2C6.1,31,4.1,37.6,3,38c-0.5,0-1,0.5-1,1
	c0,0.6,0.4,1,1,1c2.6,0,4.4-6.2,5.5-11.7c1,4.6,2.8,10.8,5,10.8c2.2,0,4-6,5-10.6C19.6,33.9,21.4,40,24,40c2.7,0,4.5-6.7,5.6-12.4
	c1,4.8,2.7,11.4,5,11.4c2.2,0,3.9-5.9,4.9-10.6C40.6,33.9,42.4,40,45,40c0.6,0,1-0.4,1-1C46,38.4,45.6,38,45,38z M13.5,38
	c-1.4,0-3.4-6.1-4.5-12.4c0.1-0.5,0.2-1,0.2-1.5c1.1-7.2,3.1-13.8,4.2-14.2c1.2,0.4,3.2,7,4.3,14.2c0.1,0.5,0.2,1.1,0.3,1.7
	C16.8,32.1,14.9,38,13.5,38z M24,38c-1.2-0.4-3.2-7-4.3-14.2c0-0.2-0.1-0.4-0.1-0.6c1.1-6.4,3.1-13,4.6-13c1.4,0,3.2,5.7,4.3,11.6
	c-0.1,0.7-0.2,1.4-0.3,2C27.1,31,25.1,37.6,24,38z M34.7,38c-1.4,0-3.4-6.7-4.5-13.2c0-0.2,0.1-0.4,0.1-0.7
	c1.1-7.2,3.1-13.8,4.2-14.2c1.2,0.4,3.2,7,4.3,14.2c0.1,0.5,0.2,1.1,0.3,1.7C37.9,32,36,38,34.7,38z"/>
</svg>
