<?xml version="1.0" encoding="utf-8"?>
<!-- Generator: Adobe Illustrator 21.0.0, SVG Export Plug-In . SVG Version: 6.00 Build 0)  -->
<svg version="1.1" id="图层_1" xmlns="http://www.w3.org/2000/svg" xmlns:xlink="http://www.w3.org/1999/xlink" x="0px" y="0px"
	 viewBox="0 0 48 48" style="enable-background:new 0 0 48 48;" xml:space="preserve">
<style type="text/css">
	.st0{fill:#060001;}
	.st1{fill:#040000;}
	.st2{fill:none;stroke:#000000;stroke-miterlimit:10;}
	.st3{fill:#221815;}
	.st4{fill:#080102;}
	.st5{fill:none;stroke:#000000;stroke-width:2;stroke-linecap:round;stroke-linejoin:round;stroke-miterlimit:10;}
	.st6{fill:#070001;}
</style>
<g>
	<circle class="st0" cx="31.5" cy="26.5" r="1.5"/>
	<path class="st0" d="M33.8,34H13.4c-0.3,0-0.5,0.2-0.5,0.5s0.2,0.5,0.5,0.5h20.5c0.3,0,0.5-0.2,0.5-0.5S34.1,34,33.8,34z"/>
	<path class="st0" d="M31.5,22h-15C14,22,12,24,12,26.5s2,4.5,4.5,4.5h15c2.5,0,4.5-2,4.5-4.5S34,22,31.5,22z M31.5,30h-15
		c-1.9,0-3.5-1.6-3.5-3.5s1.6-3.5,3.5-3.5h15c1.9,0,3.5,1.6,3.5,3.5S33.4,30,31.5,30z"/>
	<path class="st0" d="M35.3,16.1C33.7,11.4,29.3,8,24,8s-9.7,3.4-11.3,8.1C6.7,16.7,2,21.8,2,28c0,6.6,5.4,12,12,12h20
		c6.6,0,12-5.4,12-12C46,21.8,41.3,16.7,35.3,16.1z M34,38H14C8.5,38,4,33.5,4,28c0-5.1,3.8-9.4,8.9-9.9c0.8-0.1,1.4-0.6,1.7-1.3
		c1.4-4,5.2-6.7,9.4-6.7s8,2.7,9.4,6.7c0.3,0.7,0.9,1.2,1.7,1.3c5.1,0.6,8.9,4.8,8.9,9.9C44,33.5,39.5,38,34,38z"/>
</g>
</svg>
