<svg xmlns="http://www.w3.org/2000/svg" viewBox="0 0 480 270"><defs><style>.cls-1{fill:#828ac4;}.cls-2{fill:#e8edf9;}.cls-3{fill:#d0d7f1;}.cls-4{fill:#6973a7;}.cls-5{fill:#bbc3ea;}.cls-6{fill:#f3f6ff;}.cls-7{fill:#4f5a84;}.cls-8{fill:#fff;}</style></defs><g id="Layer_2" data-name="Layer 2"><g id="Layer_1-2" data-name="Layer 1"><rect class="cls-1" x="0.0179" width="479.7439" height="253.0876"/><rect class="cls-2" y="250.5358" width="479.8312" height="19.4642"/><path class="cls-3" d="M479.7618,20.6015,460.93,8.5561h18.8024V4.5432H.0179v4.57L21.5238,22.08.0179,22.0881V25.76l479.7439-.0084M448.5055,8.5561,429.0952,21.22,408.0916,8.5561Zm-66.9324,0L362.163,21.22,341.1592,8.5561Zm-66.9323,0L295.2306,21.22,274.2269,8.5561Zm-66.9322,0L228.2983,21.22,207.2947,8.5561Zm-66.9324,0L161.366,21.22,140.3623,8.5561Zm-66.9323,0L94.4336,21.22,73.43,8.5561Zm-66.9323,0L27.5014,21.22,6.4976,8.5561Zm6.1794.5733L73.3376,22.08H33.2413ZM80.4789,22.08,59.336,8.5561h6.69L88.4561,22.08Zm39.5443-12.95L140.27,22.08H100.1736Zm27.3881,12.95L126.2683,8.5561h6.69l22.43,13.5236Zm39.5442-12.95,20.2468,12.95H167.1059Zm27.388,12.95L193.2006,8.5561h6.69l22.43,13.5236Zm39.5444-12.95,20.2468,12.95H234.0382ZM281.276,22.08,260.133,8.5561h6.69L289.253,22.08ZM320.82,9.1294l20.2467,12.95H300.9705Zm27.388,12.95L327.0653,8.5561h6.69l22.43,13.5236Zm39.5442-12.95,20.2468,12.95H367.9028Zm27.3881,12.95L393.9975,8.5561h6.69l22.43,13.5236Zm39.5443-12.95,20.2468,12.95H434.8352Z"/><rect class="cls-2" x="54.0443" y="60.6874" width="45.6668" height="50.999"/><rect class="cls-2" x="202.0428" y="60.6874" width="38.2447" height="50.999"/><rect class="cls-2" x="103.3772" y="60.6874" width="45.6668" height="50.999"/><rect class="cls-2" x="152.71" y="60.6874" width="45.6668" height="50.999"/><rect class="cls-2" x="22.8746" y="60.6874" width="27.5037" height="50.999"/><path class="cls-4" d="M321.6718,38.6406V49.7164c0,9.5841-7.7694,14.8017-17.3535,14.8017H283.5237a1.3216,1.3216,0,0,1-1.3217-1.3217V63.138a1.3217,1.3217,0,0,0-1.3217-1.3217H259.4626a1.3217,1.3217,0,0,0-1.3217,1.3217v.0584a1.3217,1.3217,0,0,1-1.3217,1.3217H99.8837c-8.2544,0-14.9459-4.14-14.9459-12.3941V35.19a1.3216,1.3216,0,0,0-1.3217-1.3217h-2.39A1.3217,1.3217,0,0,0,79.9044,35.19V82.0637a17.6528,17.6528,0,0,1-17.88,17.6513L.0134,99.2126l.0045,5.0263,61.9417.5089c.1008.0014.2.002.301.002a22.5185,22.5185,0,0,0,15.8788-6.4922,22.977,22.977,0,0,0,6.7984-16.4182V70.8732A1.3216,1.3216,0,0,1,86.26,69.5515h170.56a1.3217,1.3217,0,0,1,1.3217,1.3217h0a1.3216,1.3216,0,0,0,1.3217,1.3216H280.88a1.3216,1.3216,0,0,0,1.3217-1.3216h0a1.3216,1.3216,0,0,1,1.3217-1.3217h20.7946c12.364,0,22.3869-7.4711,22.3869-19.8351V38.6406a1.3217,1.3217,0,0,0-1.3217-1.3217h-2.39A1.3218,1.3218,0,0,0,321.6718,38.6406Z"/><path class="cls-4" d="M426.4946,70.1323a2.2022,2.2022,0,0,1-2.2035,2.2022l-45.9284-.0235V57.39H457.26V56.2879l1.2956-.6628-19.0905-6.5957h17.5012V47.0785H378.3627V42.1548H479.7618V31.8156H.0134V42.1548H283.48l1.45,4.9237H23.0056v1.9509h.7628l20.1892,6.575H23.2994V57.39H287.9676l14.3729,46.2419H327.76a39.6838,39.6838,0,0,0-.8637,8.2573l.0066,11.1428L.0039,122.0766,0,123.3009l326.9032.955.0742,126.2823H337.181l-.0742-126.25,23.5.0738.0573,0a17.7,17.7,0,0,0,17.6981-17.7v-3.0307H479.8312v-1.7685H378.3627V82.5146l45.9307.0236a2.2023,2.2023,0,0,1,2.2012,2.2023v.0345a2.2023,2.2023,0,0,0,2.2023,2.2023h50.9722V67.93H428.6969A2.2023,2.2023,0,0,0,426.4946,70.1323Zm25.5729-14.5279H415.9769l17.8666-6.2962Zm-23.786-6.575L410.81,55.1863l-18.9052-6.1569Zm-43.0405,0,20.189,6.575h-7.18l-19.0306-6.575Zm6.581,6.575H378.3627v-4.65Zm-78.4694-6.2962,18.224,6.2962h-36.09ZM290.32,55.1863l-1.28-.4169-1.6908-5.74h20.442Zm28.6542-6.1569h6.0217l20.1892,6.575h-7.18Zm12.6859,0H368.036l-17.4709,6.1569Zm41.9383.2788,3.54,1.2232v5.073H355.7315Zm-88.2744-7.1534h91.8148v4.9237H286.774ZM30.4326,49.0294H66.809L49.338,55.1863Zm24.0718,6.575L72.371,49.3082l18.2239,6.2962Zm42.5183,0-19.0306-6.575h6.0218l20.189,6.575Zm-6.3446-6.575h36.3763l-17.4711,6.1569Zm24.0717,6.575,17.8666-6.2962,18.224,6.2962Zm42.5184,0-19.0306-6.575h6.0217l20.1891,6.575Zm-6.3448-6.575H187.3l-17.471,6.1569Zm24.0718,6.575,17.8666-6.2962,18.224,6.2962Zm42.5184,0-19.0307-6.575h6.0219l20.189,6.575Zm-6.3447-6.575h36.3764l-17.4711,6.1569Zm24.0718,6.575,17.8666-6.2962,18.224,6.2962Zm42.5184,0-19.0307-6.575H264.75l20.1891,6.575Zm-6.3448-6.575H285.505L287,54.1053Zm32.2488,52.8335L289.8112,57.39h87.3272V72.31L366.5,72.3048a39.5768,39.5768,0,0,0-38.3223,29.5581Zm73.4753,4.7992a16.4756,16.4756,0,0,1-16.4739,16.4755h-.0533l-23.5051-.0739L337.1,111.8887a29.5031,29.5031,0,0,1,1.1722-8.2573h38.8667Zm0-4.7992H338.8477a29.4337,29.4337,0,0,1,27.6316-19.3544h.0155l10.6436.0055Z"/><rect class="cls-5" x="415.8276" y="234.8256" width="35.6187" height="12.3143"/><rect class="cls-4" x="415.8276" y="234.8256" width="20.921" height="12.3143"/><path class="cls-1" d="M443.1335,236.7149h5.4358a0,0,0,0,1,0,0v.2309a2.0752,2.0752,0,0,1-2.0752,2.0752h-1.2853a2.0752,2.0752,0,0,1-2.0752-2.0752v-.2309A0,0,0,0,1,443.1335,236.7149Z"/><rect class="cls-2" x="378.955" y="234.8256" width="35.6187" height="12.3143"/><rect class="cls-5" x="378.955" y="234.8256" width="20.921" height="12.3143"/><path class="cls-1" d="M384.74,236.7149h5.4358a0,0,0,0,1,0,0v.2309A2.0752,2.0752,0,0,1,388.1,239.021H386.815a2.0752,2.0752,0,0,1-2.0752-2.0752v-.2309A0,0,0,0,1,384.74,236.7149Z"/><rect class="cls-2" x="424.1695" y="216.9881" width="25.1582" height="17.8375"/><rect class="cls-5" x="424.1695" y="216.9881" width="14.7769" height="17.8375"/><path class="cls-1" d="M425.2983,219.5838h5.4358a0,0,0,0,1,0,0v.2309a2.0752,2.0752,0,0,1-2.0752,2.0752h-1.2853a2.0752,2.0752,0,0,1-2.0752-2.0752v-.2309A0,0,0,0,1,425.2983,219.5838Z"/><rect class="cls-5" x="352.5923" y="228.9491" width="25.1582" height="17.8375"/><rect class="cls-4" x="352.5923" y="228.9491" width="14.7769" height="17.8375"/><path class="cls-1" d="M370.3266,231.5449h5.4358a0,0,0,0,1,0,0v.2309a2.0752,2.0752,0,0,1-2.0752,2.0752h-1.2853a2.0752,2.0752,0,0,1-2.0752-2.0752v-.2309a0,0,0,0,1,0,0Z"/><rect class="cls-4" x="388.4825" y="226.6765" width="35.6187" height="8.1189"/><rect class="cls-6" x="388.4825" y="226.6765" width="20.921" height="8.1189"/><path class="cls-6" d="M415.4877,228.3874h5.4358a0,0,0,0,1,0,0v.2309a2.0752,2.0752,0,0,1-2.0752,2.0752H417.563a2.0752,2.0752,0,0,1-2.0752-2.0752v-.2309A0,0,0,0,1,415.4877,228.3874Z"/><rect class="cls-2" x="406.0247" y="215.0011" width="16.4246" height="11.6453"/><rect class="cls-5" x="406.0247" y="215.0011" width="9.6472" height="11.6453"/><path class="cls-6" d="M408.2979,216.6958h3.5488a0,0,0,0,1,0,0v.0465a1.459,1.459,0,0,1-1.459,1.459h-.6307a1.459,1.459,0,0,1-1.459-1.459v-.0465A0,0,0,0,1,408.2979,216.6958Z"/><rect class="cls-5" x="430.7341" y="205.3004" width="16.4246" height="11.6453"/><rect class="cls-4" x="430.7341" y="205.3004" width="9.6472" height="11.6453"/><path class="cls-1" d="M442.312,206.995h3.5488a0,0,0,0,1,0,0v.0465a1.459,1.459,0,0,1-1.459,1.459h-.6307a1.459,1.459,0,0,1-1.459-1.459v-.0465A0,0,0,0,1,442.312,206.995Z"/><rect class="cls-4" x="355.8311" y="209.2063" width="17.2134" height="19.7428"/><rect class="cls-5" x="355.8311" y="209.2063" width="10.1105" height="19.7428"/><path class="cls-1" d="M358.2594,211.5219h4.0291a0,0,0,0,1,0,0v.9108a1.2729,1.2729,0,0,1-1.2729,1.2729h-1.4833a1.2729,1.2729,0,0,1-1.2729-1.2729v-.9108A0,0,0,0,1,358.2594,211.5219Z"/><rect class="cls-2" x="389.2838" y="211.6259" width="12.6723" height="15.0206"/><rect class="cls-4" x="388.456" y="211.6259" width="7.4432" height="15.0206"/><path class="cls-1" d="M397.6944,214.4175h3.5488a0,0,0,0,1,0,0v.0465a1.459,1.459,0,0,1-1.459,1.459h-.6307a1.459,1.459,0,0,1-1.459-1.459v-.0465A0,0,0,0,1,397.6944,214.4175Z"/><rect class="cls-2" x="448.5693" y="184.8694" width="31.2253" height="12.3143"/><rect class="cls-5" x="448.5693" y="184.8694" width="20.921" height="12.3143"/><rect class="cls-4" x="453.761" y="176.7203" width="25.9774" height="8.1189"/><rect class="cls-6" x="458.0968" y="176.7203" width="21.665" height="8.1189"/><rect class="cls-5" x="470.1841" y="165.0449" width="9.6472" height="11.6453"/><path class="cls-6" d="M475.9011,166.7395H479.45a0,0,0,0,1,0,0v.0465a1.459,1.459,0,0,1-1.459,1.459H477.36a1.459,1.459,0,0,1-1.459-1.459v-.0465a0,0,0,0,1,0,0Z"/><rect class="cls-2" x="458.8981" y="161.6696" width="12.6723" height="15.0206"/><rect class="cls-4" x="458.0702" y="161.6696" width="7.4432" height="15.0206"/><path class="cls-1" d="M467.3087,164.4613h3.5488a0,0,0,0,1,0,0v.0465a1.459,1.459,0,0,1-1.459,1.459h-.6307a1.459,1.459,0,0,1-1.459-1.459v-.0465A0,0,0,0,1,467.3087,164.4613Z"/><rect class="cls-2" x="345.3601" y="246.7867" width="134.4017" height="4.0252"/><rect class="cls-2" x="347.2357" y="197.1926" width="132.5589" height="4.4094"/><rect class="cls-2" x="418.665" y="198.651" width="1.8156" height="51.0966"/><rect class="cls-2" x="384.1175" y="198.651" width="1.8156" height="51.0966"/><rect class="cls-2" x="349.5701" y="198.651" width="1.8156" height="51.0966"/><rect class="cls-5" x="415.8276" y="184.8694" width="35.6187" height="12.3143"/><rect class="cls-4" x="415.8276" y="184.8694" width="20.921" height="12.3143"/><path class="cls-1" d="M443.1335,186.7586h5.4358a0,0,0,0,1,0,0v.2309a2.0752,2.0752,0,0,1-2.0752,2.0752h-1.2853a2.0752,2.0752,0,0,1-2.0752-2.0752v-.2309A0,0,0,0,1,443.1335,186.7586Z"/><rect class="cls-2" x="387.4576" y="184.8694" width="31.2074" height="12.3143"/><rect class="cls-5" x="387.4576" y="184.8694" width="18.33" height="12.3143"/><path class="cls-1" d="M393.3511,186.7586h5.4358a0,0,0,0,1,0,0v.2309a2.0752,2.0752,0,0,1-2.0752,2.0752h-1.2853a2.0752,2.0752,0,0,1-2.0752-2.0752v-.2309A0,0,0,0,1,393.3511,186.7586Z"/><rect class="cls-4" x="427.141" y="159.4179" width="22.1867" height="25.4514"/><rect class="cls-5" x="427.141" y="159.4179" width="13.0316" height="25.4514"/><path class="cls-1" d="M430.9389,162.1975h5.4358a0,0,0,0,1,0,0v.2309a2.0752,2.0752,0,0,1-2.0752,2.0752h-1.2853a2.0752,2.0752,0,0,1-2.0752-2.0752v-.2309A0,0,0,0,1,430.9389,162.1975Z"/><rect class="cls-5" x="352.5923" y="171.9336" width="34.8653" height="24.8968"/><rect class="cls-4" x="352.5923" y="171.9336" width="20.4785" height="24.8968"/><path class="cls-1" d="M378.955,174.7975h5.4358a0,0,0,0,1,0,0v.2309a2.0752,2.0752,0,0,1-2.0752,2.0752H381.03a2.0752,2.0752,0,0,1-2.0752-2.0752v-.2309A0,0,0,0,1,378.955,174.7975Z"/><rect class="cls-4" x="388.4825" y="176.7203" width="35.6187" height="8.1189"/><rect class="cls-6" x="388.4825" y="176.7203" width="20.921" height="8.1189"/><path class="cls-6" d="M415.4877,178.4311h5.4358a0,0,0,0,1,0,0v.2309a2.0752,2.0752,0,0,1-2.0752,2.0752H417.563a2.0752,2.0752,0,0,1-2.0752-2.0752v-.2309A0,0,0,0,1,415.4877,178.4311Z"/><rect class="cls-2" x="389.7186" y="166.1852" width="25.7691" height="10.4181"/><rect class="cls-5" x="389.7186" y="166.1852" width="15.1358" height="10.4181"/><rect class="cls-2" x="451.9699" y="234.4724" width="27.8054" height="12.3143"/><rect class="cls-5" x="451.9699" y="234.4724" width="18.33" height="12.3143"/><rect class="cls-4" x="452.9948" y="226.3233" width="26.7103" height="8.1189"/><rect class="cls-6" x="452.9948" y="226.3233" width="20.921" height="8.1189"/><rect class="cls-2" x="454.2309" y="215.7882" width="25.7691" height="10.4181"/><rect class="cls-5" x="454.2309" y="215.7882" width="15.1358" height="10.4181"/><path class="cls-6" d="M393.2851,167.7012h5.5678a0,0,0,0,1,0,0v0a1.3469,1.3469,0,0,1-1.3469,1.3469h-2.874a1.3469,1.3469,0,0,1-1.3469-1.3469v0A0,0,0,0,1,393.2851,167.7012Z"/><rect class="cls-4" x="357.0126" y="159.4179" width="25.3722" height="12.3953"/><rect class="cls-5" x="357.0126" y="159.4179" width="14.9026" height="12.3953"/><path class="cls-1" d="M360.817,161.1668h4.0291a0,0,0,0,1,0,0v.9108a1.2729,1.2729,0,0,1-1.2729,1.2729H362.09a1.2729,1.2729,0,0,1-1.2729-1.2729v-.9108A0,0,0,0,1,360.817,161.1668Z"/><rect class="cls-2" x="347.2357" y="147.2364" width="132.5589" height="4.4094"/><rect class="cls-2" x="418.665" y="148.6947" width="1.8156" height="51.0966"/><rect class="cls-2" x="384.1175" y="148.6947" width="1.8156" height="51.0966"/><rect class="cls-2" x="349.5701" y="148.6947" width="1.8156" height="51.0966"/><rect class="cls-2" x="443.244" y="149.0679" width="1.8156" height="51.0966"/><polygon class="cls-2" points="125.978 249.714 48.3 249.714 48.3 128.412 119.409 128.412 125.978 140.068 125.978 249.714"/><polygon class="cls-4" points="100.014 249.714 0.018 249.714 0.018 128.412 93.445 128.412 100.014 140.068 100.014 249.714"/><polygon class="cls-1" points="87.878 170.501 86.4 168.774 86.4 128.412 85.743 128.412 85.743 241.296 86.4 241.296 86.4 187.301 87.878 185.61 87.878 170.501"/><rect class="cls-1" x="78.1887" y="222.0088" width="0.6569" height="16.4038"/><rect class="cls-1" x="74.7201" y="222.0088" width="0.6569" height="16.4038"/><rect class="cls-1" x="71.2515" y="222.0088" width="0.6569" height="16.4038"/><rect class="cls-1" x="67.7829" y="222.0088" width="0.6569" height="16.4038"/><rect class="cls-1" x="64.3143" y="222.0088" width="0.6569" height="16.4038"/><rect class="cls-1" x="60.8457" y="222.0088" width="0.6569" height="16.4038"/><rect class="cls-1" x="57.2606" y="222.0088" width="0.6569" height="16.4038"/><rect class="cls-1" x="53.792" y="222.0088" width="0.6569" height="16.4038"/><rect class="cls-1" x="50.3234" y="222.0088" width="0.6569" height="16.4038"/><rect class="cls-5" x="25.9649" y="136.6141" width="9.0324" height="1.295"/><rect class="cls-5" x="25.9649" y="139.6898" width="9.0324" height="1.295"/><rect class="cls-5" x="25.9649" y="142.7655" width="9.0324" height="1.295"/><rect class="cls-5" x="25.9649" y="145.8412" width="9.0324" height="1.295"/><rect class="cls-5" x="25.9649" y="148.9169" width="9.0324" height="1.295"/><rect class="cls-1" x="56.1414" y="137.2616" width="23.977" height="31.5126"/><rect class="cls-2" x="59.508" y="140.3373" width="17.2437" height="9.2271"/><rect class="cls-2" x="57.8808" y="153.8813" width="1.9968" height="3.3455"/><rect class="cls-7" x="72.682" y="153.8813" width="1.9968" height="3.3455"/><rect class="cls-7" x="68.9817" y="153.8813" width="1.9968" height="3.3455"/><rect class="cls-4" x="65.2814" y="153.8813" width="1.9968" height="3.3455"/><rect class="cls-4" x="61.5811" y="153.8813" width="1.9968" height="3.3455"/><rect class="cls-7" x="76.3823" y="153.8813" width="1.9968" height="3.3455"/><rect class="cls-7" x="57.8622" y="158.6689" width="1.9968" height="3.3455"/><rect class="cls-7" x="72.6634" y="158.6689" width="1.9968" height="3.3455"/><rect class="cls-7" x="68.9631" y="158.6689" width="1.9968" height="3.3455"/><rect class="cls-7" x="65.2628" y="158.6689" width="1.9968" height="3.3455"/><rect class="cls-7" x="61.5625" y="158.6689" width="1.9968" height="3.3455"/><rect class="cls-7" x="76.3637" y="158.6689" width="1.9968" height="3.3455"/><rect class="cls-7" x="57.8622" y="163.2574" width="1.9968" height="3.3455"/><rect class="cls-4" x="72.6634" y="163.2574" width="1.9968" height="3.3455"/><rect class="cls-7" x="68.9631" y="163.2574" width="1.9968" height="3.3455"/><rect class="cls-7" x="65.2628" y="163.2574" width="1.9968" height="3.3455"/><rect class="cls-7" x="61.5625" y="163.2574" width="1.9968" height="3.3455"/><rect class="cls-2" x="76.3637" y="163.2574" width="1.9968" height="3.3455"/><rect class="cls-5" x="100.0136" y="140.0675" width="25.9649" height="110.4683"/><rect class="cls-5" x="104.0785" y="122.7917" width="13.8224" height="13.8224"/><rect class="cls-7" x="100.0136" y="148.9169" width="24.1256" height="96.5882"/><polygon class="cls-1" points="82.6 241.296 81.375 241.296 81.375 215.031 60.968 215.031 38.286 197.823 0.018 197.823 0.018 196.599 38.698 196.599 61.38 213.807 82.6 213.807 82.6 241.296"/><polygon class="cls-1" points="42.772 173.427 42.772 128.412 41.548 128.412 41.548 133.684 39.889 134.897 39.889 145.011 41.548 146.09 41.548 174.652 86.811 174.652 86.811 173.427 42.772 173.427"/><rect class="cls-1" x="0.0179" y="182.2062" width="86.7926" height="0.4081"/><circle class="cls-2" cx="17.484" cy="235.998" r="2.0267"/><circle class="cls-2" cx="32.1542" cy="235.998" r="2.0267"/><circle class="cls-2" cx="24.8191" cy="235.998" r="2.0267"/><rect class="cls-5" x="0.0179" y="241.2963" width="99.9957" height="9.37"/><path class="cls-5" d="M98.9761,224.777V209.63H316.873a7.5737,7.5737,0,0,1,0,15.1473Z"/><path class="cls-4" d="M316.873,210.786a6.4174,6.4174,0,0,1,0,12.8347H100.1324V210.786H316.873m0-2.3127H97.82v17.46H316.873a8.73,8.73,0,0,0,0-17.46Z"/><circle class="cls-8" cx="109.2664" cy="217.2964" r="4.6288"/><path class="cls-4" d="M109.2665,222.7812a5.4848,5.4848,0,1,1,5.4847-5.4848A5.491,5.491,0,0,1,109.2665,222.7812Zm0-9.2576a3.7728,3.7728,0,1,0,3.7727,3.7728A3.7772,3.7772,0,0,0,109.2665,213.5236Z"/><path class="cls-4" d="M109.2665,220.3881a3.0917,3.0917,0,1,1,3.0917-3.0917A3.0953,3.0953,0,0,1,109.2665,220.3881Zm0-5.9694a2.8777,2.8777,0,1,0,2.8777,2.8777A2.881,2.881,0,0,0,109.2665,214.4187Z"/><polygon class="cls-4" points="107.989 217.69 108.287 216.387 109.564 215.993 110.544 216.902 110.246 218.205 108.969 218.6 107.989 217.69"/><circle class="cls-8" cx="294.3947" cy="217.2964" r="4.6288"/><path class="cls-4" d="M294.3947,222.7812a5.4848,5.4848,0,1,1,5.4848-5.4848A5.4909,5.4909,0,0,1,294.3947,222.7812Zm0-9.2576a3.7728,3.7728,0,1,0,3.7728,3.7728A3.7772,3.7772,0,0,0,294.3947,213.5236Z"/><path class="cls-4" d="M294.3947,220.3881a3.0917,3.0917,0,1,1,3.0917-3.0917A3.0954,3.0954,0,0,1,294.3947,220.3881Zm0-5.9694a2.8777,2.8777,0,1,0,2.8777,2.8777A2.881,2.881,0,0,0,294.3947,214.4187Z"/><polygon class="cls-4" points="293.117 217.69 293.415 216.387 294.692 215.993 295.672 216.902 295.375 218.205 294.097 218.6 293.117 217.69"/><circle class="cls-8" cx="277.5649" cy="217.2964" r="4.6288"/><path class="cls-4" d="M277.5649,222.7812a5.4848,5.4848,0,1,1,5.4848-5.4848A5.491,5.491,0,0,1,277.5649,222.7812Zm0-9.2576a3.7728,3.7728,0,1,0,3.7728,3.7728A3.7773,3.7773,0,0,0,277.5649,213.5236Z"/><path class="cls-4" d="M277.5649,220.3881a3.0917,3.0917,0,1,1,3.0917-3.0917A3.0953,3.0953,0,0,1,277.5649,220.3881Zm0-5.9694a2.8777,2.8777,0,1,0,2.8777,2.8777A2.881,2.881,0,0,0,277.5649,214.4187Z"/><polygon class="cls-4" points="276.288 217.69 276.585 216.387 277.862 215.993 278.842 216.902 278.545 218.205 277.267 218.6 276.288 217.69"/><circle class="cls-8" cx="260.735" cy="217.2964" r="4.6288"/><path class="cls-4" d="M260.735,222.7812a5.4848,5.4848,0,1,1,5.4848-5.4848A5.4909,5.4909,0,0,1,260.735,222.7812Zm0-9.2576a3.7728,3.7728,0,1,0,3.7728,3.7728A3.7772,3.7772,0,0,0,260.735,213.5236Z"/><path class="cls-4" d="M260.735,220.3881a3.0917,3.0917,0,1,1,3.0917-3.0917A3.0954,3.0954,0,0,1,260.735,220.3881Zm0-5.9694a2.8777,2.8777,0,1,0,2.8777,2.8777A2.881,2.881,0,0,0,260.735,214.4187Z"/><polygon class="cls-4" points="259.458 217.69 259.755 216.387 261.032 215.993 262.012 216.902 261.715 218.205 260.438 218.6 259.458 217.69"/><circle class="cls-8" cx="243.9052" cy="217.2964" r="4.6288"/><path class="cls-4" d="M243.9052,222.7812a5.4848,5.4848,0,1,1,5.4848-5.4848A5.491,5.491,0,0,1,243.9052,222.7812Zm0-9.2576a3.7728,3.7728,0,1,0,3.7728,3.7728A3.7773,3.7773,0,0,0,243.9052,213.5236Z"/><path class="cls-4" d="M243.9052,220.3881a3.0917,3.0917,0,1,1,3.0917-3.0917A3.0953,3.0953,0,0,1,243.9052,220.3881Zm0-5.9694a2.8777,2.8777,0,1,0,2.8777,2.8777A2.881,2.881,0,0,0,243.9052,214.4187Z"/><polygon class="cls-4" points="242.628 217.69 242.925 216.387 244.203 215.993 245.182 216.902 244.885 218.205 243.608 218.6 242.628 217.69"/><circle class="cls-8" cx="227.0753" cy="217.2964" r="4.6288"/><path class="cls-4" d="M227.0754,222.7812a5.4848,5.4848,0,1,1,5.4847-5.4848A5.491,5.491,0,0,1,227.0754,222.7812Zm0-9.2576a3.7728,3.7728,0,1,0,3.7727,3.7728A3.7772,3.7772,0,0,0,227.0754,213.5236Z"/><path class="cls-4" d="M227.0754,220.3881a3.0917,3.0917,0,1,1,3.0917-3.0917A3.0953,3.0953,0,0,1,227.0754,220.3881Zm0-5.9694a2.8777,2.8777,0,1,0,2.8777,2.8777A2.8809,2.8809,0,0,0,227.0754,214.4187Z"/><polygon class="cls-4" points="225.798 217.69 226.095 216.387 227.373 215.993 228.353 216.902 228.055 218.205 226.778 218.6 225.798 217.69"/><circle class="cls-8" cx="210.2455" cy="217.2964" r="4.6288"/><path class="cls-4" d="M210.2455,222.7812a5.4848,5.4848,0,1,1,5.4848-5.4848A5.491,5.491,0,0,1,210.2455,222.7812Zm0-9.2576a3.7728,3.7728,0,1,0,3.7728,3.7728A3.7773,3.7773,0,0,0,210.2455,213.5236Z"/><path class="cls-4" d="M210.2455,220.3881a3.0917,3.0917,0,1,1,3.0917-3.0917A3.0953,3.0953,0,0,1,210.2455,220.3881Zm0-5.9694a2.8777,2.8777,0,1,0,2.8777,2.8777A2.881,2.881,0,0,0,210.2455,214.4187Z"/><polygon class="cls-4" points="208.968 217.69 209.266 216.387 210.543 215.993 211.523 216.902 211.225 218.205 209.948 218.6 208.968 217.69"/><circle class="cls-8" cx="193.4156" cy="217.2964" r="4.6288"/><path class="cls-4" d="M193.4157,222.7812a5.4848,5.4848,0,1,1,5.4847-5.4848A5.491,5.491,0,0,1,193.4157,222.7812Zm0-9.2576a3.7728,3.7728,0,1,0,3.7727,3.7728A3.7773,3.7773,0,0,0,193.4157,213.5236Z"/><path class="cls-4" d="M193.4157,220.3881a3.0917,3.0917,0,1,1,3.0917-3.0917A3.0953,3.0953,0,0,1,193.4157,220.3881Zm0-5.9694a2.8777,2.8777,0,1,0,2.8777,2.8777A2.881,2.881,0,0,0,193.4157,214.4187Z"/><polygon class="cls-4" points="192.138 217.69 192.436 216.387 193.713 215.993 194.693 216.902 194.395 218.205 193.118 218.6 192.138 217.69"/><circle class="cls-8" cx="176.5858" cy="217.2964" r="4.6288"/><path class="cls-4" d="M176.5858,222.7812a5.4848,5.4848,0,1,1,5.4848-5.4848A5.4909,5.4909,0,0,1,176.5858,222.7812Zm0-9.2576a3.7728,3.7728,0,1,0,3.7728,3.7728A3.7772,3.7772,0,0,0,176.5858,213.5236Z"/><path class="cls-4" d="M176.5858,220.3881a3.0917,3.0917,0,1,1,3.0917-3.0917A3.0954,3.0954,0,0,1,176.5858,220.3881Zm0-5.9694a2.8777,2.8777,0,1,0,2.8777,2.8777A2.881,2.881,0,0,0,176.5858,214.4187Z"/><polygon class="cls-4" points="175.309 217.69 175.606 216.387 176.883 215.993 177.863 216.902 177.566 218.205 176.288 218.6 175.309 217.69"/><circle class="cls-8" cx="159.756" cy="217.2964" r="4.6288"/><path class="cls-4" d="M159.756,222.7812a5.4848,5.4848,0,1,1,5.4848-5.4848A5.491,5.491,0,0,1,159.756,222.7812Zm0-9.2576a3.7728,3.7728,0,1,0,3.7728,3.7728A3.7773,3.7773,0,0,0,159.756,213.5236Z"/><path class="cls-4" d="M159.756,220.3881a3.0917,3.0917,0,1,1,3.0917-3.0917A3.0953,3.0953,0,0,1,159.756,220.3881Zm0-5.9694a2.8777,2.8777,0,1,0,2.8777,2.8777A2.881,2.881,0,0,0,159.756,214.4187Z"/><polygon class="cls-4" points="158.479 217.69 158.776 216.387 160.053 215.993 161.033 216.902 160.736 218.205 159.459 218.6 158.479 217.69"/><circle class="cls-8" cx="142.9261" cy="217.2964" r="4.6288"/><path class="cls-4" d="M142.9261,222.7812a5.4848,5.4848,0,1,1,5.4848-5.4848A5.4909,5.4909,0,0,1,142.9261,222.7812Zm0-9.2576a3.7728,3.7728,0,1,0,3.7728,3.7728A3.7772,3.7772,0,0,0,142.9261,213.5236Z"/><path class="cls-4" d="M142.9261,220.3881a3.0917,3.0917,0,1,1,3.0917-3.0917A3.0954,3.0954,0,0,1,142.9261,220.3881Zm0-5.9694a2.8777,2.8777,0,1,0,2.8777,2.8777A2.881,2.881,0,0,0,142.9261,214.4187Z"/><polygon class="cls-4" points="141.649 217.69 141.946 216.387 143.223 215.993 144.203 216.902 143.906 218.205 142.629 218.6 141.649 217.69"/><circle class="cls-8" cx="126.0963" cy="217.2964" r="4.6288"/><path class="cls-4" d="M126.0963,222.7812a5.4848,5.4848,0,1,1,5.4848-5.4848A5.491,5.491,0,0,1,126.0963,222.7812Zm0-9.2576a3.7728,3.7728,0,1,0,3.7728,3.7728A3.7773,3.7773,0,0,0,126.0963,213.5236Z"/><path class="cls-4" d="M126.0963,220.3881a3.0917,3.0917,0,1,1,3.0917-3.0917A3.0953,3.0953,0,0,1,126.0963,220.3881Zm0-5.9694a2.8777,2.8777,0,1,0,2.8777,2.8777A2.881,2.881,0,0,0,126.0963,214.4187Z"/><polygon class="cls-4" points="124.819 217.69 125.116 216.387 126.394 215.993 127.373 216.902 127.076 218.205 125.799 218.6 124.819 217.69"/><circle class="cls-8" cx="311.2245" cy="217.2964" r="4.6288"/><path class="cls-4" d="M311.2246,222.7812a5.4848,5.4848,0,1,1,5.4847-5.4848A5.491,5.491,0,0,1,311.2246,222.7812Zm0-9.2576a3.7728,3.7728,0,1,0,3.7727,3.7728A3.7773,3.7773,0,0,0,311.2246,213.5236Z"/><path class="cls-4" d="M311.2246,220.3881a3.0917,3.0917,0,1,1,3.0917-3.0917A3.0953,3.0953,0,0,1,311.2246,220.3881Zm0-5.9694a2.8777,2.8777,0,1,0,2.8777,2.8777A2.881,2.881,0,0,0,311.2246,214.4187Z"/><polygon class="cls-4" points="309.947 217.69 310.245 216.387 311.522 215.993 312.502 216.902 312.204 218.205 310.927 218.6 309.947 217.69"/><path class="cls-4" d="M310.6575,216.3873h1.1341a.9895.9895,0,0,1,.9895.9895v33.2895a0,0,0,0,1,0,0H309.668a0,0,0,0,1,0,0V217.3768A.9895.9895,0,0,1,310.6575,216.3873Z"/><path class="cls-4" d="M176.0187,216.3873h1.1341a.9895.9895,0,0,1,.9895.9895v33.2895a0,0,0,0,1,0,0h-3.1131a0,0,0,0,1,0,0V217.3768A.9895.9895,0,0,1,176.0187,216.3873Z"/><rect class="cls-4" x="109.5461" y="194.1366" width="29.1862" height="14.2586"/><rect class="cls-5" x="109.5461" y="194.1366" width="17.1428" height="14.2586"/><path class="cls-1" d="M113.9224,196.1484h4.6348a0,0,0,0,1,0,0v1.2391a1.2729,1.2729,0,0,1-1.2729,1.2729h-2.0889a1.2729,1.2729,0,0,1-1.2729-1.2729v-1.2391A0,0,0,0,1,113.9224,196.1484Z"/><rect class="cls-4" x="267.6005" y="186.9521" width="29.1862" height="20.9803"/><rect class="cls-5" x="267.6005" y="186.9521" width="17.1428" height="20.9803"/><path class="cls-1" d="M272.4447,190.1363h4.6348a0,0,0,0,1,0,0v1.2391a1.2729,1.2729,0,0,1-1.2729,1.2729h-2.0889a1.2729,1.2729,0,0,1-1.2729-1.2729v-1.2391a0,0,0,0,1,0,0Z"/><rect class="cls-2" x="201.1199" y="193.5864" width="50.353" height="14.2586"/><rect class="cls-5" x="201.1199" y="193.5864" width="21.9309" height="14.2586"/><path class="cls-1" d="M208.8173,195.6234h4.6348a0,0,0,0,1,0,0v1.2391a1.2729,1.2729,0,0,1-1.2729,1.2729H210.09a1.2729,1.2729,0,0,1-1.2729-1.2729v-1.2391A0,0,0,0,1,208.8173,195.6234Z"/><path class="cls-7" d="M284.8053,147.6827a9.4444,9.4444,0,0,1-6.9219-3.5478c-2.826-3.5537-3.3591-9.2484-1.5846-16.9263.6316-2.7329.0377-4.5612-1.8158-5.5889-2.9264-1.623-8.9648-1.1257-16.5669,1.3641-6.4288,2.1052-12.791,5.3292-15.1278,7.6658-3.7083,3.7078-14.8154,5.2673-22.4917,1.8014-4.0853-1.8446-8.8432-5.8264-8.3094-14.32.9144-14.5491-.2172-15.6094-2.2715-17.5342a14.6432,14.6432,0,0,1-2.0918-2.3111l.6633-.4756a13.9484,13.9484,0,0,0,1.9866,2.191c2.2353,2.0943,3.4666,3.2481,2.5281,18.1812-.5046,8.0284,3.98,11.7863,7.8306,13.5251a24.81,24.81,0,0,0,12.3854,1.7123c4.0253-.4194,7.548-1.702,9.1932-3.347,2.4558-2.4555,8.8094-5.6894,15.4509-7.8644,3.6985-1.2112,12.78-3.7627,17.2168-1.3022,2.1847,1.2113,2.93,3.3937,2.2152,6.4866-1.7157,7.4232-1.2351,12.8853,1.4282,16.2344a8.7371,8.7371,0,0,0,6.2831,3.24Z"/><path class="cls-7" d="M196.0065,72.9081h23.8981a0,0,0,0,1,0,0v7.3106a9.9451,9.9451,0,0,1-9.9451,9.9451h-4.0079a9.9451,9.9451,0,0,1-9.9451-9.9451V72.9081A0,0,0,0,1,196.0065,72.9081Z"/><rect class="cls-4" x="193.419" y="69.5616" width="29.0732" height="8.3664"/><rect class="cls-7" x="183.1744" y="63.8097" width="67.8722" height="9.0984"/><rect class="cls-5" x="205.1838" y="98.3468" width="5.5436" height="15.8572"/><path class="cls-4" d="M204.6226,118.5249H245.84a3.5712,3.5712,0,0,1,3.5712,3.5712v1.4392a3.5712,3.5712,0,0,1-3.5712,3.5712H204.6226a3.5713,3.5713,0,0,1-3.5713-3.5713v-1.4392A3.5712,3.5712,0,0,1,204.6226,118.5249Z" transform="translate(91.5833 -96.1616) rotate(30)"/><path class="cls-2" d="M208.0226,110.9139a1.9663,1.9663,0,1,1-1.9663,1.9662,1.9684,1.9684,0,0,1,1.9663-1.9662m0-1.3076a3.2739,3.2739,0,1,0,3.2738,3.2738,3.2738,3.2738,0,0,0-3.2738-3.2738Z"/><path class="cls-2" d="M208.0226,112.3021a.5781.5781,0,1,0,.578.578.578.578,0,0,0-.578-.578Z"/><rect class="cls-5" x="257.5281" y="123.2049" width="4.4969" height="12.8633" transform="translate(170.749 405.9762) rotate(-98.6634)"/><path class="cls-4" d="M267.9309,118.3233h9.1248a0,0,0,0,1,0,0v14.9329a3.7973,3.7973,0,0,1-3.7973,3.7973h-1.53a3.7973,3.7973,0,0,1-3.7973-3.7973V118.3233a0,0,0,0,1,0,0Z" transform="translate(187.3073 416.3063) rotate(-98.6634)"/><rect class="cls-2" x="259.1727" y="128.3954" width="9.1248" height="1.255" transform="translate(175.9106 409.1835) rotate(-98.6634)"/><path class="cls-7" d="M292.1542,149.7641l-1.5712-3.0323a.3511.3511,0,0,1,.15-.4734l.9794-.5075a.3513.3513,0,0,0,.15-.4734l-.355-.685a.3511.3511,0,0,0-.4734-.15l-.9794.5075a.3513.3513,0,0,1-.4734-.15h0a.3513.3513,0,0,1,.15-.4734l.9794-.5075a.3511.3511,0,0,0,.15-.4734l-.3549-.685a.3512.3512,0,0,0-.4734-.15l-.9794.5075a.3512.3512,0,0,1-.4734-.15h0a.3511.3511,0,0,1,.15-.4734l.9794-.5075a.3513.3513,0,0,0,.15-.4734l-.3549-.685a.3513.3513,0,0,0-.4734-.15l-.98.5076a.3513.3513,0,0,1-.4734-.15h0a.3513.3513,0,0,1,.15-.4734l.9794-.5075a.3513.3513,0,0,0,.15-.4734l-.355-.685a.3512.3512,0,0,0-.4734-.15l-.9794.5075a.3512.3512,0,0,1-.4734-.15h0a.3512.3512,0,0,1,.15-.4734l.9795-.5075a.3512.3512,0,0,0,.15-.4734l-.3549-.685a.3513.3513,0,0,0-.4734-.15l-.9794.5075a.3511.3511,0,0,1-.4734-.15l-1.2026-2.3208a.3512.3512,0,0,0-.4734-.15l-4.1528,2.1519a.3512.3512,0,0,0-.15.4734l1.2025,2.3207a.3511.3511,0,0,1-.15.4734l-.9794.5075a.3513.3513,0,0,0-.15.4734l.355.685a.3512.3512,0,0,0,.4734.15l.9794-.5075a.3512.3512,0,0,1,.4734.15h0a.3513.3513,0,0,1-.15.4734l-.9794.5075a.3511.3511,0,0,0-.15.4734l.3549.685a.3511.3511,0,0,0,.4734.15l.9794-.5075a.3512.3512,0,0,1,.4734.15h0a.3511.3511,0,0,1-.15.4733l-.98.5075a.3512.3512,0,0,0-.15.4734l.3549.685a.3513.3513,0,0,0,.4734.15l.9795-.5075a.351.351,0,0,1,.4733.15h0a.3511.3511,0,0,1-.15.4734l-.9794.5075a.3512.3512,0,0,0-.15.4734l.355.685a.351.351,0,0,0,.4733.15l.98-.5075a.3512.3512,0,0,1,.4734.15h0a.3511.3511,0,0,1-.15.4733l-.9794.5076a.351.351,0,0,0-.15.4733l.3549.685a.3512.3512,0,0,0,.4734.15l.9794-.5075a.3511.3511,0,0,1,.4734.15l1.5713,3.0323a.351.351,0,0,0,.4733.15l4.1529-2.1518A.3512.3512,0,0,0,292.1542,149.7641Z"/><path class="cls-7" d="M285.2746,149.1915h10.3907a0,0,0,0,1,0,0v2.0135a4.3241,4.3241,0,0,1-4.3241,4.3241h-1.7426a4.3241,4.3241,0,0,1-4.3241-4.3241v-2.0136a0,0,0,0,1,0,0Z" transform="translate(-37.5297 150.72) rotate(-27.3918)"/><rect class="cls-4" x="282.606" y="149.1411" width="13.1174" height="1.4002" transform="translate(-36.5171 149.837) rotate(-27.3918)"/><path class="cls-2" d="M278.6973,121.8836h1.5078a3.7414,3.7414,0,0,1,3.7414,3.7414v14.6819a0,0,0,0,1,0,0h-8.9906a0,0,0,0,1,0,0V125.625A3.7414,3.7414,0,0,1,278.6973,121.8836Z" transform="translate(-28.9816 143.2663) rotate(-27.3918)"/><path class="cls-2" d="M277.3212,130.29a3.3138,3.3138,0,1,1,1.52-.3721,3.3026,3.3026,0,0,1-1.52.3721Z"/><path class="cls-4" d="M277.3147,124.3205a2.6578,2.6578,0,0,1,1.2257,5.0173,2.6243,2.6243,0,0,1-1.2191.2987,2.6576,2.6576,0,0,1-1.2258-5.0172,2.6245,2.6245,0,0,1,1.2192-.2988m0-1.3075a3.9653,3.9653,0,1,0,3.5235,2.1414,3.9469,3.9469,0,0,0-3.5235-2.1414Z"/><circle class="cls-4" cx="277.318" cy="126.9785" r="0.7001"/><polygon class="cls-4" points="303.002 162.051 301.687 159.515 301.777 151.519 293.936 149.841 294.261 152.07 300.36 152.948 301.164 159.786 302.478 162.322 303.002 162.051"/><polygon class="cls-4" points="291.588 168.374 290.273 165.837 283.689 161.3 286.84 153.926 288.474 155.477 285.674 160.965 290.797 165.566 292.111 168.102 291.588 168.374"/><polygon class="cls-4" points="289.116 152.684 291.602 151.395 297.815 165.147 296.899 165.621 289.116 152.684"/><path class="cls-2" d="M246.7833,122.52h1.53a3.7973,3.7973,0,0,1,3.7973,3.7973V141.25a0,0,0,0,1,0,0H242.986a0,0,0,0,1,0,0V126.3171a3.7973,3.7973,0,0,1,3.7973-3.7973Z" transform="matrix(-0.1506, -0.9886, 0.9886, -0.1506, 154.4563, 396.4746)"/><path class="cls-7" d="M242.5,129.0534v1.3076a2.2966,2.2966,0,1,1-.35.0267,2.3061,2.3061,0,0,1,.35-.0267v-1.3076m0,0a3.6012,3.6012,0,1,0,3.5554,3.059,3.6288,3.6288,0,0,0-3.5554-3.059Z"/><path class="cls-7" d="M242.4958,132.0189a.6458.6458,0,0,0-.0965.0073.6359.6359,0,0,0,.095,1.2645.6481.6481,0,0,0,.0966-.0073.6359.6359,0,0,0-.0951-1.2645Z"/><rect class="cls-4" x="251.6349" y="129.9396" width="9.1248" height="1.255" transform="translate(165.7107 403.5085) rotate(-98.6634)"/><path class="cls-4" d="M207.0123,79.64h1.8865a4.6811,4.6811,0,0,1,4.6811,4.6811V102.73a0,0,0,0,1,0,0H202.3313a0,0,0,0,1,0,0V84.3215A4.6811,4.6811,0,0,1,207.0123,79.64Z"/><path class="cls-2" d="M207.9556,81.7519a3.1314,3.1314,0,1,1-3.1314,3.1314,3.135,3.135,0,0,1,3.1314-3.1314m0-1.3076a4.439,4.439,0,1,0,4.439,4.439,4.439,4.439,0,0,0-4.439-4.439Z"/><path class="cls-2" d="M207.9556,84.1a.7838.7838,0,1,0,.7838.7838.7838.7838,0,0,0-.7838-.7838Z"/><rect class="cls-2" x="202.3885" y="101.183" width="11.2486" height="1.547"/><rect class="cls-4" x="225.3336" y="72.9081" width="25.7129" height="11.2946"/><rect class="cls-5" x="239.4254" y="76.8822" width="10.3534" height="6.1702" rx="1.1668"/><rect class="cls-5" x="226.8887" y="73.7448" width="5.3336" height="9.3076"/><rect class="cls-5" x="233.038" y="73.9801" width="4.19" height="0.6275"/><rect class="cls-7" x="233.038" y="75.1043" width="4.19" height="0.6275"/><rect class="cls-7" x="233.038" y="76.2285" width="4.19" height="0.6275"/><rect class="cls-5" x="233.038" y="77.3528" width="4.19" height="0.6275"/><rect class="cls-7" x="233.038" y="78.477" width="4.19" height="0.6275"/><path class="cls-7" d="M234.4983,225.2128l-.3539-.8692c.0925-.0377,9.2519-3.8244,9.8179-8.7341.2258-1.9581-.9873-3.8918-3.6056-5.7476a55.393,55.393,0,0,0-9.0786-4.924c-4.5961-2.1173-8.5654-3.9458-9.677-7.5562-.8976-2.9155.1473-6.7039,3.2882-11.9226,4.0761-6.7727,1.2206-16.5607-4.0558-20.7875-4.6173-3.6989-10.3319-2.8952-15.6787,2.205-7.7665,7.4082-14.9091,9.37-19.5334,9.71a18.5006,18.5006,0,0,1-8.34-1.0744l.3837-.8565a17.9818,17.9818,0,0,0,7.946.9906c4.4578-.34,11.3548-2.2557,18.8961-9.4492,5.7242-5.46,11.8888-6.283,16.9133-2.2583a17.8157,17.8157,0,0,1,5.91,10.1543,16.3314,16.3314,0,0,1-1.6367,11.85c-2.9934,4.9735-4.0087,8.52-3.1953,11.1625.9882,3.21,4.6,4.8736,9.1727,6.98a56.1375,56.1375,0,0,1,9.2286,5.0109c2.9195,2.069,4.2637,4.2969,3.9951,6.6217C244.264,221.1778,234.8968,225.0506,234.4983,225.2128Z"/><path class="cls-7" d="M226.1823,224.8889h2.98a9.9451,9.9451,0,0,1,9.9451,9.9451v6.5684a0,0,0,0,1,0,0h-22.87a0,0,0,0,1,0,0V234.834A9.9451,9.9451,0,0,1,226.1823,224.8889Z"/><rect class="cls-4" x="213.761" y="236.5985" width="27.8228" height="8.0066"/><rect class="cls-7" x="203.957" y="241.4025" width="64.9532" height="8.7071"/><rect class="cls-5" x="236.4371" y="204.6842" width="5.3052" height="15.1753" transform="translate(340.0114 515.6495) rotate(-150)"/><path class="cls-4" d="M213.1174,186.1907h39.1378a3.5713,3.5713,0,0,1,3.5713,3.5713v1.07a3.5712,3.5712,0,0,1-3.5712,3.5712H213.1174a3.5713,3.5713,0,0,1-3.5713-3.5713v-1.07A3.5712,3.5712,0,0,1,213.1174,186.1907Z" transform="translate(184.2272 486.9578) rotate(-120)"/><path class="cls-2" d="M241.2537,208.3954a1.8817,1.8817,0,1,1,2.57-.6887,1.8839,1.8839,0,0,1-2.57.6887m-.6257,1.0837a3.133,3.133,0,1,0-1.1468-4.28,3.1331,3.1331,0,0,0,1.1468,4.28Z"/><path class="cls-2" d="M241.918,207.2449a.5532.5532,0,1,0-.2025-.7557.5531.5531,0,0,0,.2025.7557Z"/><rect class="cls-5" x="205.9277" y="160.3819" width="4.3035" height="12.3101" transform="translate(-31.4337 283.4347) rotate(-64.6875)"/><path class="cls-4" d="M196.3851,152.3016h1.1379a3.7973,3.7973,0,0,1,3.7973,3.7973v14.1274a0,0,0,0,1,0,0h-8.7324a0,0,0,0,1,0,0V156.0989a3.7973,3.7973,0,0,1,3.7973-3.7973Z" transform="translate(-33.0357 270.3588) rotate(-64.6875)"/><rect class="cls-2" x="200.2521" y="164.2884" width="8.7324" height="1.201" transform="translate(-31.9252 279.3623) rotate(-64.6875)"/><path class="cls-7" d="M172.8746,176.1138l2.2721-2.35a.3361.3361,0,0,0-.008-.4752l-.7588-.7339a.336.336,0,0,1-.008-.4752l.5133-.5307a.3361.3361,0,0,1,.4752-.008l.7589.7339a.336.336,0,0,0,.4752-.008h0a.336.336,0,0,0-.008-.4752l-.7588-.7339a.3361.3361,0,0,1-.008-.4752l.5133-.5307a.3361.3361,0,0,1,.4752-.008l.7589.7339a.336.336,0,0,0,.4752-.008h0a.336.336,0,0,0-.008-.4752l-.7588-.7339a.3361.3361,0,0,1-.008-.4752l.5133-.5307a.336.336,0,0,1,.4752-.008l.7589.7339a.336.336,0,0,0,.4752-.008h0a.336.336,0,0,0-.008-.4752l-.7588-.7339a.336.336,0,0,1-.008-.4752l.5133-.5307a.336.336,0,0,1,.4752-.008l.7589.7339a.336.336,0,0,0,.4752-.008h0a.3361.3361,0,0,0-.0079-.4752l-.7589-.7339a.3361.3361,0,0,1-.008-.4752l.5133-.5307a.336.336,0,0,1,.4752-.008l.7589.7339a.3361.3361,0,0,0,.4752-.008l1.7389-1.7981a.336.336,0,0,1,.4752-.0079l3.2176,3.1116a.3361.3361,0,0,1,.008.4752l-1.7389,1.7982a.336.336,0,0,0,.0079.4752l.7589.7339a.336.336,0,0,1,.0079.4752l-.5132.5307a.3361.3361,0,0,1-.4753.008l-.7588-.7339a.336.336,0,0,0-.4752.008h0a.336.336,0,0,0,.0079.4752l.7589.7339a.336.336,0,0,1,.0079.4752l-.5132.5307a.3361.3361,0,0,1-.4753.008l-.7588-.7339a.336.336,0,0,0-.4752.008h0a.336.336,0,0,0,.0079.4752l.7589.7339a.336.336,0,0,1,.0079.4752l-.5132.5307a.336.336,0,0,1-.4752.008l-.7589-.7339a.336.336,0,0,0-.4752.008h0a.336.336,0,0,0,.0079.4752l.7589.7339a.336.336,0,0,1,.0079.4752l-.5132.5307a.3361.3361,0,0,1-.4753.008l-.7588-.7339a.3361.3361,0,0,0-.4753.008h0a.3361.3361,0,0,0,.008.4752l.7589.7339a.336.336,0,0,1,.0079.4752l-.5132.5307a.3361.3361,0,0,1-.4753.008l-.7588-.7339a.3361.3361,0,0,0-.4752.008l-2.2721,2.3494a.3361.3361,0,0,1-.4752.0079l-3.2176-3.1116A.336.336,0,0,1,172.8746,176.1138Z"/><path class="cls-7" d="M173.0591,175.9234h1.2957a4.3241,4.3241,0,0,1,4.3241,4.3241v1.741a0,0,0,0,1,0,0H168.735a0,0,0,0,1,0,0v-1.741A4.3241,4.3241,0,0,1,173.0591,175.9234Z" transform="translate(174.1695 428.3535) rotate(-135.959)"/><rect class="cls-4" x="169.3178" y="176.3342" width="12.5532" height="1.34" transform="translate(178.7706 426.3108) rotate(-135.959)"/><path class="cls-2" d="M185.3385,153.6644h8.6039a0,0,0,0,1,0,0v13.89a3.7414,3.7414,0,0,1-3.7414,3.7414H189.08a3.7414,3.7414,0,0,1-3.7414-3.7414v-13.89A0,0,0,0,1,185.3385,153.6644Z" transform="translate(213.0104 411.1103) rotate(-135.959)"/><path class="cls-2" d="M191.8141,162.3258a3.1713,3.1713,0,1,0-1.2917-.7579,3.1606,3.1606,0,0,0,1.2917.7579Z"/><path class="cls-4" d="M193.4569,156.8541a2.5436,2.5436,0,0,1,1.0961,4.2039,2.5429,2.5429,0,1,1-1.0961-4.2039m.3585-1.1989a3.7956,3.7956,0,1,0,1.5474.9076,3.794,3.794,0,0,0-1.5474-.9076Z"/><circle class="cls-4" cx="192.7251" cy="159.2902" r="0.67"/><polygon class="cls-4" points="159.56 184.405 161.46 182.44 163.57 175.084 171.22 175.696 170.311 177.65 164.478 176.783 161.866 182.832 159.965 184.797 159.56 184.405"/><polygon class="cls-4" points="168.292 193.332 170.192 191.366 177.473 189.011 176.606 181.387 174.683 182.361 175.745 188.161 169.787 190.974 167.886 192.939 168.292 193.332"/><polygon class="cls-4" points="174.86 179.624 172.933 177.761 163.467 188.666 164.176 189.352 174.86 179.624"/><path class="cls-2" d="M214.3085,162.9889h8.7324a0,0,0,0,1,0,0v14.1274a3.7973,3.7973,0,0,1-3.7973,3.7973h-1.1379a3.7973,3.7973,0,0,1-3.7973-3.7973V162.9889a0,0,0,0,1,0,0Z" transform="translate(-30.263 296.112) rotate(-64.6875)"/><path class="cls-7" d="M224.08,170.74l-.3584,1.1989a2.2255,2.2255,0,0,1,.3135.12,2.1949,2.1949,0,0,1-1.5632,4.0883,2.2285,2.2285,0,0,1-.3134-.12,2.195,2.195,0,0,1,1.563-4.0885l.3585-1.1988m0,0a3.4492,3.4492,0,1,0,.49.1881,3.4466,3.4466,0,0,0-.49-.1881Z"/><path class="cls-7" d="M223.2705,173.46a.601.601,0,0,1,.0865.0332.608.608,0,1,1-.0865-.0332Z"/><rect class="cls-4" x="206.7399" y="167.771" width="8.7324" height="1.201" transform="translate(-31.3596 287.2209) rotate(-64.6875)"/><path class="cls-4" d="M231.1678,213.73H232.57a4.6811,4.6811,0,0,1,4.6811,4.6811v17.4156a0,0,0,0,1,0,0H226.4867a0,0,0,0,1,0,0V218.4109a4.6811,4.6811,0,0,1,4.6811-4.6811Z" transform="translate(320.2844 535.3765) rotate(-150)"/><path class="cls-2" d="M227.3554,232.5964a2.9968,2.9968,0,1,1,4.0936-1.097,3,3,0,0,1-4.0936,1.097M226.73,233.68a4.2481,4.2481,0,1,0-1.5549-5.8031A4.2481,4.2481,0,0,0,226.73,233.68Z"/><path class="cls-2" d="M228.4787,230.6507a.75.75,0,1,0-.2746-1.0247.75.75,0,0,0,.2746,1.0247Z"/><rect class="cls-2" x="231.5934" y="215.0835" width="10.7648" height="1.4805" transform="translate(334.2907 521.2206) rotate(-150)"/><rect class="cls-4" x="244.303" y="230.5936" width="24.6071" height="10.8089"/><rect class="cls-5" x="257.7887" y="231.6945" width="9.9081" height="5.9048" rx="1.1668"/><rect class="cls-5" x="245.7912" y="231.6945" width="5.1042" height="8.9073"/><rect class="cls-5" x="251.676" y="239.7761" width="4.0098" height="0.6005"/><rect class="cls-7" x="251.676" y="238.7002" width="4.0098" height="0.6005"/><rect class="cls-7" x="251.676" y="237.6244" width="4.0098" height="0.6005"/><rect class="cls-5" x="251.676" y="236.5485" width="4.0098" height="0.6005"/><rect class="cls-7" x="251.676" y="235.4726" width="4.0098" height="0.6005"/><rect class="cls-5" x="424.1012" y="140.8272" width="29.3008" height="6.4092"/><rect class="cls-5" x="406.071" y="120.2393" width="73.6518" height="24.6454"/><rect class="cls-4" x="404.6335" y="120.2393" width="3.4435" height="24.6454"/><rect class="cls-1" x="411.6258" y="121.8981" width="68.097" height="20.8538"/><path class="cls-4" d="M479.7618,47.0788H444.9259V49.03h.7628l20.1892,6.575H445.22V57.39h34.5421m0-5.2-8.5035,2.9967L452.3529,49.03h27.4089m0,6.575h-3.337l3.337-1.176"/><path class="cls-4" d="M.0134,57.39H49.3371V55.1866L30.4318,49.03H49.3371V47.0788H.0179m0,1.9509H6.5628L.0134,51.3378m0,2.2388,12.1114-4.2681,18.2239,6.2962H.0179m43.9388,0h-7.18L17.7459,49.03h6.0218Z"/></g></g></svg>