<?xml version="1.0" encoding="utf-8"?>
<!-- Generator: Adobe Illustrator 21.0.0, SVG Export Plug-In . SVG Version: 6.00 Build 0)  -->
<svg version="1.1" id="图层_1" xmlns="http://www.w3.org/2000/svg" xmlns:xlink="http://www.w3.org/1999/xlink" x="0px" y="0px"
	 viewBox="0 0 48 48" style="enable-background:new 0 0 48 48;" xml:space="preserve">
<style type="text/css">
	.st0{fill:#060001;}
	.st1{fill:#040000;}
	.st2{fill:none;stroke:#000000;stroke-miterlimit:10;}
	.st3{fill:#221815;}
	.st4{fill:#080102;}
	.st5{fill:none;stroke:#000000;stroke-width:2;stroke-linecap:round;stroke-linejoin:round;stroke-miterlimit:10;}
	.st6{fill:#070001;}
</style>
<path d="M39.7,22.1L26.1,8.4c-0.6-0.6-1.3-0.9-2.1-0.9s-1.5,0.3-2.1,0.9L8.3,22.1c-1,1-1,2.7,0,3.7l13.9,14c0.5,0.5,1.2,0.8,1.8,0.8
	s1.3-0.3,1.8-0.8l13.9-14C40.8,24.7,40.8,23.1,39.7,22.1z M38.7,24.8l-13.9,14c-0.2,0.2-0.5,0.3-0.8,0.3s-0.6-0.1-0.8-0.3l-13.9-14
	c-0.5-0.5-0.5-1.2,0-1.7L22.9,9.4c0.3-0.3,0.7-0.5,1.1-0.5s0.8,0.2,1.1,0.5l13.6,13.7C39.2,23.5,39.2,24.3,38.7,24.8z"/>
<path d="M3,17c0.6,0,1-0.4,1-1V6.9C4,5.3,5.3,4,6.9,4H16c0.6,0,1-0.4,1-1s-0.4-1-1-1H6.9C4.2,2,2,4.2,2,6.9V16C2,16.6,2.4,17,3,17z
	 M41.1,2H32c-0.6,0-1,0.4-1,1s0.4,1,1,1h9.1C42.7,4,44,5.3,44,6.9V16c0,0.6,0.4,1,1,1s1-0.4,1-1V6.9C46,4.2,43.8,2,41.1,2z M45,31
	c-0.6,0-1,0.4-1,1v9.1c0,1.6-1.3,2.9-2.9,2.9H32c-0.6,0-1,0.4-1,1s0.4,1,1,1h9.1c2.7,0,4.9-2.2,4.9-4.9V32C46,31.4,45.6,31,45,31z
	 M16,44H6.9C5.3,44,4,42.7,4,41.1V32c0-0.6-0.4-1-1-1s-1,0.4-1,1v9.1C2,43.8,4.2,46,6.9,46H16c0.6,0,1-0.4,1-1S16.6,44,16,44z"/>
</svg>
