<?xml version="1.0" encoding="utf-8"?>
<!-- Generator: Adobe Illustrator 21.0.0, SVG Export Plug-In . SVG Version: 6.00 Build 0)  -->
<svg version="1.1" id="图层_1" xmlns="http://www.w3.org/2000/svg" xmlns:xlink="http://www.w3.org/1999/xlink" x="0px" y="0px"
	 viewBox="0 0 48 48" style="enable-background:new 0 0 48 48;" xml:space="preserve">
<style type="text/css">
	.st0{fill:#060001;}
	.st1{fill:#040000;}
	.st2{fill:none;stroke:#000000;stroke-miterlimit:10;}
	.st3{fill:#221815;}
	.st4{fill:#080102;}
	.st5{fill:none;stroke:#000000;stroke-width:2;stroke-linecap:round;stroke-linejoin:round;stroke-miterlimit:10;}
	.st6{fill:#070001;}
</style>
<g>
	<path class="st0" d="M41.6,11L26.3,2.5c-1.3-0.7-3.4-0.7-4.7,0L6.4,11C5,11.8,4,13.5,4,15v18c0,1.5,1,3.2,2.4,4l15.3,8.5
		c0.6,0.4,1.5,0.6,2.4,0.6s1.7-0.2,2.3-0.6l15.3-8.5c1.3-0.7,2.4-2.5,2.4-4V15C44,13.5,43,11.8,41.6,11z M41.9,33
		c0,0.8-0.6,1.8-1.3,2.2l-15.3,8.5c-0.6,0.4-2,0.4-2.6,0L7.4,35.2c-0.7-0.4-1.3-1.4-1.3-2.2V15c0-0.8,0.6-1.8,1.3-2.2l15.3-8.5
		C23,4.1,23.5,4,24,4s1,0.1,1.3,0.3l15.3,8.5c0.7,0.4,1.3,1.4,1.3,2.2V33z"/>
	<path class="st0" d="M35,17.5c-0.1-0.2-0.5-0.4-0.6-0.5c-0.5-0.4-2.1-0.7-3.3-0.2c-0.1-0.2-0.3-0.3-0.4-0.5c-0.8-1.1-2.1-2-3.5-2.4
		c-1.3-0.5-2.7-0.7-4.2-0.7c-2.7,0-5.3,1.2-7,3.2c-1.2,0.4-2.4,1.1-3.3,2c0,0,0,0,0,0c0,0-0.1,0.1-0.3,0.3c0,0-0.1,0.1-0.1,0.1l0,0
		c-1,1.1-3.6,4.1-2.9,6.9c0.3,1.5,1.6,2.6,3.6,3.3c0.2,0.1,0.2,0.4,0.2,1.2c0,0.7,0,1.6,0.5,2.2c0.3,0.3,0.6,0.4,1.1,0.5
		c0.1,0,0.3,0,0.4,0c0.1,0,2.2,0.2,3.7-1.4c1.6-1.7,2-4.5,1.3-8.5c0-0.2-0.2-0.4-0.5-0.4l-0.2,0c-0.3,0.1-0.5,0.3-0.4,0.6
		c0.7,3.6,0.3,6.2-1,7.6c-1.1,1.1-2.5,1.1-2.9,1.1c-0.1,0-0.2,0-0.3,0c-0.2,0-0.4-0.1-0.5-0.2c-0.3-0.2-0.2-0.8-0.2-1.4
		c0-0.8,0-1.8-0.9-2.2c-1.7-0.6-2.7-1.4-2.9-2.5c-0.6-2.7,3-6.3,3-6.3c0,0,0-0.1,0.1-0.1c0.9-0.8,1.9-1.4,3-1.8
		c0.1,0,0.2-0.1,0.2-0.2c1.5-1.8,3.9-2.9,6.2-2.9c2.3,0,4.4,0.6,5.9,1.8c0.2,0.2,0.4,0.4,0.7,0.6c0,0,0,0,0,0
		c0.1,0.1,0.2,0.2,0.2,0.2c0.1,0.1,0.2,0.2,0.2,0.3c0.1,0.1,0.2,0.3,0.3,0.4c0,0,0.1,0.1,0.1,0.1c0,0,0,0,0,0c0.4,0.7,0.7,1.4,0.9,2
		c0.1,0.4,0.4,1.4,0.4,2.4c0,1.2-0.2,1.5-0.3,2c0,0.1,0,0.2,0.1,0.3c0.4-0.4,0.7-0.8,0.8-2.1c0.1-0.7,0.1-1.3,0-2.2
		c-0.2-1.2-0.6-1.9-0.7-2.2c0.8-0.4,2-0.1,2.3,0.1c0.1,0.1,0.3,0.3,0.4,0.3c0,0.1,0.1,0.2,0.2,0.4c1.8,4.4,1.9,7.6,0.5,9.7
		c-1.5,2.1-4.1,2.4-5.6,2.4h0v0l-0.1,0c-0.2,0.9-0.8,1.7-1.7,2.1c-0.4,0.2-0.8,0.2-1.2,0.2c-1.1,0-2.1-0.6-2.6-1.4l0.4,1.9
		c0.6,0.4,1.4,0.6,2.2,0.6c0.6,0,1.1-0.1,1.7-0.4c1-0.4,1.7-1.2,2.1-2.1c1.7-0.1,4.3-0.7,5.8-2.9c1.7-2.4,1.5-6-0.4-10.7
		C35.3,18,35.1,17.7,35,17.5z"/>
	<path class="st0" d="M26.1,23.4c0.1,0.1,0.2,0.1,0.3,0.1c0.2,0,0.4-0.1,0.5-0.2c0,0,0.4-0.6,1.1-0.6c0.1,0,0.3,0,0.4,0.1l0.2,0
		c0.2,0,0.5-0.2,0.5-0.4c0-0.1,0-0.3-0.1-0.4c-0.1-0.1-0.2-0.2-0.3-0.2c-0.2-0.1-0.5-0.1-0.7-0.1c-1,0-1.7,0.7-2,1.1
		c-0.1,0.1-0.1,0.3-0.1,0.4C25.9,23.2,25.9,23.3,26.1,23.4z"/>
</g>
</svg>
