<?xml version="1.0" encoding="utf-8"?>
<!-- Generator: Adobe Illustrator 21.0.0, SVG Export Plug-In . SVG Version: 6.00 Build 0)  -->
<svg version="1.1" id="图层_1" xmlns="http://www.w3.org/2000/svg" xmlns:xlink="http://www.w3.org/1999/xlink" x="0px" y="0px"
	 viewBox="0 0 48 48" style="enable-background:new 0 0 48 48;" xml:space="preserve">
<style type="text/css">
	.st0{fill:#060001;}
	.st1{fill:#040000;}
	.st2{fill:none;stroke:#000000;stroke-miterlimit:10;}
	.st3{fill:#221815;}
	.st4{fill:#080102;}
	.st5{fill:none;stroke:#000000;stroke-width:2;stroke-linecap:round;stroke-linejoin:round;stroke-miterlimit:10;}
	.st6{fill:#070001;}
</style>
<g>
	<circle class="st1" cx="22" cy="26" r="2"/>
	<circle class="st1" cx="14" cy="26" r="2"/>
	<circle class="st1" cx="30" cy="26" r="2"/>
	<path class="st1" d="M43.2,8H9.8C8.2,8,7,9.2,7,10.8V11h1v-0.2C8,9.8,8.8,9,9.8,9h33.5c1,0,1.8,0.8,1.8,1.8v21.5
		c0,1-0.8,1.8-1.8,1.8H43v1h0.2c1.5,0,2.8-1.2,2.8-2.8V10.8C46,9.2,44.8,8,43.2,8z"/>
	<path class="st1" d="M39,12H5c-1.7,0-3,1.3-3,3v22c0,1.7,1.3,3,3,3h34c1.7,0,3-1.3,3-3V15C42,13.3,40.7,12,39,12z M40,37
		c0,0.6-0.4,1-1,1H5c-0.6,0-1-0.4-1-1V15c0-0.6,0.4-1,1-1h34c0.6,0,1,0.4,1,1V37z"/>
</g>
</svg>
