<?xml version="1.0" encoding="utf-8"?>
<!-- Generator: Adobe Illustrator 21.0.0, SVG Export Plug-In . SVG Version: 6.00 Build 0)  -->
<svg version="1.1" id="图层_1" xmlns="http://www.w3.org/2000/svg" xmlns:xlink="http://www.w3.org/1999/xlink" x="0px" y="0px"
	 viewBox="0 0 48 48" style="enable-background:new 0 0 48 48;" xml:space="preserve">
<style type="text/css">
	.st0{fill:#060001;}
	.st1{fill:#040000;}
	.st2{fill:none;stroke:#000000;stroke-miterlimit:10;}
	.st3{fill:#221815;}
	.st4{fill:#080102;}
	.st5{fill:none;stroke:#000000;stroke-width:2;stroke-linecap:round;stroke-linejoin:round;stroke-miterlimit:10;}
	.st6{fill:#070001;}
</style>
<path d="M9.5,11.5c0.3,0,0.5-0.2,0.5-0.5s-0.2-0.5-0.5-0.5C7.3,10.5,6,12.1,6,15v18c0,2.9,1.3,4.5,3.5,4.5c0.3,0,0.5-0.2,0.5-0.5
	s-0.2-0.5-0.5-0.5C7.8,36.5,7,35.3,7,33V15C7,12.7,7.8,11.5,9.5,11.5z M4.5,30.5c-0.7,0-1.1-0.1-1.3-0.3C3,30,3,29.4,3,28.5L3,28
	l0-7.5c0-0.9,0-2.5,0.2-2.7c0.2-0.2,0.6-0.3,1.3-0.3C4.8,17.5,5,17.3,5,17s-0.2-0.5-0.5-0.5c-1,0-1.6,0.2-2,0.6
	C2,17.6,2,19.3,2,20.5L2,21l0,7.5c0,1.1,0,1.9,0.5,2.4c0.4,0.4,1,0.6,2,0.6C4.8,31.5,5,31.3,5,31S4.8,30.5,4.5,30.5z M46,27.5l0-0.5
	l0-7.5c0-1.1,0-1.9-0.5-2.4c-0.4-0.4-1-0.6-2-0.6c-0.3,0-0.5,0.2-0.5,0.5s0.2,0.5,0.5,0.5c0.7,0,1.1,0.1,1.3,0.3
	C45,18,45,18.6,45,19.5l0,0.5l0,7.5c0,1.2,0,2.2-0.4,2.6c-0.2,0.2-0.6,0.3-1.1,0.3c-0.3,0-0.5,0.2-0.5,0.5s0.2,0.5,0.5,0.5
	c0.8,0,1.4-0.2,1.8-0.6C46,30.1,46,28.9,46,27.5z M38.5,10.5c-0.3,0-0.5,0.2-0.5,0.5s0.2,0.5,0.5,0.5c1.7,0,2.5,1.2,2.5,3.5v18
	c0,2.3-0.8,3.5-2.5,3.5c-0.3,0-0.5,0.2-0.5,0.5s0.2,0.5,0.5,0.5c2.2,0,3.5-1.6,3.5-4.5V15C42,12.1,40.7,10.5,38.5,10.5z M32,3H16
	c-2.2,0-4,1.8-4,4v34c0,2.2,1.8,4,4,4h16c2.2,0,4-1.8,4-4V7C36,4.8,34.2,3,32,3z M34,41c0,1.1-0.9,2-2,2H16c-1.1,0-2-0.9-2-2V7
	c0-1.1,0.9-2,2-2h16c1.1,0,2,0.9,2,2V41z"/>
</svg>
