<?xml version="1.0" encoding="UTF-8"?>
<svg version="1.1" xmlns="http://www.w3.org/2000/svg" width="3474" height="3473">
<path d="M0 0 C1146.42 0 2292.84 0 3474 0 C3474 1146.09 3474 2292.18 3474 3473 C2327.58 3473 1181.16 3473 0 3473 C0 2326.91 0 1180.82 0 0 Z " fill="#E2007E" transform="translate(0,0)"/>
<path d="M0 0 C577.5 0 1155 0 1750 0 C1750 233.97 1750 467.94 1750 709 C1708.75 709 1667.5 709 1625 709 C1624.67 692.5 1624.34 676 1624 659 C1621.66579382 602.00646576 1614.97160762 543.70511327 1598 489 C1597.67338379 487.92637207 1597.34676758 486.85274414 1597.01025391 485.74658203 C1583.15228547 440.42465726 1564.24172476 396.59968421 1538 357 C1537.54415527 356.3100293 1537.08831055 355.62005859 1536.61865234 354.90917969 C1526.3892354 339.51536118 1515.11133118 324.95350777 1503 311 C1502.38898438 310.2884375 1501.77796875 309.576875 1501.1484375 308.84375 C1489.59121945 295.47900495 1477.50626373 282.42091601 1464 271 C1463.04480469 270.15566406 1462.08960937 269.31132813 1461.10546875 268.44140625 C1422.17951863 234.16019549 1376.12101019 207.9921122 1328 189 C1326.34753331 188.33754617 1324.69518433 187.67479863 1323.04296875 187.01171875 C1308.42974605 181.19174055 1293.6472486 176.52025401 1278.45703125 172.46875 C1275.15168126 171.58655754 1271.85737729 170.68018741 1268.57421875 169.71875 C1230.46740086 158.58781635 1190.53777619 153.23509959 1151.08203125 149.7265625 C1150.41268555 149.6664801 1149.74333984 149.60639771 1149.05371094 149.54449463 C1146.70359252 149.34484188 1144.35231741 149.17203869 1142 149 C1140.98380427 148.92242651 1139.96760855 148.84485302 1138.92061901 148.76492882 C1124.32863443 147.77538328 1109.71107926 147.66991906 1095.09185791 147.46777344 C1091.46419246 147.41679681 1087.83659258 147.36151571 1084.20898438 147.30664062 C1077.13938012 147.20031074 1070.06971654 147.09860867 1063 147 C1063.00859907 193.80314145 1063.01812027 240.6062827 1063.02832031 287.40942383 C1063.02851985 288.32538357 1063.0287194 289.24134331 1063.02892498 290.18505941 C1063.0503418 388.38262785 1063.07760242 486.58019262 1063.11663818 584.77775574 C1063.11750436 586.96041245 1063.11837053 589.14306917 1063.1192367 591.32572588 C1063.13743782 637.14606214 1063.15645866 682.96639802 1063.1764257 728.78673353 C1063.18645579 751.8057749 1063.19632846 774.82481634 1063.20605225 797.84385784 C1063.2075199 801.31606867 1063.20899206 804.7882795 1063.2104644 808.26049033 C1063.23308133 861.69119676 1063.25233407 915.12190178 1063.26177979 968.5526123 C1063.26208423 970.27419846 1063.26208423 970.27419846 1063.26239483 972.03056413 C1063.26564642 990.5338108 1063.26861417 1009.03705751 1063.27154423 1027.54030423 C1063.27999395 1080.87283079 1063.29056244 1134.20535319 1063.31498337 1187.53787518 C1063.31548516 1188.63596319 1063.31598695 1189.7340512 1063.31650395 1190.86541461 C1063.32756049 1214.97837064 1063.33969506 1239.091326 1063.35284859 1263.20428097 C1063.35812316 1272.90836527 1063.36324273 1282.61244964 1063.36830902 1292.31653404 C1063.36886722 1293.37856531 1063.36942543 1294.44059657 1063.37000055 1295.5348106 C1063.38787169 1329.68267072 1063.3931549 1363.83051837 1063.39175374 1397.9783827 C1063.39039898 1432.41248615 1063.40155726 1466.84656146 1063.42980235 1501.28065404 C1063.43371375 1506.05288629 1063.43748355 1510.82511864 1063.44116783 1515.59735107 C1063.4418951 1516.53274035 1063.44262237 1517.46812963 1063.44337167 1518.43186404 C1063.45446341 1533.16747976 1063.45226971 1547.90306149 1063.44435814 1562.63867799 C1063.4368329 1577.1741049 1063.44377901 1591.70946782 1063.4654923 1606.244881 C1063.47669599 1614.00178148 1063.48192142 1621.75855672 1063.46851245 1629.51545725 C1063.33845561 1709.89857772 1066.94670655 1801.62378057 1125 1864 C1125.58765137 1864.63147949 1126.17530273 1865.26295898 1126.78076172 1865.91357422 C1176.75728126 1918.96793946 1252.85997962 1934.16420262 1323 1937 C1330.40578397 1937.20803572 1337.81452236 1937.2540032 1345.22265625 1937.31640625 C1347.0719032 1937.33487074 1348.92114644 1937.35371032 1350.77038574 1937.3729248 C1357.53438012 1937.44063344 1364.29844491 1937.50115557 1371.0625 1937.5625 C1386.221875 1937.706875 1401.38125 1937.85125 1417 1938 C1417 1986.18 1417 2034.36 1417 2084 C1059.28 2084 701.56 2084 333 2084 C333 2035.82 333 1987.64 333 1938 C378.1875 1937.625 378.1875 1937.625 392.25854492 1937.52197266 C421.39771358 1937.26847903 450.13745967 1936.36859916 479 1932 C480.48258301 1931.77957031 480.48258301 1931.77957031 481.99511719 1931.5546875 C522.36383311 1925.47296585 563.69791837 1913.38648847 597 1889 C597.56025879 1888.59910156 598.12051758 1888.19820312 598.69775391 1887.78515625 C633.80001193 1862.49132774 655.3732767 1825.3703265 669 1785 C669.33773437 1784.01128906 669.67546875 1783.02257813 670.0234375 1782.00390625 C673.4301728 1771.52478845 675.73912576 1760.77283507 678 1750 C678.18062988 1749.15872559 678.36125977 1748.31745117 678.54736328 1747.45068359 C686.84249109 1707.97274233 686.59703083 1667.42360871 686.52763769 1627.28881747 C686.51498345 1619.46086197 686.52645886 1611.63297791 686.5381524 1603.80502739 C686.55933575 1589.18605679 686.56204626 1574.56713784 686.55419731 1559.94815636 C686.54633803 1545.16454106 686.54733788 1530.38096441 686.55883217 1515.59735107 C686.55955688 1514.65863824 686.56028159 1513.7199254 686.56102826 1512.75276673 C686.56476446 1507.96506572 686.56864185 1503.17736484 686.57256903 1498.38966398 C686.60060308 1463.86226519 686.60953288 1429.33488315 686.60811615 1394.80747414 C686.6067711 1360.64381998 686.61373458 1326.48018372 686.63169098 1292.31653404 C686.63224614 1291.25316956 686.6328013 1290.18980508 686.63337328 1289.09421743 C686.63844863 1279.38115881 686.64362542 1269.66810023 686.64892386 1259.95504173 C686.66209038 1235.81598674 686.67398581 1211.67693123 686.68501663 1187.53787518 C686.68551982 1186.43897665 686.686023 1185.34007813 686.68654144 1184.20787966 C686.71087148 1130.83154084 686.72055158 1077.45520072 686.72900391 1024.07885742 C686.731943 1005.57010903 686.73494711 987.06136064 686.73822021 968.5526123 C686.73852464 966.83059859 686.73852464 966.83059859 686.73883522 965.07379673 C686.74836976 911.64497417 686.76835262 858.21615699 686.79100834 804.78733857 C686.79248008 801.31610745 686.79394732 797.84487633 686.79541365 794.37364521 C686.80513877 771.36844311 686.81504349 748.36324108 686.82506842 725.35803911 C686.84501173 679.58851445 686.86390025 633.81898938 686.88206346 588.04946398 C686.88292833 585.87009872 686.88379393 583.69073347 686.88466028 581.51136821 C686.92362489 483.47738916 686.95032304 385.44340817 686.97167969 287.40942383 C686.97187962 286.49201887 686.97207956 285.57461391 686.97228555 284.6294088 C686.98227415 238.75293934 686.99157119 192.87646977 687 147 C679.29715416 147.10322324 671.59440056 147.21172421 663.89171749 147.32638621 C660.31238738 147.37951451 656.73305143 147.43103718 653.15364075 147.47845459 C618.690026 147.93771725 584.83895967 150.35064652 550.74316406 155.44189453 C547.66123353 155.90141013 544.57794335 156.34457807 541.4921875 156.77734375 C504.56925297 162.09747252 465.86298462 170.88596864 431.44726562 185.58007812 C428.18550348 186.92359148 424.91142594 188.09752789 421.57421875 189.23828125 C413.60612541 192.06511092 405.9339462 195.41944667 398.25 198.9375 C397.53922302 199.26158844 396.82844604 199.58567688 396.09613037 199.91958618 C375.21589774 209.46717103 355.12887585 220.27666514 336 233 C335.31292969 233.45439453 334.62585937 233.90878906 333.91796875 234.37695312 C318.52070902 244.60744596 303.95615132 255.88637427 290 268 C288.93265625 268.91652344 288.93265625 268.91652344 287.84375 269.8515625 C274.47900495 281.40878055 261.42091601 293.49373627 250 307 C248.73349609 308.43279297 248.73349609 308.43279297 247.44140625 309.89453125 C226.30834212 333.88827748 208.21799741 360.91279875 193 389 C192.54077148 389.8362793 192.08154297 390.67255859 191.60839844 391.53417969 C137.90633552 489.59392141 127.19542004 599.22899812 125 709 C83.75 709 42.5 709 0 709 C0 475.03 0 241.06 0 0 Z " fill="#FEFEFE" transform="translate(862,694)"/>
<path d="M0 0 C137.61 0 275.22 0 417 0 C417 137.61 417 275.22 417 417 C279.39 417 141.78 417 0 417 C0 279.39 0 141.78 0 0 Z " fill="#FEFEFE" transform="translate(2195,1653)"/>
<path d="M0 0 C137.61 0 275.22 0 417 0 C417 137.61 417 275.22 417 417 C279.39 417 141.78 417 0 417 C0 279.39 0 141.78 0 0 Z " fill="#FEFEFE" transform="translate(862,1653)"/>
</svg>
