<?xml version="1.0" encoding="utf-8"?>
<!-- Generator: Adobe Illustrator 21.0.0, SVG Export Plug-In . SVG Version: 6.00 Build 0)  -->
<svg version="1.1" id="图层_1" xmlns="http://www.w3.org/2000/svg" xmlns:xlink="http://www.w3.org/1999/xlink" x="0px" y="0px"
	 viewBox="0 0 48 48" style="enable-background:new 0 0 48 48;" xml:space="preserve">
<style type="text/css">
	.st0{fill:#040000;}
	.st1{fill:#060001;}
	.st2{fill:#080103;}
</style>
<path d="M24,24h6.5c2.5,0,4.5-2,4.5-4.5S33,15,30.5,15H23v16h1V24z M24,16h6.5c1.9,0,3.5,1.6,3.5,3.5c0,1.9-1.6,3.5-3.5,3.5H24V16z
	 M24,2C11.8,2,2,11.8,2,24s9.8,22,22,22s22-9.8,22-22S36.2,2,24,2z M24,44C13,44,4,35,4,24C4,13,13,4,24,4s20,9,20,20
	C44,35,35,44,24,44z M18,15h-1v16h1V15z M24,39c-4.1,0-7.8-1.5-10.6-4.4l-0.7,0.7c3,3,7,4.6,11.4,4.6s8.4-1.7,11.4-4.6l-0.7-0.7
	C31.8,37.5,28.1,39,24,39z"/>
</svg>
