<svg id="图层_1" data-name="图层 1" xmlns="http://www.w3.org/2000/svg" viewBox="0 0 40 40"><title>数据仓库服务-DWS</title><path d="M10,38.51H38v-1H10Zm0-10H38v-1H10Zm0,5H38v-1H10ZM41.85,12.93,26.16,4a4.62,4.62,0,0,0-4.25,0L6.22,12.93A4.82,4.82,0,0,0,4,16.81V42.49a1,1,0,0,0,1,1,1,1,0,0,0,1-1V16.81a2.76,2.76,0,0,1,1.18-2.09L22.8,5.8a2.94,2.94,0,0,1,2.46,0L41,14.72a2.76,2.76,0,0,1,1.18,2.09V42.49a1,1,0,1,0,1.9,0V16.81A4.81,4.81,0,0,0,41.85,12.93ZM10,18.51H38v-1H10Zm0,5H38v-1H10Z" transform="translate(-4.03 -3.5)"/></svg>