<?xml version="1.0" encoding="utf-8"?>
<!-- Generator: Adobe Illustrator 21.0.0, SVG Export Plug-In . SVG Version: 6.00 Build 0)  -->
<svg version="1.1" id="图层_1" xmlns="http://www.w3.org/2000/svg" xmlns:xlink="http://www.w3.org/1999/xlink" x="0px" y="0px"
	 viewBox="0 0 48 48" style="enable-background:new 0 0 48 48;" xml:space="preserve">
<path d="M35.3,16.1C33.7,11.4,29.3,8,24,8s-9.7,3.4-11.3,8.1C6.7,16.7,2,21.8,2,28c0,6.6,5.4,12,12,12h20c6.6,0,12-5.4,12-12
	C46,21.8,41.3,16.7,35.3,16.1z M34,38H14C8.5,38,4,33.5,4,28c0-5.1,3.8-9.4,8.9-9.9c0.8-0.1,1.4-0.6,1.7-1.3c1.4-4,5.2-6.7,9.4-6.7
	s8,2.7,9.4,6.7c0.3,0.7,0.9,1.2,1.7,1.3c5.1,0.6,8.9,4.8,8.9,9.9C44,33.5,39.5,38,34,38z M31.5,28h-15c-0.3,0-0.5,0.2-0.5,0.5
	s0.2,0.5,0.5,0.5h15c0.3,0,0.5-0.2,0.5-0.5S31.8,28,31.5,28z M34.8,23H14.2C13,23,12,24,12,25.2v6.6c0,1.2,1,2.2,2.2,2.2h20.7
	c1.2,0,2.2-1,2.2-2.2v-6.6C37,24,36,23,34.8,23z M36,31.8c0,0.7-0.5,1.2-1.2,1.2H14.2c-0.6,0-1.2-0.5-1.2-1.2v-6.6
	c0-0.7,0.5-1.2,1.2-1.2h20.7c0.6,0,1.2,0.5,1.2,1.2V31.8z"/>
</svg>
